<svg xmlns="http://www.w3.org/2000/svg" xmlns:xlink="http://www.w3.org/1999/xlink" width="1080" zoomAndPan="magnify" viewBox="0 0 810 809.999993" height="1080" preserveAspectRatio="xMidYMid meet" version="1.0"><defs><clipPath id="fec6c00a16"><path d="M 100.441406 81 L 709.441406 81 L 709.441406 729 L 100.441406 729 Z M 100.441406 81 " clip-rule="nonzero"/></clipPath></defs><g clip-path="url(#fec6c00a16)"><path fill="#e6e6e6" d="M 405.40625 728.859375 C 400.679688 712.984375 399.007812 697.476562 396.476562 682.152344 C 392.832031 660.125 389.40625 638.0625 386.105469 615.980469 C 385.570312 612.417969 384.28125 611.15625 380.664062 610.710938 C 291.363281 599.652344 218.566406 529.386719 204.140625 440.054688 C 203.230469 434.410156 201.582031 432.429688 195.945312 431.523438 C 164.820312 426.511719 133.648438 421.714844 102.726562 415.503906 C 102.003906 415.359375 101.296875 415.117188 100.453125 413.785156 C 111.058594 411.722656 121.644531 409.546875 132.277344 407.621094 C 153.472656 403.78125 174.664062 399.917969 195.917969 396.433594 C 200.992188 395.601562 202.929688 393.777344 203.449219 388.46875 C 207.027344 351.902344 220.226562 318.957031 242.644531 289.925781 C 274.996094 248.03125 316.578125 220.597656 369.097656 210.707031 C 374.453125 209.703125 381.972656 211.308594 384.675781 207.585938 C 387.847656 203.21875 387.277344 196.054688 388.101562 190.070312 C 392.523438 157.863281 396.75 125.628906 402.265625 93.578125 C 402.890625 89.953125 403.871094 86.386719 405.066406 81.101562 C 408.824219 93.597656 410.023438 104.792969 411.738281 115.871094 C 416.261719 145.097656 420.71875 174.335938 424.949219 203.605469 C 425.550781 207.773438 427.394531 208.894531 431.203125 209.488281 C 515.753906 222.65625 570.445312 271.597656 599.582031 350.761719 C 604.257812 363.464844 606.375 376.898438 607.714844 390.371094 C 608.0625 393.855469 609.179688 395.1875 612.839844 395.851562 C 644.050781 401.496094 675.214844 407.4375 706.386719 413.3125 C 707.464844 413.515625 708.503906 413.953125 709.558594 415.398438 C 692.183594 418.59375 674.816406 421.875 657.421875 424.964844 C 642.574219 427.601562 627.707031 430.121094 612.8125 432.476562 C 609.167969 433.054688 607.644531 434.5 607.105469 438.289062 C 594.691406 525.15625 523.144531 596.585938 433.574219 610.078125 C 428.4375 610.851562 426.546875 612.742188 425.765625 617.871094 C 420.816406 650.394531 415.527344 682.867188 409.367188 715.191406 C 408.542969 719.539062 407.714844 723.933594 405.40625 728.859375 Z M 525.71875 292.035156 C 526.015625 292.078125 526.316406 292.125 526.617188 292.167969 C 526.574219 291.898438 526.53125 291.632812 526.488281 291.363281 C 526.285156 291.621094 526.078125 291.875 525.875 292.128906 C 525.109375 291.976562 524.660156 292.324219 524.445312 293.039062 C 524.074219 293.15625 523.648438 293.191406 523.34375 293.398438 C 498.128906 310.261719 472.933594 327.160156 447.6875 343.976562 C 445.953125 345.128906 445.382812 346.382812 445.621094 348.335938 C 446.234375 353.308594 446.8125 358.28125 448.382812 363.085938 C 450.765625 362.570312 451.898438 360.847656 453.332031 359.574219 C 465.742188 348.550781 478.097656 337.460938 490.554688 326.488281 C 491.640625 325.53125 492.964844 322.996094 494.777344 325.136719 C 496.089844 326.6875 494 327.863281 493.082031 328.949219 C 484.53125 339.058594 475.914062 349.113281 467.339844 359.207031 C 463.574219 363.636719 459.867188 368.117188 455.984375 372.757812 C 471.742188 377.671875 473.453125 377.078125 481.304688 364.351562 C 481.511719 364.019531 481.730469 363.691406 481.9375 363.363281 C 496.511719 340.175781 511.085938 316.992188 525.660156 293.804688 C 526.121094 293.230469 526.738281 292.660156 525.71875 292.035156 Z M 317.949219 501.5625 C 317.402344 500.980469 316.855469 500.398438 316.308594 499.816406 C 329.015625 484.597656 341.722656 469.378906 354.964844 453.519531 C 351.074219 452.921875 348.109375 452.820312 345.375 451.976562 C 339.007812 450.023438 335.648438 452.6875 332.304688 458.089844 C 320.351562 477.386719 307.8125 496.328125 295.535156 515.425781 C 291.867188 521.132812 288.328125 526.917969 283.871094 534.039062 C 286.269531 533.082031 287.03125 532.925781 287.628906 532.523438 C 312.957031 515.464844 338.269531 498.382812 363.589844 481.316406 C 364.933594 480.414062 366.15625 479.539062 365.84375 477.613281 C 365.074219 472.828125 364.355469 468.035156 363.492188 462.40625 C 347.320312 475.074219 332.890625 488.625 317.949219 501.5625 Z M 498.410156 505.363281 C 481.902344 491.34375 465.398438 477.324219 448.191406 462.707031 C 447.554688 466.988281 447.421875 470.339844 446.511719 473.46875 C 445.085938 478.386719 446.660156 481.179688 450.972656 483.953125 C 474.832031 499.320312 498.472656 515.023438 522.210938 530.578125 C 523.238281 531.25 524.226562 532.621094 525.933594 531.5 C 525.886719 530.976562 526.023438 530.320312 525.761719 529.917969 C 509.316406 504.429688 492.835938 478.964844 476.371094 453.488281 C 475.460938 452.082031 474.40625 451.023438 472.574219 451.332031 C 467.492188 452.191406 462.222656 452.054688 456.335938 454.097656 C 471.136719 471.207031 485.445312 487.746094 499.75 504.285156 C 499.304688 504.644531 498.855469 505.003906 498.410156 505.363281 Z M 312.109375 319.984375 C 328.976562 334.492188 345.847656 349 363.398438 364.09375 C 364.515625 358.101562 365.398438 353.128906 366.378906 348.175781 C 366.78125 346.167969 365.472656 345.410156 364.128906 344.53125 C 338.730469 327.90625 313.34375 311.265625 287.949219 294.632812 C 286.679688 293.804688 285.484375 292.554688 283.769531 293.574219 C 300.519531 319.566406 317.253906 345.550781 334.015625 371.511719 C 335.230469 373.398438 335.996094 376.144531 339.070312 375.578125 C 344.152344 374.644531 349.472656 374.953125 355.175781 372.707031 C 340.175781 355.179688 325.558594 338.101562 310.941406 321.023438 C 311.332031 320.675781 311.722656 320.328125 312.109375 319.984375 Z M 376.410156 440.1875 C 376.363281 440.757812 376.21875 441.339844 376.289062 441.894531 C 383.796875 502.335938 393.039062 562.53125 401.695312 622.8125 C 402.898438 631.199219 403.691406 639.726562 406.550781 649.453125 C 413.429688 609.429688 418.019531 570.726562 423.519531 532.164062 C 427.78125 502.320312 431.832031 472.449219 435.972656 442.589844 C 436.417969 442.152344 436.863281 441.714844 437.304688 441.273438 C 445.574219 438.898438 454.113281 437.921875 462.59375 436.816406 C 514.847656 429.992188 567.125 423.359375 619.386719 416.578125 C 622.6875 416.148438 626.292969 416.261719 629.625 413.039062 C 607.144531 409.914062 585.261719 406.816406 563.363281 403.835938 C 522.210938 398.230469 481.054688 392.671875 439.894531 387.152344 C 436.878906 386.75 435.640625 385.445312 435.21875 382.339844 C 427.078125 322.15625 418.832031 261.984375 410.574219 201.816406 C 409.101562 191.085938 407.457031 180.378906 405.894531 169.660156 C 401.960938 192.683594 398.878906 215.59375 395.789062 238.5 C 389.34375 286.261719 382.828125 334.015625 376.5625 381.804688 C 376.015625 385.964844 374.070312 386.832031 370.59375 387.300781 C 326.910156 393.171875 283.234375 399.097656 239.5625 405.082031 C 220.289062 407.726562 201.039062 410.53125 181.777344 413.261719 C 181.773438 413.742188 181.769531 414.222656 181.761719 414.703125 C 246.722656 423.246094 311.683594 431.789062 376.640625 440.332031 Z M 381.753906 230.910156 C 382 227.066406 381.578125 226.800781 376.117188 227.625 C 341.523438 232.867188 311.191406 247.214844 284.804688 270.164062 C 281.015625 273.460938 280.746094 275.097656 285.269531 278.011719 C 309.945312 293.90625 334.425781 310.109375 358.992188 326.171875 C 368.332031 332.277344 368.539062 332.261719 369.96875 321.511719 C 374.019531 291.039062 377.910156 260.546875 381.753906 230.910156 Z M 487.214844 377.707031 C 520.800781 382.375 552.976562 386.691406 585.082031 391.46875 C 590.515625 392.277344 590.808594 390.679688 590.160156 386.253906 C 586.546875 361.546875 578.488281 338.453125 565.285156 317.234375 C 559.03125 307.183594 552.632812 297.207031 543.828125 288.375 C 524.933594 318.191406 506.34375 347.519531 487.214844 377.707031 Z M 322.597656 377.894531 C 322.023438 376.554688 321.867188 375.988281 321.566406 375.515625 C 303.804688 347.617188 285.976562 319.757812 268.300781 291.800781 C 264.964844 286.523438 263.554688 291.292969 262.199219 292.910156 C 239.144531 320.480469 225.144531 352.074219 220.320312 387.738281 C 219.804688 391.535156 220.667969 392.65625 224.484375 392.007812 C 232.203125 390.695312 239.964844 389.636719 247.71875 388.535156 C 272.515625 384.996094 297.316406 381.484375 322.597656 377.894531 Z M 443.488281 331.921875 C 471.90625 313.015625 499.554688 294.582031 527.257812 276.234375 C 530.46875 274.109375 528.324219 272.722656 526.847656 271.40625 C 500.113281 247.613281 469.261719 232.5625 433.683594 227.441406 C 429.027344 226.773438 428.773438 228.414062 429.347656 232.363281 C 432.308594 252.714844 434.9375 273.109375 437.792969 293.476562 C 439.546875 306.011719 441.492188 318.515625 443.488281 331.921875 Z M 220.984375 437.554688 C 221.15625 438.835938 221.238281 439.613281 221.363281 440.386719 C 227.195312 475.191406 243.316406 504.929688 266.003906 531.5 C 268.738281 534.703125 269.867188 533.144531 271.4375 530.683594 C 287.789062 505.125 304.109375 479.546875 320.605469 454.082031 C 323.160156 450.140625 322.546875 449.140625 317.96875 448.582031 C 301.25 446.546875 284.574219 444.179688 267.890625 441.875 C 253.726562 439.921875 239.585938 437.835938 225.414062 435.945312 C 223.773438 435.722656 220.832031 433.957031 220.984375 437.554688 Z M 368.433594 493.226562 C 366.050781 494.558594 364.648438 495.226562 363.363281 496.078125 C 338.21875 512.671875 313.144531 529.375 287.902344 545.816406 C 283.941406 548.394531 284.320312 549.921875 287.582031 552.5 C 314.191406 573.523438 343.957031 587.453125 377.542969 592.992188 C 382.078125 593.742188 382.765625 592.273438 382.121094 588.117188 C 379.585938 571.675781 377.351562 555.191406 374.992188 538.726562 C 372.855469 523.832031 370.703125 508.945312 368.433594 493.226562 Z M 489 449.527344 C 489.878906 451.304688 490.363281 452.570312 491.082031 453.6875 C 507.550781 479.375 524.105469 505.007812 540.476562 530.753906 C 542.796875 534.40625 543.960938 532.1875 545.492188 530.449219 C 568.226562 504.589844 582.988281 474.84375 589.375 440.941406 C 590.253906 436.28125 588.808594 435.914062 584.71875 436.507812 C 563.222656 439.621094 541.6875 442.484375 520.160156 445.402344 C 509.925781 446.792969 499.6875 448.117188 489 449.527344 Z M 443.957031 494.761719 C 443.507812 496.558594 443.140625 497.636719 442.980469 498.746094 C 438.636719 529.152344 434.371094 559.5625 429.929688 589.953125 C 429.230469 594.746094 432.070312 592.898438 434.070312 592.566406 C 467.636719 586.949219 497.246094 572.710938 523.78125 551.617188 C 527.316406 548.804688 527.140625 547.613281 523.414062 545.273438 C 502.53125 532.1875 481.789062 518.882812 461.003906 505.648438 C 455.449219 502.113281 449.90625 498.5625 443.957031 494.761719 Z M 443.957031 494.761719 " fill-opacity="1" fill-rule="evenodd"/></g><path fill="#ffffff" d="M 376.640625 440.332031 C 373.503906 434.488281 369.980469 428.832031 369.085938 422.03125 C 368.621094 418.511719 365.5625 419.515625 363.441406 419.429688 C 339.746094 418.46875 316.042969 417.703125 292.351562 416.667969 C 279.730469 416.117188 267.132812 415.148438 254.480469 413.101562 C 258.878906 412.792969 263.273438 412.347656 267.679688 412.199219 C 299.214844 411.125 330.753906 410.03125 362.296875 409.175781 C 366.636719 409.054688 368.523438 407.996094 369.925781 403.457031 C 373.679688 391.332031 382.03125 382.855469 394.183594 379.046875 C 399.277344 377.453125 400.566406 375.023438 400.742188 370.023438 C 401.769531 341.039062 403.167969 312.0625 404.449219 283.085938 C 404.5 281.929688 404.609375 280.773438 404.710938 279.386719 C 408.164062 280.285156 407.347656 282.996094 407.457031 285.023438 C 409 313.199219 410.566406 341.378906 411.84375 369.570312 C 412.074219 374.644531 413.171875 377.363281 418.746094 378.878906 C 431.929688 382.464844 440.910156 391.171875 444.410156 404.582031 C 445.414062 408.429688 447.269531 408.875 450.523438 408.996094 C 485.1875 410.304688 519.902344 410.328125 554.515625 412.964844 C 556.050781 413.082031 557.589844 413.1875 559.15625 414.394531 C 546.894531 415.117188 534.636719 415.984375 522.367188 416.535156 C 499.066406 417.582031 475.761719 418.542969 452.453125 419.308594 C 447.832031 419.460938 444.734375 419.964844 444.160156 425.640625 C 443.730469 429.867188 441.25 433.683594 438.734375 437.238281 C 437.910156 438.402344 436.183594 439.375 437.304688 441.273438 C 436.859375 441.714844 436.414062 442.152344 435.972656 442.59375 C 429.375 445.632812 424.027344 451.183594 416.527344 452.382812 C 413.210938 452.910156 412.109375 454.726562 412.050781 457.988281 C 411.917969 465.03125 411.503906 472.070312 411.101562 479.101562 C 409.488281 507.488281 407.835938 535.871094 406.191406 564.410156 C 405.023438 562.3125 405.03125 560.195312 404.933594 558.105469 C 404.449219 547.941406 403.949219 537.777344 403.515625 527.609375 C 402.53125 504.535156 401.613281 481.460938 400.578125 458.386719 C 400.480469 456.253906 401.300781 453.390625 397.957031 452.660156 C 389.441406 450.792969 383.042969 445.289062 376.410156 440.1875 Z M 407.074219 437.121094 C 419.390625 437.035156 429.300781 427.25 429.191406 415.285156 C 429.078125 403.152344 418.640625 393.09375 406.390625 393.316406 C 394.359375 393.535156 384.460938 403.675781 384.605469 415.636719 C 384.75 427.644531 394.75 437.203125 407.074219 437.121094 Z M 407.074219 437.121094 " fill-opacity="1" fill-rule="evenodd"/><path fill="#ffffff" d="M 317.949219 501.5625 C 316.117188 503.664062 314.472656 506.050781 310.234375 506.222656 C 312.640625 503.683594 314.472656 501.75 316.308594 499.816406 C 316.855469 500.398438 317.402344 500.980469 317.949219 501.5625 Z M 317.949219 501.5625 " fill-opacity="1" fill-rule="evenodd"/><path fill="#e6e6e6" d="M 310.941406 321.023438 C 310.496094 320.460938 308.9375 320.257812 310.050781 319.191406 C 310.84375 318.429688 311.660156 319.078125 312.109375 319.984375 C 311.722656 320.328125 311.332031 320.675781 310.941406 321.023438 Z M 310.941406 321.023438 " fill-opacity="1" fill-rule="evenodd"/><path fill="#ffffff" d="M 497.15625 321.046875 C 498.398438 319.371094 499.640625 317.699219 500.886719 316.023438 C 501.917969 319.734375 499.785156 321.054688 498.082031 322.65625 C 497.773438 322.121094 497.464844 321.582031 497.15625 321.046875 Z M 497.15625 321.046875 " fill-opacity="1" fill-rule="evenodd"/><path fill="#ffffff" d="M 498.082031 322.65625 C 497.480469 323.183594 496.808594 323.515625 496.273438 322.664062 C 495.671875 321.707031 496.605469 321.449219 497.15625 321.046875 C 497.464844 321.582031 497.773438 322.121094 498.082031 322.65625 Z M 498.082031 322.65625 " fill-opacity="1" fill-rule="evenodd"/><path fill="#e6e6e6" d="M 499.75 504.285156 C 500.6875 504.996094 501.996094 506.042969 500.839844 506.988281 C 499.789062 507.84375 499.109375 506.140625 498.410156 505.363281 C 498.855469 505.003906 499.304688 504.644531 499.75 504.285156 Z M 499.75 504.285156 " fill-opacity="1" fill-rule="evenodd"/></svg>