<svg xmlns="http://www.w3.org/2000/svg" xmlns:xlink="http://www.w3.org/1999/xlink" width="1080" zoomAndPan="magnify" viewBox="0 0 810 809.999993" height="1080" preserveAspectRatio="xMidYMid meet" version="1.0"><defs><g/><clipPath id="7d872b55ce"><path d="M 0.960938 0.933594 L 335.355469 0.933594 L 335.355469 318.851562 L 0.960938 318.851562 Z M 0.960938 0.933594 " clip-rule="nonzero"/></clipPath><clipPath id="3c775e1d07"><rect x="0" width="336" y="0" height="319"/></clipPath><clipPath id="edeeb193a0"><path d="M 549.925781 70.488281 L 726.546875 70.488281 L 726.546875 248.792969 L 549.925781 248.792969 Z M 549.925781 70.488281 " clip-rule="nonzero"/></clipPath><clipPath id="26c18fe14a"><path d="M 187 68 L 320 68 L 320 173 L 187 173 Z M 187 68 " clip-rule="nonzero"/></clipPath><clipPath id="7322203731"><path d="M 190.660156 64.890625 L 320.128906 68.671875 L 316.984375 176.28125 L 187.515625 172.5 Z M 190.660156 64.890625 " clip-rule="nonzero"/></clipPath><clipPath id="6be19fadfe"><path d="M 190.660156 64.890625 L 320.128906 68.671875 L 316.984375 176.28125 L 187.515625 172.5 Z M 190.660156 64.890625 " clip-rule="nonzero"/></clipPath><clipPath id="464ac378c7"><path d="M 510 106 L 576 106 L 576 159 L 510 159 Z M 510 106 " clip-rule="nonzero"/></clipPath><clipPath id="16f5d2c007"><path d="M 511.652344 104.550781 L 575.542969 106.417969 L 573.972656 160.222656 L 510.082031 158.355469 Z M 511.652344 104.550781 " clip-rule="nonzero"/></clipPath><clipPath id="294768f3db"><path d="M 511.652344 104.550781 L 575.542969 106.417969 L 573.972656 160.222656 L 510.082031 158.355469 Z M 511.652344 104.550781 " clip-rule="nonzero"/></clipPath><clipPath id="27c4b51fe7"><path d="M 305 160 L 352 160 L 352 221 L 305 221 Z M 305 160 " clip-rule="nonzero"/></clipPath><clipPath id="c985a2eeac"><path d="M 354.636719 162.578125 L 351.394531 221.363281 L 302.6875 218.679688 L 305.929688 159.894531 Z M 354.636719 162.578125 " clip-rule="nonzero"/></clipPath><clipPath id="108a14d42d"><path d="M 354.636719 162.578125 L 351.394531 221.363281 L 302.6875 218.679688 L 305.929688 159.894531 Z M 354.636719 162.578125 " clip-rule="nonzero"/></clipPath><clipPath id="363ab346ca"><path d="M 303 168 L 370 168 L 370 192 L 303 192 Z M 303 168 " clip-rule="nonzero"/></clipPath><clipPath id="8edfc270cb"><path d="M 341.140625 144.945312 L 369.25 190.851562 L 330.515625 214.566406 L 302.410156 168.660156 Z M 341.140625 144.945312 " clip-rule="nonzero"/></clipPath><clipPath id="cd7f2d540a"><path d="M 341.140625 144.945312 L 369.25 190.851562 L 330.515625 214.566406 L 302.410156 168.660156 Z M 341.140625 144.945312 " clip-rule="nonzero"/></clipPath><clipPath id="a2994d268f"><path d="M 515 143 L 596 143 L 596 250 L 515 250 Z M 515 143 " clip-rule="nonzero"/></clipPath><clipPath id="18bfd1b00d"><path d="M 601.238281 147.523438 L 595.589844 249.976562 L 509.933594 245.253906 L 515.582031 142.800781 Z M 601.238281 147.523438 " clip-rule="nonzero"/></clipPath><clipPath id="6249169bfc"><path d="M 601.238281 147.523438 L 595.589844 249.976562 L 509.933594 245.253906 L 515.582031 142.800781 Z M 601.238281 147.523438 " clip-rule="nonzero"/></clipPath><clipPath id="8e3063a3f6"><rect x="0" width="149" y="0" height="113"/></clipPath><clipPath id="33bb13921f"><rect x="0" width="728" y="0" height="320"/></clipPath></defs><g transform="matrix(1, 0, 0, 1, 42, 241)"><g clip-path="url(#33bb13921f)"><g clip-path="url(#7d872b55ce)"><g transform="matrix(1, 0, 0, 1, -0.000000000000007105, 0.000000000000028422)"><g clip-path="url(#3c775e1d07)"><path fill="#ffffff" d="M 40.25 170.804688 C 58.496094 166.320312 72.292969 171.363281 85.085938 183.007812 C 114.011719 209.300781 143.71875 234.742188 173.089844 260.554688 C 174.535156 261.8125 175.871094 263.816406 177.464844 264.078125 C 180.0625 264.449219 183.957031 264.671875 185.253906 263.148438 C 185.839844 261.90625 186.132812 260.59375 186.132812 259.21875 C 186.132812 257.84375 185.839844 256.53125 185.253906 255.289062 C 184.289062 252.988281 181.546875 251.578125 179.617188 249.539062 L 103.292969 175.886719 C 101.960938 174.589844 100.773438 173.179688 98.695312 170.878906 C 101.589844 170.582031 103.554688 170.175781 105.484375 170.175781 C 116.542969 170.261719 127.449219 171.609375 138.199219 174.222656 C 148.945312 176.835938 159.253906 180.640625 169.121094 185.640625 C 182.878906 192.277344 195.785156 190.535156 208.839844 183.75 C 211.886719 182.066406 215.152344 181.136719 218.628906 180.96875 C 246.851562 180.597656 275.113281 180.597656 303.371094 180.300781 C 309.351562 180.285156 315.273438 179.691406 321.136719 178.519531 C 322.089844 178.28125 323.019531 177.96875 323.921875 177.582031 C 324.824219 177.191406 325.691406 176.734375 326.519531 176.207031 C 327.347656 175.679688 328.128906 175.085938 328.863281 174.429688 C 329.597656 173.777344 330.273438 173.066406 330.890625 172.300781 C 331.507812 171.535156 332.0625 170.726562 332.550781 169.875 C 333.035156 169.019531 333.453125 168.132812 333.792969 167.210938 C 334.136719 166.289062 334.40625 165.347656 334.597656 164.382812 C 334.785156 163.417969 334.898438 162.445312 334.929688 161.460938 C 334.988281 160.441406 334.957031 159.421875 334.839844 158.40625 C 334.722656 157.390625 334.523438 156.390625 334.234375 155.410156 C 333.949219 154.429688 333.582031 153.480469 333.132812 152.558594 C 332.683594 151.640625 332.160156 150.769531 331.5625 149.9375 C 330.960938 149.109375 330.296875 148.335938 329.570312 147.621094 C 328.839844 146.90625 328.054688 146.253906 327.214844 145.671875 C 326.371094 145.089844 325.488281 144.585938 324.5625 144.152344 C 323.636719 143.722656 322.679688 143.371094 321.691406 143.105469 C 315.578125 141.8125 309.398438 141.195312 303.148438 141.25 C 274.890625 140.878906 246.628906 140.804688 218.410156 140.46875 C 215.421875 140.515625 212.601562 139.847656 209.953125 138.46875 C 208.386719 137.460938 206.765625 136.558594 205.082031 135.765625 C 203.398438 134.96875 201.667969 134.289062 199.898438 133.722656 C 198.125 133.15625 196.320312 132.707031 194.488281 132.375 C 192.65625 132.046875 190.8125 131.835938 188.953125 131.75 C 187.09375 131.660156 185.238281 131.695312 183.382812 131.851562 C 181.527344 132.007812 179.691406 132.285156 177.875 132.683594 C 176.054688 133.082031 174.269531 133.597656 172.519531 134.230469 C 170.769531 134.863281 169.066406 135.609375 167.414062 136.464844 C 157.746094 141.347656 147.632812 145.015625 137.078125 147.46875 C 126.527344 149.917969 115.832031 151.085938 105 150.964844 C 106.125 149.132812 107.363281 147.378906 108.710938 145.699219 C 131.652344 122.039062 154.546875 98.390625 177.390625 74.753906 C 177.949219 74.160156 178.875 73.753906 179.097656 73.050781 C 179.839844 71.046875 180.320312 68.96875 180.914062 66.929688 C 178.972656 67.175781 177.070312 67.59375 175.203125 68.191406 C 174.015625 68.671875 173.164062 69.933594 172.125 70.824219 C 140.75 96.339844 109.449219 122 77.816406 147.21875 C 75.746094 148.644531 73.519531 149.753906 71.136719 150.554688 C 68.753906 151.355469 66.308594 151.8125 63.796875 151.929688 C 54.453125 152.632812 45.035156 152.117188 33.722656 152.117188 C 48.554688 139.804688 62.539062 129.863281 74.886719 118.035156 C 92.207031 101.640625 108.265625 83.953125 125.101562 67.042969 C 139.046875 52.984375 153.25 39.226562 167.414062 25.394531 C 169.160156 23.6875 171.125 22.277344 173.015625 20.683594 C 177.800781 16.457031 178.839844 11.488281 174.871094 6.332031 C 170.902344 1.175781 165.191406 1.621094 159.851562 6.332031 C 147.019531 18.015625 134.261719 29.808594 121.429688 41.527344 C 119.878906 43.03125 118.210938 44.390625 116.421875 45.605469 C 73.402344 73.679688 38.542969 110.652344 5.167969 148.890625 C -1.101562 155.972656 -0.210938 157.492188 9.46875 167.097656 C 22.078125 179.410156 34.019531 192.351562 46.554688 204.777344 C 56.566406 214.714844 67.097656 224.136719 77.074219 234.113281 C 82.527344 239.601562 86.753906 246.386719 92.464844 251.578125 C 114.273438 271.492188 136.449219 291.039062 158.515625 310.691406 C 159.515625 311.582031 160.554688 312.472656 161.628906 313.289062 C 168.269531 318.222656 174.945312 317.851562 179.800781 312.324219 C 184.660156 306.800781 184.03125 300.71875 178.503906 294.785156 C 174.796875 290.59375 170.269531 286.882812 166.15625 282.917969 C 147.128906 264.816406 128.511719 246.203125 108.933594 228.695312 C 90.613281 212.34375 71.179688 197.210938 52.300781 181.488281 C 48.296875 178.222656 44.625 174.515625 40.25 170.804688 Z M 40.25 170.804688 " fill-opacity="1" fill-rule="nonzero"/></g></g></g><g clip-path="url(#edeeb193a0)"><path fill="#ffffff" d="M 719.554688 152.730469 L 589.730469 152.730469 L 701.921875 145.320312 C 705.828125 145.0625 708.785156 141.6875 708.527344 137.78125 C 708.269531 133.875 704.894531 130.917969 700.988281 131.175781 L 664.402344 133.589844 C 666.179688 132.511719 667.921875 131.355469 669.625 130.109375 C 673 127.644531 676.203125 124.796875 678.992188 121.46875 C 681.777344 118.148438 684.128906 114.296875 685.605469 110.054688 C 687.09375 105.824219 687.640625 101.257812 687.292969 96.890625 C 687.128906 94.703125 686.757812 92.558594 686.238281 90.484375 C 685.742188 88.449219 684.980469 86.285156 684 84.292969 C 682.039062 80.273438 678.960938 76.65625 675.117188 74.238281 C 671.285156 71.800781 666.816406 70.566406 662.425781 70.53125 C 658.035156 70.476562 653.683594 71.585938 649.894531 73.699219 C 646.105469 75.808594 642.90625 79 640.882812 82.808594 C 640.382812 83.757812 639.949219 84.742188 639.582031 85.746094 C 639.21875 86.730469 638.925781 87.882812 638.765625 88.976562 C 638.4375 91.195312 638.667969 93.441406 639.269531 95.527344 C 640.464844 99.71875 643.328125 103.277344 647.003906 105.40625 L 646.882812 105.324219 C 650.230469 107.71875 654.574219 108.421875 658.410156 107.425781 C 662.257812 106.460938 665.609375 103.71875 667.160156 100.148438 C 667.941406 98.375 668.316406 96.464844 668.324219 94.574219 C 668.402344 92.660156 667.832031 90.707031 666.71875 89.160156 C 665.625 87.609375 663.875 86.453125 661.972656 86.339844 C 660.0625 86.210938 658.277344 87.097656 656.914062 88.285156 C 658.351562 87.179688 660.160156 86.441406 661.941406 86.675781 C 663.714844 86.894531 665.242188 88.058594 666.160156 89.539062 C 667.089844 91.023438 667.496094 92.796875 667.3125 94.53125 C 667.179688 96.292969 666.703125 98.011719 665.898438 99.535156 C 664.289062 102.601562 661.234375 104.710938 657.933594 105.296875 C 654.632812 105.902344 651.152344 105.03125 648.671875 102.964844 L 648.667969 102.964844 L 648.550781 102.882812 C 645.699219 100.941406 643.613281 97.878906 642.941406 94.585938 C 642.601562 92.945312 642.554688 91.261719 642.914062 89.6875 C 643.101562 88.882812 643.332031 88.171875 643.6875 87.375 C 644.039062 86.589844 644.4375 85.832031 644.886719 85.109375 C 646.695312 82.21875 649.34375 79.933594 652.394531 78.507812 C 655.441406 77.074219 658.871094 76.464844 662.171875 76.742188 C 665.476562 77 668.636719 78.160156 671.1875 80.050781 C 673.75 81.9375 675.679688 84.550781 676.890625 87.539062 C 678.066406 90.480469 678.714844 94.042969 678.800781 97.328125 C 678.871094 100.648438 678.285156 103.867188 677.050781 106.84375 C 674.59375 112.824219 669.578125 117.753906 663.6875 121.574219 C 657.777344 125.421875 651.015625 128.277344 644.046875 130.527344 C 637.058594 132.769531 629.800781 134.394531 622.46875 135.574219 C 617.007812 136.445312 602.070312 137.691406 600.277344 137.761719 L 600.28125 137.824219 L 386.964844 151.914062 L 432.734375 80.675781 L 316.921875 159.820312 L 432.734375 238.960938 L 386.964844 167.722656 L 596.273438 181.546875 C 596.273438 181.546875 611.101562 182.949219 618.4375 184.121094 C 625.773438 185.296875 633.027344 186.921875 640.019531 189.164062 C 646.988281 191.417969 653.75 194.273438 659.660156 198.121094 C 665.550781 201.9375 670.5625 206.871094 673.019531 212.851562 C 674.257812 215.828125 674.839844 219.046875 674.769531 222.367188 C 674.6875 225.652344 674.039062 229.210938 672.863281 232.15625 C 671.652344 235.144531 669.722656 237.757812 667.160156 239.644531 C 664.609375 241.535156 661.449219 242.691406 658.144531 242.953125 C 654.84375 243.230469 651.414062 242.621094 648.367188 241.1875 C 645.316406 239.757812 642.667969 237.476562 640.859375 234.585938 C 640.410156 233.863281 640.011719 233.105469 639.660156 232.320312 C 639.304688 231.519531 639.074219 230.808594 638.886719 230.007812 C 638.527344 228.429688 638.574219 226.746094 638.914062 225.109375 C 639.585938 221.8125 641.667969 218.753906 644.523438 216.808594 L 644.640625 216.726562 C 647.125 214.660156 650.605469 213.789062 653.90625 214.398438 C 657.207031 214.984375 660.261719 217.089844 661.871094 220.15625 C 662.675781 221.683594 663.152344 223.398438 663.285156 225.164062 C 663.46875 226.894531 663.0625 228.667969 662.132812 230.15625 C 661.214844 231.632812 659.6875 232.796875 657.910156 233.015625 C 656.132812 233.25 654.324219 232.515625 652.886719 231.410156 C 654.253906 232.59375 656.035156 233.480469 657.945312 233.351562 C 659.847656 233.238281 661.597656 232.082031 662.691406 230.53125 C 663.804688 228.988281 664.375 227.03125 664.296875 225.117188 C 664.289062 223.230469 663.914062 221.316406 663.132812 219.542969 C 661.582031 215.976562 658.230469 213.234375 654.382812 212.269531 C 650.550781 211.269531 646.207031 211.976562 642.859375 214.367188 L 642.976562 214.285156 C 639.300781 216.417969 636.4375 219.972656 635.242188 224.164062 C 634.640625 226.25 634.410156 228.5 634.738281 230.71875 C 634.898438 231.808594 635.191406 232.960938 635.554688 233.945312 C 635.921875 234.949219 636.351562 235.933594 636.855469 236.882812 C 638.878906 240.691406 642.078125 243.882812 645.867188 245.992188 C 649.65625 248.109375 654.003906 249.214844 658.402344 249.164062 C 662.789062 249.128906 667.257812 247.890625 671.089844 245.457031 C 674.9375 243.039062 678.015625 239.417969 679.972656 235.398438 C 680.953125 233.40625 681.714844 231.242188 682.210938 229.207031 C 682.730469 227.132812 683.101562 224.988281 683.265625 222.800781 C 683.613281 218.433594 683.066406 213.871094 681.578125 209.640625 C 680.101562 205.398438 677.75 201.542969 674.964844 198.222656 C 672.175781 194.894531 668.972656 192.050781 665.597656 189.582031 C 663.699219 188.195312 661.742188 186.925781 659.753906 185.738281 L 701.039062 188.46875 C 704.949219 188.726562 708.324219 185.765625 708.582031 181.859375 C 708.839844 177.953125 705.882812 174.578125 701.976562 174.320312 L 589.726562 166.90625 L 719.554688 166.90625 C 723.46875 166.90625 726.640625 163.734375 726.640625 159.820312 C 726.640625 155.902344 723.46875 152.730469 719.554688 152.730469 Z M 719.554688 152.730469 " fill-opacity="1" fill-rule="nonzero"/></g><path stroke-linecap="butt" transform="matrix(1.682092, 0, 0, 1.682092, 302.345377, 141.369688)" fill="none" stroke-linejoin="miter" d="M -0.000966996 10.999045 L 191.840685 10.999045 " stroke="#ffffff" stroke-width="22" stroke-opacity="1" stroke-miterlimit="4"/><g clip-path="url(#26c18fe14a)"><g clip-path="url(#7322203731)"><g clip-path="url(#6be19fadfe)"><path fill="#ffffff" d="M 283.3125 90.597656 C 268.605469 102.117188 223.277344 143.386719 195.113281 170.945312 C 192.761719 173.242188 190.5 173.195312 188.105469 171.125 C 187.582031 170.671875 188.359375 169.324219 191.078125 167.300781 C 203.929688 157.726562 214.542969 149.601562 222.191406 142.039062 C 223.617188 140.632812 224.75 139.074219 225.167969 137.421875 C 229.871094 118.785156 227.195312 108.667969 239.984375 96.214844 C 254.480469 82.097656 268.21875 78.628906 280.363281 77.457031 C 298.988281 75.65625 311.832031 71.476562 319.390625 68.695312 C 310.671875 77.460938 306.53125 81.753906 304.4375 85.484375 C 293.078125 105.699219 291.898438 113.992188 286.3125 122.425781 C 280.722656 130.855469 275.828125 139.207031 257.796875 146.390625 C 248.675781 150.027344 235.871094 147.820312 229.714844 141.097656 Z M 283.3125 90.597656 " fill-opacity="1" fill-rule="nonzero"/></g></g></g><g clip-path="url(#464ac378c7)"><g clip-path="url(#16f5d2c007)"><g clip-path="url(#294768f3db)"><path fill="#ffffff" d="M 557.96875 117.398438 C 550.617188 123.160156 527.957031 143.789062 513.875 157.566406 C 512.703125 158.714844 511.570312 158.691406 510.375 157.65625 C 510.113281 157.429688 510.5 156.753906 511.859375 155.742188 C 518.285156 150.957031 523.589844 146.894531 527.414062 143.113281 C 528.125 142.410156 528.695312 141.632812 528.902344 140.804688 C 531.253906 131.492188 529.914062 126.433594 536.308594 120.207031 C 543.554688 113.152344 550.421875 111.417969 556.492188 110.832031 C 565.804688 109.929688 572.222656 107.839844 576.003906 106.449219 C 571.644531 110.832031 569.574219 112.980469 568.527344 114.84375 C 562.851562 124.949219 562.261719 129.09375 559.46875 133.308594 C 556.675781 137.523438 554.226562 141.699219 545.210938 145.289062 C 540.652344 147.109375 534.253906 146.007812 531.175781 142.644531 Z M 557.96875 117.398438 " fill-opacity="1" fill-rule="nonzero"/></g></g></g><g clip-path="url(#27c4b51fe7)"><g clip-path="url(#c985a2eeac)"><g clip-path="url(#108a14d42d)"><path fill="#ffffff" d="M 341.886719 204.304688 C 336.835938 197.5 318.644531 176.453125 306.476562 163.351562 C 305.460938 162.261719 305.507812 161.234375 306.476562 160.171875 C 306.6875 159.941406 307.289062 160.308594 308.175781 161.566406 C 312.367188 167.507812 315.929688 172.417969 319.269531 175.976562 C 319.890625 176.640625 320.585938 177.171875 321.332031 177.378906 C 329.726562 179.734375 334.351562 178.636719 339.847656 184.585938 C 346.082031 191.328125 347.492188 197.601562 347.882812 203.121094 C 348.480469 211.589844 350.226562 217.464844 351.398438 220.929688 C 347.527344 216.871094 345.625 214.941406 343.960938 213.949219 C 334.921875 208.558594 331.175781 207.925781 327.414062 205.292969 C 323.65625 202.660156 319.925781 200.339844 316.878906 192.074219 C 315.335938 187.894531 316.488281 182.113281 319.609375 179.398438 Z M 341.886719 204.304688 " fill-opacity="1" fill-rule="nonzero"/></g></g></g><g clip-path="url(#363ab346ca)"><g clip-path="url(#8edfc270cb)"><g clip-path="url(#cd7f2d540a)"><path fill="#ffffff" d="M 353.371094 183.421875 C 345.945312 180.898438 321.03125 174.441406 304.875 170.867188 C 303.527344 170.566406 303.023438 169.761719 303.203125 168.445312 C 303.242188 168.15625 303.894531 168.121094 305.230469 168.609375 C 311.546875 170.929688 316.839844 172.796875 321.253906 173.75 C 322.078125 173.925781 322.886719 173.964844 323.5625 173.734375 C 331.191406 171.109375 334.136719 167.84375 341.449219 169.480469 C 349.738281 171.335938 354.113281 175.367188 357.316406 179.367188 C 362.222656 185.5 366.644531 189.054688 369.355469 191.074219 C 364.273438 190.023438 361.8125 189.554688 360.019531 189.671875 C 350.304688 190.324219 347.121094 191.8125 342.871094 191.785156 C 338.625 191.757812 334.566406 191.953125 327.898438 187.261719 C 324.527344 184.890625 322.363281 179.882812 323.3125 176.175781 Z M 353.371094 183.421875 " fill-opacity="1" fill-rule="nonzero"/></g></g></g><g clip-path="url(#a2994d268f)"><g clip-path="url(#18bfd1b00d)"><g clip-path="url(#6249169bfc)"><path fill="#ffffff" d="M 579.015625 220.277344 C 570.207031 208.40625 538.492188 171.714844 517.273438 148.871094 C 515.503906 146.96875 515.589844 145.179688 517.277344 143.328125 C 517.644531 142.925781 518.695312 143.566406 520.238281 145.753906 C 527.546875 156.117188 533.757812 164.679688 539.582031 170.882812 C 540.664062 172.039062 541.875 172.96875 543.175781 173.332031 C 557.816406 177.433594 565.875 175.523438 575.460938 185.894531 C 586.328125 197.648438 588.792969 208.585938 589.472656 218.210938 C 590.511719 232.980469 593.558594 243.222656 595.601562 249.257812 C 588.847656 242.183594 585.535156 238.820312 582.628906 237.089844 C 566.875 227.691406 560.335938 226.589844 553.785156 221.996094 C 547.230469 217.40625 540.722656 213.359375 535.410156 198.953125 C 532.722656 191.664062 534.726562 181.582031 540.171875 176.851562 Z M 579.015625 220.277344 " fill-opacity="1" fill-rule="nonzero"/></g></g></g><g transform="matrix(1, 0, 0, 1, 361, 9)"><g clip-path="url(#8e3063a3f6)"><g fill="#ffffff" fill-opacity="1"><g transform="translate(1.691987, 85.176274)"><g><path d="M 30.609375 -22.59375 C 30.753906 -22.300781 30.878906 -22.007812 30.984375 -21.71875 C 31.097656 -21.425781 31.117188 -21.097656 31.046875 -20.734375 C 30.972656 -20.222656 30.9375 -19.710938 30.9375 -19.203125 C 30.9375 -18.691406 30.898438 -18.175781 30.828125 -17.65625 C 30.753906 -17.289062 30.695312 -16.925781 30.65625 -16.5625 C 30.625 -16.195312 30.609375 -15.832031 30.609375 -15.46875 C 30.535156 -14.882812 30.460938 -14.28125 30.390625 -13.65625 C 30.316406 -13.03125 30.242188 -12.425781 30.171875 -11.84375 C 30.097656 -11.550781 30.039062 -11.257812 30 -10.96875 C 29.96875 -10.675781 29.914062 -10.382812 29.84375 -10.09375 C 29.769531 -9.726562 29.675781 -9.34375 29.5625 -8.9375 C 29.457031 -8.539062 29.332031 -8.15625 29.1875 -7.78125 C 28.738281 -6.976562 28.1875 -6.613281 27.53125 -6.6875 C 27.382812 -6.03125 26.875 -5.445312 26 -4.9375 C 25.707031 -4.71875 25.378906 -4.476562 25.015625 -4.21875 C 24.648438 -3.96875 24.285156 -3.769531 23.921875 -3.625 C 22.234375 -2.8125 20.515625 -2.367188 18.765625 -2.296875 C 18.691406 -2.296875 18.632812 -2.296875 18.59375 -2.296875 C 18.5625 -2.296875 18.507812 -2.296875 18.4375 -2.296875 C 17.914062 -2.078125 17.414062 -2.003906 16.9375 -2.078125 C 16.46875 -2.148438 15.976562 -2.1875 15.46875 -2.1875 C 13.632812 -2.332031 11.953125 -2.703125 10.421875 -3.296875 C 10.347656 -3.367188 10.203125 -3.40625 9.984375 -3.40625 C 9.910156 -2.96875 9.65625 -2.507812 9.21875 -2.03125 C 8.78125 -1.550781 8.378906 -1.3125 8.015625 -1.3125 C 6.691406 -1.3125 5.921875 -1.789062 5.703125 -2.75 C 5.773438 -2.75 5.882812 -2.785156 6.03125 -2.859375 C 5.957031 -3.078125 5.898438 -3.296875 5.859375 -3.515625 C 5.828125 -3.734375 5.773438 -3.953125 5.703125 -4.171875 C 5.703125 -4.171875 5.679688 -4.171875 5.640625 -4.171875 C 5.609375 -4.171875 5.59375 -4.171875 5.59375 -4.171875 C 5.664062 -4.171875 5.703125 -4.1875 5.703125 -4.21875 C 5.703125 -4.257812 5.738281 -4.28125 5.8125 -4.28125 C 5.738281 -4.5 5.679688 -4.695312 5.640625 -4.875 C 5.609375 -5.0625 5.59375 -5.265625 5.59375 -5.484375 C 5.375 -6.359375 5.265625 -7.238281 5.265625 -8.125 C 5.191406 -9.144531 5.117188 -10.179688 5.046875 -11.234375 C 4.972656 -12.296875 4.898438 -13.34375 4.828125 -14.375 C 4.753906 -15.757812 4.660156 -17.144531 4.546875 -18.53125 C 4.441406 -19.925781 4.316406 -21.316406 4.171875 -22.703125 C 4.171875 -22.921875 4.1875 -23.125 4.21875 -23.3125 C 4.257812 -23.5 4.28125 -23.703125 4.28125 -23.921875 C 4.28125 -23.921875 4.425781 -23.992188 4.71875 -24.140625 C 4.570312 -24.140625 4.425781 -24.210938 4.28125 -24.359375 C 4.351562 -25.523438 4.332031 -26.675781 4.21875 -27.8125 C 4.113281 -28.945312 3.988281 -30.097656 3.84375 -31.265625 C 3.769531 -32.140625 3.734375 -33.035156 3.734375 -33.953125 C 3.734375 -34.867188 3.734375 -35.800781 3.734375 -36.75 C 3.660156 -37.40625 3.625 -38.046875 3.625 -38.671875 C 3.625 -39.296875 3.625 -39.9375 3.625 -40.59375 C 3.625 -40.957031 3.660156 -41.175781 3.734375 -41.25 C 3.660156 -41.613281 3.601562 -41.90625 3.5625 -42.125 C 3.53125 -42.34375 3.515625 -42.597656 3.515625 -42.890625 C 3.441406 -44.285156 3.40625 -45.675781 3.40625 -47.0625 C 3.40625 -48.445312 3.40625 -49.835938 3.40625 -51.234375 C 3.40625 -52.253906 3.382812 -53.273438 3.34375 -54.296875 C 3.3125 -55.328125 3.296875 -56.316406 3.296875 -57.265625 C 3.367188 -58.285156 3.40625 -59.304688 3.40625 -60.328125 C 3.40625 -61.359375 3.441406 -62.382812 3.515625 -63.40625 C 3.585938 -65.675781 3.660156 -67.925781 3.734375 -70.15625 C 3.804688 -72.382812 3.878906 -74.632812 3.953125 -76.90625 C 4.023438 -77.707031 4.078125 -78.472656 4.109375 -79.203125 C 4.148438 -79.929688 4.207031 -80.664062 4.28125 -81.40625 C 4.28125 -81.550781 4.351562 -81.84375 4.5 -82.28125 C 4.644531 -82.351562 4.769531 -82.40625 4.875 -82.4375 C 4.988281 -82.476562 5.082031 -82.535156 5.15625 -82.609375 C 5.519531 -82.316406 5.828125 -81.988281 6.078125 -81.625 C 6.335938 -81.257812 6.46875 -80.816406 6.46875 -80.296875 C 6.46875 -80.148438 6.503906 -79.96875 6.578125 -79.75 C 6.648438 -79.53125 6.722656 -79.347656 6.796875 -79.203125 C 6.941406 -78.691406 7.085938 -78.195312 7.234375 -77.71875 C 7.378906 -77.25 7.523438 -76.757812 7.671875 -76.25 C 7.828125 -76.320312 7.976562 -76.375 8.125 -76.40625 C 8.269531 -76.445312 8.414062 -76.503906 8.5625 -76.578125 C 10.019531 -77.234375 11.554688 -77.5625 13.171875 -77.5625 C 13.753906 -77.632812 14.351562 -77.578125 14.96875 -77.390625 C 15.59375 -77.210938 16.160156 -76.976562 16.671875 -76.6875 C 16.816406 -76.613281 16.976562 -76.539062 17.15625 -76.46875 C 17.34375 -76.394531 17.546875 -76.285156 17.765625 -76.140625 C 18.796875 -75.835938 19.675781 -75.359375 20.40625 -74.703125 C 21.132812 -74.046875 21.789062 -73.316406 22.375 -72.515625 C 22.664062 -72.078125 22.976562 -71.65625 23.3125 -71.25 C 23.644531 -70.851562 23.847656 -70.394531 23.921875 -69.875 C 24.066406 -69.363281 24.285156 -68.867188 24.578125 -68.390625 C 24.867188 -67.921875 25.050781 -67.394531 25.125 -66.8125 C 25.195312 -66.519531 25.195312 -66.207031 25.125 -65.875 C 25.050781 -65.550781 24.976562 -65.203125 24.90625 -64.828125 C 24.832031 -64.097656 24.738281 -63.347656 24.625 -62.578125 C 24.519531 -61.816406 24.394531 -61.035156 24.25 -60.234375 C 24.175781 -59.710938 24.066406 -59.160156 23.921875 -58.578125 C 23.773438 -57.992188 23.625 -57.445312 23.46875 -56.9375 C 23.175781 -56.132812 22.898438 -55.328125 22.640625 -54.515625 C 22.390625 -53.710938 22.082031 -52.910156 21.71875 -52.109375 C 21.644531 -51.890625 21.550781 -51.671875 21.4375 -51.453125 C 21.332031 -51.234375 21.242188 -51.015625 21.171875 -50.796875 C 21.097656 -50.578125 21.023438 -50.359375 20.953125 -50.140625 C 20.878906 -49.921875 20.804688 -49.695312 20.734375 -49.46875 C 20.660156 -49.394531 20.585938 -49.335938 20.515625 -49.296875 C 20.441406 -49.265625 20.367188 -49.210938 20.296875 -49.140625 C 20.078125 -48.703125 19.835938 -48.242188 19.578125 -47.765625 C 19.328125 -47.296875 19.128906 -46.84375 18.984375 -46.40625 C 18.765625 -45.820312 18.46875 -45.289062 18.09375 -44.8125 C 17.726562 -44.332031 17.363281 -43.875 17 -43.4375 C 16.851562 -43.21875 16.707031 -42.976562 16.5625 -42.71875 C 16.414062 -42.46875 16.269531 -42.234375 16.125 -42.015625 C 15.832031 -41.722656 15.539062 -41.46875 15.25 -41.25 C 15.25 -41.175781 15.265625 -41.082031 15.296875 -40.96875 C 15.335938 -40.863281 15.359375 -40.738281 15.359375 -40.59375 C 15.796875 -40.519531 16.210938 -40.425781 16.609375 -40.3125 C 17.015625 -40.207031 17.363281 -40.117188 17.65625 -40.046875 C 18.25 -39.679688 18.765625 -39.347656 19.203125 -39.046875 C 19.640625 -38.753906 20.039062 -38.425781 20.40625 -38.0625 C 20.914062 -37.625 21.425781 -37.222656 21.9375 -36.859375 C 22.445312 -36.492188 22.882812 -36.019531 23.25 -35.4375 C 23.394531 -35.21875 23.5625 -35.035156 23.75 -34.890625 C 23.9375 -34.742188 24.101562 -34.597656 24.25 -34.453125 C 24.613281 -34.160156 24.941406 -33.8125 25.234375 -33.40625 C 25.523438 -33 25.816406 -32.578125 26.109375 -32.140625 C 26.546875 -31.410156 27 -30.71875 27.46875 -30.0625 C 27.945312 -29.40625 28.410156 -28.707031 28.859375 -27.96875 C 29.148438 -27.53125 29.382812 -27.109375 29.5625 -26.703125 C 29.75 -26.304688 29.84375 -25.816406 29.84375 -25.234375 C 29.769531 -24.796875 29.84375 -24.351562 30.0625 -23.90625 C 30.28125 -23.46875 30.460938 -23.03125 30.609375 -22.59375 Z M 9.21875 -63.296875 C 9.144531 -62.492188 9.050781 -61.671875 8.9375 -60.828125 C 8.832031 -59.984375 8.816406 -59.125 8.890625 -58.25 C 8.890625 -58.175781 8.90625 -58.046875 8.9375 -57.859375 C 8.976562 -57.679688 9 -57.519531 9 -57.375 C 9 -56.863281 8.976562 -56.332031 8.9375 -55.78125 C 8.90625 -55.238281 8.890625 -54.671875 8.890625 -54.078125 C 8.960938 -53.128906 9.015625 -52.160156 9.046875 -51.171875 C 9.085938 -50.191406 9.144531 -49.1875 9.21875 -48.15625 C 9.289062 -47.863281 9.34375 -47.550781 9.375 -47.21875 C 9.414062 -46.894531 9.582031 -46.550781 9.875 -46.1875 C 10.96875 -47.71875 11.953125 -49.304688 12.828125 -50.953125 C 13.710938 -52.597656 14.628906 -54.226562 15.578125 -55.84375 C 15.648438 -55.988281 15.6875 -56.113281 15.6875 -56.21875 C 15.6875 -56.332031 15.722656 -56.425781 15.796875 -56.5 C 16.160156 -57.300781 16.488281 -58.066406 16.78125 -58.796875 C 17.070312 -59.523438 17.363281 -60.257812 17.65625 -61 C 18.019531 -62.019531 18.3125 -63.0625 18.53125 -64.125 C 18.757812 -65.1875 18.765625 -66.300781 18.546875 -67.46875 C 18.398438 -68.414062 18.140625 -69.3125 17.765625 -70.15625 C 17.398438 -71 16.707031 -71.640625 15.6875 -72.078125 L 11.40625 -72.625 L 10.75 -72.625 C 10.601562 -72.550781 10.421875 -72.515625 10.203125 -72.515625 C 9.984375 -72.515625 9.800781 -72.515625 9.65625 -72.515625 C 9.65625 -71.785156 9.632812 -71.109375 9.59375 -70.484375 C 9.5625 -69.859375 9.546875 -69.21875 9.546875 -68.5625 C 9.546875 -68.269531 9.546875 -68.125 9.546875 -68.125 C 9.472656 -67.320312 9.414062 -66.515625 9.375 -65.703125 C 9.34375 -64.898438 9.289062 -64.097656 9.21875 -63.296875 Z M 13.390625 -41.359375 C 13.390625 -41.503906 13.367188 -41.628906 13.328125 -41.734375 C 13.296875 -41.847656 13.28125 -41.976562 13.28125 -42.125 C 13.28125 -42.125 13.257812 -42.101562 13.21875 -42.0625 C 13.1875 -42.03125 13.128906 -42.015625 13.046875 -42.015625 C 13.046875 -41.941406 13.046875 -41.847656 13.046875 -41.734375 C 13.046875 -41.628906 13.046875 -41.503906 13.046875 -41.359375 C 13.128906 -41.359375 13.1875 -41.359375 13.21875 -41.359375 C 13.257812 -41.359375 13.316406 -41.359375 13.390625 -41.359375 Z M 11.84375 -43.65625 C 11.84375 -43.65625 11.820312 -43.65625 11.78125 -43.65625 C 11.75 -43.65625 11.734375 -43.65625 11.734375 -43.65625 C 11.585938 -43.4375 11.441406 -43.109375 11.296875 -42.671875 C 11.222656 -42.671875 11.164062 -42.648438 11.125 -42.609375 C 11.09375 -42.578125 11.078125 -42.5625 11.078125 -42.5625 C 11.003906 -42.707031 10.945312 -42.832031 10.90625 -42.9375 C 10.875 -43.050781 10.820312 -43.144531 10.75 -43.21875 C 10.75 -43.21875 10.726562 -43.195312 10.6875 -43.15625 C 10.65625 -43.125 10.601562 -43.109375 10.53125 -43.109375 C 10.601562 -42.960938 10.640625 -42.707031 10.640625 -42.34375 C 10.785156 -42.34375 10.875 -42.359375 10.90625 -42.390625 C 10.945312 -42.429688 11.003906 -42.453125 11.078125 -42.453125 C 11.296875 -42.234375 11.441406 -42.050781 11.515625 -41.90625 C 11.585938 -41.976562 11.660156 -42.015625 11.734375 -42.015625 C 11.734375 -42.304688 11.75 -42.578125 11.78125 -42.828125 C 11.820312 -43.085938 11.84375 -43.363281 11.84375 -43.65625 Z M 10.3125 -43.65625 C 10.3125 -43.875 10.3125 -44.054688 10.3125 -44.203125 C 10.3125 -44.359375 10.3125 -44.546875 10.3125 -44.765625 C 10.238281 -44.617188 10.179688 -44.503906 10.140625 -44.421875 C 10.109375 -44.347656 10.054688 -44.238281 9.984375 -44.09375 C 10.054688 -44.019531 10.109375 -43.960938 10.140625 -43.921875 C 10.179688 -43.890625 10.238281 -43.800781 10.3125 -43.65625 Z M 6.46875 -15.90625 C 6.46875 -16.269531 6.46875 -16.632812 6.46875 -17 C 6.46875 -17.363281 6.46875 -17.691406 6.46875 -17.984375 C 6.394531 -17.984375 6.300781 -17.960938 6.1875 -17.921875 C 6.082031 -17.890625 5.957031 -17.875 5.8125 -17.875 C 5.8125 -17.582031 5.828125 -17.269531 5.859375 -16.9375 C 5.898438 -16.613281 5.957031 -16.304688 6.03125 -16.015625 C 5.957031 -15.796875 5.921875 -15.59375 5.921875 -15.40625 C 5.921875 -15.226562 5.882812 -15.03125 5.8125 -14.8125 C 5.882812 -14.8125 5.921875 -14.8125 5.921875 -14.8125 C 5.921875 -14.8125 5.957031 -14.8125 6.03125 -14.8125 C 6.101562 -14.882812 6.175781 -14.9375 6.25 -14.96875 C 6.320312 -15.007812 6.359375 -15.03125 6.359375 -15.03125 C 6.503906 -15.46875 6.578125 -15.796875 6.578125 -16.015625 C 6.578125 -16.015625 6.578125 -15.992188 6.578125 -15.953125 C 6.578125 -15.921875 6.539062 -15.90625 6.46875 -15.90625 Z M 6.03125 -18.546875 C 6.175781 -18.984375 6.210938 -19.421875 6.140625 -19.859375 C 6.066406 -20.296875 6.03125 -20.769531 6.03125 -21.28125 C 5.957031 -20.988281 5.847656 -20.769531 5.703125 -20.625 C 5.703125 -20.1875 5.71875 -19.820312 5.75 -19.53125 C 5.789062 -19.238281 5.8125 -18.910156 5.8125 -18.546875 C 5.8125 -18.546875 5.828125 -18.546875 5.859375 -18.546875 C 5.898438 -18.546875 5.957031 -18.546875 6.03125 -18.546875 Z M 6.140625 -28.625 C 6.066406 -28.625 6.03125 -28.644531 6.03125 -28.6875 C 6.03125 -28.726562 5.992188 -28.75 5.921875 -28.75 C 5.992188 -28.59375 6.03125 -28.40625 6.03125 -28.1875 C 6.03125 -27.96875 6.03125 -27.785156 6.03125 -27.640625 C 6.03125 -27.640625 6.046875 -27.640625 6.078125 -27.640625 C 6.117188 -27.640625 6.140625 -27.640625 6.140625 -27.640625 C 6.140625 -27.785156 6.140625 -27.945312 6.140625 -28.125 C 6.140625 -28.3125 6.140625 -28.476562 6.140625 -28.625 Z M 5.921875 -26.984375 C 5.921875 -26.910156 5.921875 -26.816406 5.921875 -26.703125 C 5.921875 -26.597656 5.921875 -26.472656 5.921875 -26.328125 C 5.921875 -26.328125 5.9375 -26.328125 5.96875 -26.328125 C 6.007812 -26.328125 6.03125 -26.328125 6.03125 -26.328125 C 6.03125 -26.472656 6.046875 -26.582031 6.078125 -26.65625 C 6.117188 -26.726562 6.140625 -26.800781 6.140625 -26.875 C 6.066406 -26.945312 6.007812 -26.984375 5.96875 -26.984375 C 5.9375 -26.984375 5.921875 -26.984375 5.921875 -26.984375 Z M 5.921875 -23.359375 C 5.847656 -23.359375 5.789062 -23.335938 5.75 -23.296875 C 5.71875 -23.265625 5.664062 -23.25 5.59375 -23.25 C 5.664062 -22.957031 5.703125 -22.664062 5.703125 -22.375 C 5.703125 -22.082031 5.703125 -21.753906 5.703125 -21.390625 C 5.992188 -21.609375 6.140625 -21.953125 6.140625 -22.421875 C 6.140625 -22.898438 6.066406 -23.210938 5.921875 -23.359375 Z M 5.046875 -26.328125 C 5.046875 -26.328125 5.0625 -26.328125 5.09375 -26.328125 C 5.132812 -26.328125 5.191406 -26.328125 5.265625 -26.328125 C 5.265625 -26.398438 5.265625 -26.488281 5.265625 -26.59375 C 5.265625 -26.707031 5.265625 -26.800781 5.265625 -26.875 C 5.117188 -26.875 5.046875 -26.835938 5.046875 -26.765625 C 5.046875 -26.691406 5.046875 -26.617188 5.046875 -26.546875 C 5.046875 -26.472656 5.046875 -26.398438 5.046875 -26.328125 Z M 4.609375 -28.1875 C 4.753906 -28.113281 4.878906 -28.054688 4.984375 -28.015625 C 5.097656 -27.984375 5.191406 -27.929688 5.265625 -27.859375 C 5.265625 -27.859375 5.28125 -27.859375 5.3125 -27.859375 C 5.351562 -27.859375 5.375 -27.894531 5.375 -27.96875 C 5.226562 -28.113281 5.15625 -28.296875 5.15625 -28.515625 C 4.9375 -28.515625 4.753906 -28.476562 4.609375 -28.40625 C 4.609375 -28.332031 4.609375 -28.296875 4.609375 -28.296875 C 4.609375 -28.296875 4.609375 -28.257812 4.609375 -28.1875 Z M 6.03125 -10.96875 C 5.226562 -10.75 5.082031 -10.3125 5.59375 -9.65625 C 5.738281 -9.726562 5.863281 -9.816406 5.96875 -9.921875 C 6.082031 -10.035156 6.210938 -10.128906 6.359375 -10.203125 C 6.285156 -10.347656 6.226562 -10.492188 6.1875 -10.640625 C 6.15625 -10.785156 6.101562 -10.894531 6.03125 -10.96875 Z M 5.921875 -5.046875 C 5.921875 -5.335938 5.992188 -5.628906 6.140625 -5.921875 C 6.066406 -5.992188 6.007812 -6.03125 5.96875 -6.03125 C 5.9375 -6.03125 5.921875 -6.03125 5.921875 -6.03125 C 5.847656 -5.882812 5.8125 -5.71875 5.8125 -5.53125 C 5.8125 -5.351562 5.773438 -5.191406 5.703125 -5.046875 C 5.773438 -5.046875 5.8125 -5.046875 5.8125 -5.046875 C 5.8125 -5.046875 5.847656 -5.046875 5.921875 -5.046875 Z M 6.796875 -6.359375 C 6.722656 -6.503906 6.664062 -6.628906 6.625 -6.734375 C 6.59375 -6.847656 6.539062 -6.941406 6.46875 -7.015625 C 6.539062 -7.378906 6.613281 -7.765625 6.6875 -8.171875 C 6.757812 -8.578125 6.832031 -8.960938 6.90625 -9.328125 C 6.832031 -9.398438 6.796875 -9.4375 6.796875 -9.4375 C 6.722656 -9.363281 6.628906 -9.269531 6.515625 -9.15625 C 6.410156 -9.050781 6.285156 -8.925781 6.140625 -8.78125 C 6.140625 -8.78125 6.175781 -8.78125 6.25 -8.78125 C 6.175781 -8.414062 6.117188 -8.046875 6.078125 -7.671875 C 6.046875 -7.304688 5.992188 -6.941406 5.921875 -6.578125 C 6.066406 -6.503906 6.210938 -6.46875 6.359375 -6.46875 C 6.503906 -6.46875 6.648438 -6.429688 6.796875 -6.359375 Z M 6.03125 -10.96875 C 6.394531 -10.96875 6.59375 -11.113281 6.625 -11.40625 C 6.664062 -11.695312 6.796875 -11.878906 7.015625 -11.953125 C 6.941406 -12.023438 6.847656 -12.0625 6.734375 -12.0625 C 6.628906 -12.0625 6.539062 -12.097656 6.46875 -12.171875 C 6.539062 -12.316406 6.613281 -12.460938 6.6875 -12.609375 C 6.757812 -12.753906 6.832031 -12.863281 6.90625 -12.9375 C 6.832031 -13.238281 6.738281 -13.5 6.625 -13.71875 C 6.519531 -13.9375 6.429688 -14.191406 6.359375 -14.484375 C 6.285156 -14.484375 6.25 -14.484375 6.25 -14.484375 C 6.25 -14.484375 6.210938 -14.484375 6.140625 -14.484375 C 5.921875 -13.972656 5.863281 -13.40625 5.96875 -12.78125 C 6.082031 -12.15625 6.101562 -11.550781 6.03125 -10.96875 Z M 7.453125 -7.90625 C 7.597656 -8.050781 7.742188 -8.140625 7.890625 -8.171875 C 8.046875 -8.210938 8.160156 -8.269531 8.234375 -8.34375 C 8.234375 -8.414062 8.195312 -8.488281 8.125 -8.5625 C 7.75 -8.5625 7.453125 -8.523438 7.234375 -8.453125 C 7.304688 -8.378906 7.34375 -8.304688 7.34375 -8.234375 C 7.34375 -8.160156 7.378906 -8.050781 7.453125 -7.90625 Z M 8.671875 -3.734375 C 8.742188 -3.878906 8.78125 -3.988281 8.78125 -4.0625 C 8.34375 -4.207031 8.125 -4.171875 8.125 -3.953125 C 8.195312 -3.953125 8.378906 -3.878906 8.671875 -3.734375 Z M 9.984375 -3.40625 C 9.984375 -3.40625 10.128906 -3.625 10.421875 -4.0625 C 10.203125 -4.0625 10 -4.0625 9.8125 -4.0625 C 9.632812 -4.0625 9.472656 -4.0625 9.328125 -4.0625 C 9.253906 -4.351562 9.21875 -4.609375 9.21875 -4.828125 C 9.21875 -5.046875 9.179688 -5.265625 9.109375 -5.484375 C 8.816406 -5.628906 8.5625 -5.773438 8.34375 -5.921875 C 8.488281 -5.703125 8.613281 -5.484375 8.71875 -5.265625 C 8.832031 -5.046875 8.925781 -4.863281 9 -4.71875 C 8.851562 -4.71875 8.707031 -4.753906 8.5625 -4.828125 C 8.632812 -4.609375 8.742188 -4.351562 8.890625 -4.0625 C 9.035156 -3.988281 9.179688 -3.953125 9.328125 -3.953125 C 9.472656 -3.953125 9.617188 -3.878906 9.765625 -3.734375 C 9.835938 -3.734375 9.875 -3.695312 9.875 -3.625 C 9.875 -3.550781 9.910156 -3.476562 9.984375 -3.40625 Z M 10.3125 -4.5 C 10.382812 -4.71875 10.492188 -4.972656 10.640625 -5.265625 C 10.566406 -5.335938 10.53125 -5.410156 10.53125 -5.484375 C 10.457031 -5.410156 10.347656 -5.335938 10.203125 -5.265625 C 10.054688 -5.191406 9.910156 -5.117188 9.765625 -5.046875 C 10.054688 -4.898438 10.238281 -4.71875 10.3125 -4.5 Z M 21.0625 -10.3125 C 21.644531 -11.332031 22.117188 -12.425781 22.484375 -13.59375 C 22.847656 -14.769531 22.957031 -15.976562 22.8125 -17.21875 C 22.738281 -18.03125 22.679688 -18.835938 22.640625 -19.640625 C 22.609375 -20.441406 22.519531 -21.242188 22.375 -22.046875 C 22.226562 -23.078125 22.023438 -24.066406 21.765625 -25.015625 C 21.515625 -25.960938 21.0625 -26.875 20.40625 -27.75 C 19.96875 -28.414062 19.566406 -29.09375 19.203125 -29.78125 C 18.835938 -30.476562 18.46875 -31.15625 18.09375 -31.8125 C 17.875 -32.03125 17.765625 -32.25 17.765625 -32.46875 C 17.691406 -32.976562 17.523438 -33.378906 17.265625 -33.671875 C 17.015625 -33.972656 16.742188 -34.269531 16.453125 -34.5625 C 15.867188 -35.144531 15.210938 -35.632812 14.484375 -36.03125 C 13.753906 -36.4375 13.019531 -36.785156 12.28125 -37.078125 C 11.988281 -37.222656 11.675781 -37.367188 11.34375 -37.515625 C 11.019531 -37.660156 10.675781 -37.804688 10.3125 -37.953125 C 10.164062 -37.515625 10.019531 -37.113281 9.875 -36.75 C 9.726562 -36.382812 9.582031 -36.019531 9.4375 -35.65625 C 9.582031 -35.800781 9.707031 -35.890625 9.8125 -35.921875 C 9.925781 -35.960938 10.019531 -36.019531 10.09375 -36.09375 C 10.164062 -35.582031 10.203125 -35.109375 10.203125 -34.671875 C 10.203125 -34.234375 10.203125 -33.789062 10.203125 -33.34375 C 10.203125 -32.613281 10.164062 -31.882812 10.09375 -31.15625 C 10.019531 -30.425781 10.019531 -29.660156 10.09375 -28.859375 C 10.09375 -28.046875 10.109375 -27.238281 10.140625 -26.4375 C 10.179688 -25.632812 10.238281 -24.832031 10.3125 -24.03125 C 10.382812 -23.070312 10.4375 -22.15625 10.46875 -21.28125 C 10.507812 -20.40625 10.566406 -19.492188 10.640625 -18.546875 C 10.640625 -18.472656 10.617188 -18.414062 10.578125 -18.375 C 10.546875 -18.34375 10.53125 -18.25 10.53125 -18.09375 C 10.53125 -17.945312 10.53125 -17.765625 10.53125 -17.546875 C 10.53125 -17.328125 10.53125 -17.109375 10.53125 -16.890625 C 10.601562 -16.523438 10.65625 -16.125 10.6875 -15.6875 C 10.726562 -15.25 10.785156 -14.8125 10.859375 -14.375 C 10.859375 -13.644531 10.875 -12.929688 10.90625 -12.234375 C 10.945312 -11.535156 10.929688 -10.820312 10.859375 -10.09375 C 10.785156 -9.363281 10.800781 -8.648438 10.90625 -7.953125 C 11.019531 -7.253906 11.113281 -6.539062 11.1875 -5.8125 C 11.1875 -5.738281 11.257812 -5.554688 11.40625 -5.265625 C 11.769531 -5.335938 12.113281 -5.410156 12.4375 -5.484375 C 12.769531 -5.554688 13.085938 -5.628906 13.390625 -5.703125 C 14.410156 -5.847656 15.429688 -6.117188 16.453125 -6.515625 C 17.472656 -6.921875 18.460938 -7.304688 19.421875 -7.671875 C 19.566406 -7.828125 19.691406 -7.957031 19.796875 -8.0625 C 19.910156 -8.175781 20.003906 -8.304688 20.078125 -8.453125 C 20.296875 -8.742188 20.476562 -9.050781 20.625 -9.375 C 20.769531 -9.707031 20.914062 -10.019531 21.0625 -10.3125 Z M 23.359375 -21.5 C 23.429688 -21.425781 23.488281 -21.351562 23.53125 -21.28125 C 23.570312 -21.207031 23.628906 -21.097656 23.703125 -20.953125 C 23.703125 -20.953125 23.71875 -20.953125 23.75 -20.953125 C 23.789062 -20.953125 23.847656 -20.988281 23.921875 -21.0625 C 23.847656 -21.207031 23.789062 -21.332031 23.75 -21.4375 C 23.71875 -21.550781 23.664062 -21.644531 23.59375 -21.71875 C 23.507812 -21.644531 23.46875 -21.609375 23.46875 -21.609375 C 23.46875 -21.609375 23.429688 -21.570312 23.359375 -21.5 Z M 24.46875 -13.9375 C 24.539062 -14.007812 24.578125 -14.046875 24.578125 -14.046875 C 24.578125 -14.046875 24.613281 -14.082031 24.6875 -14.15625 C 24.539062 -14.445312 24.46875 -14.703125 24.46875 -14.921875 C 24.320312 -14.773438 24.191406 -14.644531 24.078125 -14.53125 C 23.972656 -14.425781 23.847656 -14.300781 23.703125 -14.15625 C 23.847656 -14.082031 23.992188 -14.046875 24.140625 -14.046875 C 24.285156 -14.046875 24.394531 -14.007812 24.46875 -13.9375 Z M 24.46875 -13.9375 "/></g></g></g><g fill="#ffffff" fill-opacity="1"><g transform="translate(35.03947, 85.176274)"><g><path d="M 6.6875 -49.140625 C 6.757812 -49.140625 7.015625 -49.066406 7.453125 -48.921875 C 7.453125 -48.992188 7.453125 -49.046875 7.453125 -49.078125 C 7.453125 -49.117188 7.453125 -49.140625 7.453125 -49.140625 C 7.378906 -49.210938 7.269531 -49.285156 7.125 -49.359375 C 6.976562 -49.429688 6.832031 -49.503906 6.6875 -49.578125 C 6.976562 -49.578125 7.195312 -49.617188 7.34375 -49.703125 C 7.488281 -49.847656 7.597656 -49.992188 7.671875 -50.140625 C 7.671875 -50.140625 7.453125 -50.285156 7.015625 -50.578125 C 7.160156 -50.285156 7.234375 -50.101562 7.234375 -50.03125 C 7.160156 -50.03125 7.085938 -50.03125 7.015625 -50.03125 C 6.941406 -50.03125 6.867188 -50.03125 6.796875 -50.03125 C 7.378906 -54.34375 8.128906 -58.582031 9.046875 -62.75 C 9.960938 -66.914062 10.894531 -71.117188 11.84375 -75.359375 C 12.28125 -75.359375 12.570312 -75.65625 12.71875 -76.25 C 12.71875 -76.90625 13.050781 -77.160156 13.71875 -77.015625 C 14.15625 -77.015625 14.484375 -76.757812 14.703125 -76.25 C 14.847656 -76.03125 14.972656 -75.789062 15.078125 -75.53125 C 15.191406 -75.269531 15.320312 -74.992188 15.46875 -74.703125 C 15.613281 -74.484375 15.796875 -74.265625 16.015625 -74.046875 C 16.234375 -73.828125 16.453125 -73.570312 16.671875 -73.28125 C 16.742188 -73.351562 16.78125 -73.390625 16.78125 -73.390625 C 16.78125 -73.390625 16.816406 -73.425781 16.890625 -73.5 C 17.109375 -72.988281 17.363281 -72.441406 17.65625 -71.859375 C 17.945312 -71.273438 18.171875 -70.6875 18.328125 -70.09375 C 18.546875 -69.582031 18.691406 -69.070312 18.765625 -68.5625 C 18.835938 -68.050781 18.945312 -67.539062 19.09375 -67.03125 C 19.3125 -66.300781 19.53125 -65.550781 19.75 -64.78125 C 19.96875 -64.007812 20.1875 -63.257812 20.40625 -62.53125 C 20.476562 -62.382812 20.53125 -62.238281 20.5625 -62.09375 C 20.601562 -61.945312 20.660156 -61.800781 20.734375 -61.65625 C 20.878906 -61 21.023438 -60.320312 21.171875 -59.625 C 21.316406 -58.925781 21.460938 -58.25 21.609375 -57.59375 C 21.753906 -57.007812 21.914062 -56.441406 22.09375 -55.890625 C 22.28125 -55.347656 22.445312 -54.78125 22.59375 -54.1875 C 22.738281 -53.457031 22.898438 -52.765625 23.078125 -52.109375 C 23.265625 -51.453125 23.4375 -50.757812 23.59375 -50.03125 C 23.738281 -49.507812 23.863281 -49.007812 23.96875 -48.53125 C 24.082031 -48.0625 24.175781 -47.570312 24.25 -47.0625 C 24.394531 -46.625 24.503906 -46.203125 24.578125 -45.796875 C 24.648438 -45.398438 24.722656 -44.984375 24.796875 -44.546875 C 24.941406 -44.097656 25.050781 -43.65625 25.125 -43.21875 C 25.195312 -42.78125 25.269531 -42.34375 25.34375 -41.90625 C 25.488281 -41.46875 25.597656 -41.03125 25.671875 -40.59375 C 25.742188 -40.15625 25.816406 -39.71875 25.890625 -39.28125 C 26.035156 -38.6875 26.160156 -38.078125 26.265625 -37.453125 C 26.378906 -36.835938 26.472656 -36.238281 26.546875 -35.65625 C 26.617188 -35.070312 26.671875 -34.46875 26.703125 -33.84375 C 26.742188 -33.21875 26.800781 -32.613281 26.875 -32.03125 C 27.019531 -31.445312 27.164062 -30.84375 27.3125 -30.21875 C 27.457031 -29.601562 27.566406 -29 27.640625 -28.40625 C 27.785156 -27.820312 27.929688 -27.21875 28.078125 -26.59375 C 28.222656 -25.976562 28.332031 -25.378906 28.40625 -24.796875 C 28.476562 -24.578125 28.550781 -24.375 28.625 -24.1875 C 28.707031 -24.007812 28.785156 -23.8125 28.859375 -23.59375 C 28.929688 -23.070312 28.984375 -22.570312 29.015625 -22.09375 C 29.054688 -21.625 29.113281 -21.132812 29.1875 -20.625 C 29.1875 -20.550781 29.222656 -20.441406 29.296875 -20.296875 C 29.367188 -20.148438 29.441406 -20.003906 29.515625 -19.859375 C 29.660156 -19.347656 29.785156 -18.832031 29.890625 -18.3125 C 30.003906 -17.800781 30.097656 -17.289062 30.171875 -16.78125 C 30.242188 -16.34375 30.296875 -15.90625 30.328125 -15.46875 C 30.367188 -15.03125 30.425781 -14.59375 30.5 -14.15625 C 30.570312 -13.863281 30.625 -13.550781 30.65625 -13.21875 C 30.695312 -12.882812 30.753906 -12.570312 30.828125 -12.28125 C 30.898438 -11.550781 30.953125 -10.800781 30.984375 -10.03125 C 31.023438 -9.269531 31.082031 -8.484375 31.15625 -7.671875 C 31.300781 -6.867188 31.375 -6.066406 31.375 -5.265625 C 31.375 -4.460938 31.335938 -3.660156 31.265625 -2.859375 C 31.265625 -2.628906 31.15625 -2.40625 30.9375 -2.1875 C 30.9375 -1.96875 30.9375 -1.765625 30.9375 -1.578125 C 30.9375 -1.398438 30.9375 -1.203125 30.9375 -0.984375 C 30.9375 -0.546875 30.609375 -0.328125 29.953125 -0.328125 C 29.222656 -0.398438 28.65625 -0.65625 28.25 -1.09375 C 27.84375 -1.53125 27.492188 -2.046875 27.203125 -2.640625 C 26.984375 -3.148438 26.742188 -3.640625 26.484375 -4.109375 C 26.234375 -4.585938 26.035156 -5.082031 25.890625 -5.59375 C 25.597656 -6.394531 25.320312 -7.179688 25.0625 -7.953125 C 24.8125 -8.722656 24.578125 -9.507812 24.359375 -10.3125 C 24.140625 -11.113281 23.9375 -11.898438 23.75 -12.671875 C 23.5625 -13.441406 23.394531 -14.226562 23.25 -15.03125 C 22.957031 -16.414062 22.679688 -17.820312 22.421875 -19.25 C 22.171875 -20.675781 21.898438 -22.082031 21.609375 -23.46875 C 21.535156 -23.84375 21.476562 -24.226562 21.4375 -24.625 C 21.40625 -25.03125 21.316406 -25.414062 21.171875 -25.78125 C 21.097656 -25.925781 20.914062 -26.21875 20.625 -26.65625 C 20.625 -26.65625 20.640625 -26.65625 20.671875 -26.65625 C 20.710938 -26.65625 20.769531 -26.691406 20.84375 -26.765625 C 20.769531 -26.835938 20.734375 -26.890625 20.734375 -26.921875 C 20.734375 -26.960938 20.695312 -27.019531 20.625 -27.09375 C 20.550781 -27.019531 20.40625 -26.984375 20.1875 -26.984375 C 20.113281 -26.835938 20.078125 -26.617188 20.078125 -26.328125 C 19.785156 -26.253906 19.507812 -26.179688 19.25 -26.109375 C 19 -26.035156 18.726562 -25.960938 18.4375 -25.890625 C 18.28125 -25.890625 18.054688 -26.035156 17.765625 -26.328125 C 17.765625 -26.253906 17.835938 -26.070312 17.984375 -25.78125 C 16.453125 -25.707031 15.03125 -25.597656 13.71875 -25.453125 C 13.351562 -25.085938 12.945312 -24.921875 12.5 -24.953125 C 12.0625 -24.992188 11.660156 -25.050781 11.296875 -25.125 C 10.859375 -24.976562 10.582031 -24.722656 10.46875 -24.359375 C 10.363281 -23.992188 10.238281 -23.625 10.09375 -23.25 C 9.945312 -22.59375 9.890625 -21.914062 9.921875 -21.21875 C 9.960938 -20.53125 9.910156 -19.859375 9.765625 -19.203125 C 9.691406 -18.691406 9.582031 -18.160156 9.4375 -17.609375 C 9.289062 -17.054688 9.144531 -16.488281 9 -15.90625 C 8.925781 -15.832031 8.890625 -15.722656 8.890625 -15.578125 C 8.890625 -15.429688 8.90625 -15.285156 8.9375 -15.140625 C 8.976562 -14.992188 9 -14.847656 9 -14.703125 C 8.925781 -14.046875 8.851562 -13.367188 8.78125 -12.671875 C 8.707031 -11.972656 8.597656 -11.296875 8.453125 -10.640625 C 8.453125 -10.347656 8.429688 -10.035156 8.390625 -9.703125 C 8.359375 -9.378906 8.304688 -9.070312 8.234375 -8.78125 C 8.234375 -8.269531 8.25 -7.789062 8.28125 -7.34375 C 8.320312 -6.90625 8.304688 -6.46875 8.234375 -6.03125 C 8.160156 -5.519531 8.101562 -4.988281 8.0625 -4.4375 C 8.03125 -3.894531 7.9375 -3.332031 7.78125 -2.75 C 7.78125 -2.675781 7.757812 -2.546875 7.71875 -2.359375 C 7.6875 -2.171875 7.671875 -2.003906 7.671875 -1.859375 C 7.671875 -1.859375 7.671875 -1.820312 7.671875 -1.75 C 7.597656 -1.238281 7.378906 -0.890625 7.015625 -0.703125 C 6.648438 -0.523438 6.25 -0.363281 5.8125 -0.21875 C 5.738281 -0.21875 5.628906 -0.253906 5.484375 -0.328125 C 5.335938 -0.398438 5.191406 -0.472656 5.046875 -0.546875 C 4.898438 -0.691406 4.734375 -0.835938 4.546875 -0.984375 C 4.367188 -1.128906 4.132812 -1.164062 3.84375 -1.09375 C 3.476562 -1.3125 3.109375 -1.507812 2.734375 -1.6875 C 2.367188 -1.875 2.039062 -2.113281 1.75 -2.40625 C 1.601562 -2.5625 1.507812 -2.800781 1.46875 -3.125 C 1.4375 -3.457031 1.421875 -3.769531 1.421875 -4.0625 C 1.347656 -4.425781 1.289062 -4.753906 1.25 -5.046875 C 1.21875 -5.335938 1.203125 -5.628906 1.203125 -5.921875 C 1.128906 -6.796875 1.128906 -7.640625 1.203125 -8.453125 C 1.273438 -9.472656 1.363281 -10.515625 1.46875 -11.578125 C 1.582031 -12.640625 1.675781 -13.679688 1.75 -14.703125 C 1.820312 -15.210938 1.910156 -15.722656 2.015625 -16.234375 C 2.128906 -16.742188 2.222656 -17.253906 2.296875 -17.765625 C 2.441406 -18.503906 2.570312 -19.21875 2.6875 -19.90625 C 2.800781 -20.601562 2.894531 -21.316406 2.96875 -22.046875 C 3.039062 -22.410156 3.09375 -22.757812 3.125 -23.09375 C 3.164062 -23.425781 3.222656 -23.773438 3.296875 -24.140625 C 3.441406 -24.867188 3.585938 -25.578125 3.734375 -26.265625 C 3.878906 -26.960938 3.988281 -27.675781 4.0625 -28.40625 C 4.207031 -29.21875 4.316406 -30.039062 4.390625 -30.875 C 4.460938 -31.71875 4.535156 -32.539062 4.609375 -33.34375 C 4.753906 -34.007812 4.828125 -34.671875 4.828125 -35.328125 C 4.828125 -35.984375 4.828125 -36.601562 4.828125 -37.1875 C 4.898438 -37.550781 4.972656 -37.929688 5.046875 -38.328125 C 5.117188 -38.734375 5.191406 -39.085938 5.265625 -39.390625 C 5.265625 -39.460938 5.265625 -39.515625 5.265625 -39.546875 C 5.265625 -39.585938 5.265625 -39.609375 5.265625 -39.609375 C 5.191406 -40.191406 5.207031 -40.738281 5.3125 -41.25 C 5.425781 -41.757812 5.519531 -42.269531 5.59375 -42.78125 C 5.664062 -43.144531 5.703125 -43.488281 5.703125 -43.8125 C 5.703125 -44.144531 5.738281 -44.460938 5.8125 -44.765625 C 5.957031 -45.203125 6.046875 -45.640625 6.078125 -46.078125 C 6.117188 -46.515625 6.175781 -46.988281 6.25 -47.5 C 6.320312 -47.789062 6.394531 -48.0625 6.46875 -48.3125 C 6.539062 -48.570312 6.613281 -48.847656 6.6875 -49.140625 Z M 15.25 -62.53125 C 15.25 -62.53125 15.226562 -62.53125 15.1875 -62.53125 C 15.15625 -62.53125 15.101562 -62.566406 15.03125 -62.640625 C 14.8125 -62.421875 14.703125 -62.273438 14.703125 -62.203125 C 14.628906 -61.910156 14.570312 -61.597656 14.53125 -61.265625 C 14.5 -60.941406 14.445312 -60.597656 14.375 -60.234375 C 14.375 -59.785156 14.351562 -59.320312 14.3125 -58.84375 C 14.28125 -58.375 14.226562 -57.921875 14.15625 -57.484375 C 14.15625 -57.191406 14.132812 -56.9375 14.09375 -56.71875 C 14.0625 -56.5 14.007812 -56.242188 13.9375 -55.953125 C 13.863281 -55.515625 13.789062 -55.070312 13.71875 -54.625 C 13.644531 -54.1875 13.570312 -53.710938 13.5 -53.203125 C 13.425781 -52.691406 13.390625 -52.144531 13.390625 -51.5625 C 13.390625 -50.976562 13.390625 -50.394531 13.390625 -49.8125 C 13.316406 -49.070312 13.203125 -48.300781 13.046875 -47.5 C 12.898438 -46.695312 12.863281 -45.894531 12.9375 -45.09375 C 12.9375 -45.09375 12.9375 -45.070312 12.9375 -45.03125 C 12.9375 -45 12.9375 -44.984375 12.9375 -44.984375 C 12.863281 -44.535156 12.769531 -44.09375 12.65625 -43.65625 C 12.550781 -43.21875 12.460938 -42.816406 12.390625 -42.453125 C 12.390625 -42.085938 12.390625 -41.738281 12.390625 -41.40625 C 12.390625 -41.082031 12.390625 -40.738281 12.390625 -40.375 C 12.390625 -40.15625 12.351562 -39.9375 12.28125 -39.71875 C 12.207031 -39.5 12.171875 -39.273438 12.171875 -39.046875 C 12.242188 -38.609375 12.28125 -38.171875 12.28125 -37.734375 C 12.28125 -37.296875 12.171875 -36.929688 11.953125 -36.640625 C 11.878906 -36.054688 11.820312 -35.523438 11.78125 -35.046875 C 11.75 -34.578125 11.695312 -34.082031 11.625 -33.5625 C 11.550781 -33.269531 11.476562 -32.976562 11.40625 -32.6875 C 11.332031 -32.394531 11.257812 -32.066406 11.1875 -31.703125 C 11.1875 -31.335938 11.332031 -31.191406 11.625 -31.265625 C 12.28125 -31.410156 12.921875 -31.570312 13.546875 -31.75 C 14.171875 -31.9375 14.773438 -32.101562 15.359375 -32.25 C 15.578125 -32.320312 15.796875 -32.375 16.015625 -32.40625 C 16.234375 -32.445312 16.453125 -32.46875 16.671875 -32.46875 C 17.109375 -32.613281 17.566406 -32.722656 18.046875 -32.796875 C 18.523438 -32.867188 18.984375 -32.941406 19.421875 -33.015625 C 19.421875 -33.015625 19.421875 -32.992188 19.421875 -32.953125 C 19.421875 -32.921875 19.421875 -32.90625 19.421875 -32.90625 C 19.566406 -32.757812 19.675781 -32.613281 19.75 -32.46875 C 19.75 -32.757812 19.765625 -32.992188 19.796875 -33.171875 C 19.835938 -33.359375 19.820312 -33.5625 19.75 -33.78125 C 19.675781 -34.375 19.601562 -34.960938 19.53125 -35.546875 C 19.457031 -36.128906 19.347656 -36.710938 19.203125 -37.296875 C 19.128906 -38.097656 19.054688 -38.882812 18.984375 -39.65625 C 18.910156 -40.425781 18.800781 -41.175781 18.65625 -41.90625 C 18.582031 -42.34375 18.507812 -42.796875 18.4375 -43.265625 C 18.363281 -43.742188 18.25 -44.207031 18.09375 -44.65625 C 17.800781 -45.75 17.582031 -46.878906 17.4375 -48.046875 C 17.289062 -49.222656 17.144531 -50.394531 17 -51.5625 C 16.925781 -52.289062 16.832031 -52.984375 16.71875 -53.640625 C 16.613281 -54.296875 16.488281 -54.992188 16.34375 -55.734375 C 16.195312 -56.535156 16.050781 -57.335938 15.90625 -58.140625 C 15.757812 -58.941406 15.613281 -59.75 15.46875 -60.5625 C 15.394531 -60.925781 15.359375 -61.269531 15.359375 -61.59375 C 15.359375 -61.925781 15.320312 -62.238281 15.25 -62.53125 Z M 19.75 -29.40625 C 19.601562 -29.332031 19.421875 -29.296875 19.203125 -29.296875 C 19.128906 -29.296875 19.019531 -29.3125 18.875 -29.34375 C 18.726562 -29.382812 18.582031 -29.40625 18.4375 -29.40625 C 18.4375 -29.332031 18.4375 -29.273438 18.4375 -29.234375 C 18.4375 -29.203125 18.4375 -29.148438 18.4375 -29.078125 C 18.65625 -29.078125 18.851562 -29.054688 19.03125 -29.015625 C 19.21875 -28.984375 19.421875 -28.96875 19.640625 -28.96875 C 19.710938 -29.113281 19.75 -29.257812 19.75 -29.40625 Z M 19.09375 -26.984375 C 18.726562 -26.617188 18.394531 -26.363281 18.09375 -26.21875 C 18.394531 -26.144531 18.65625 -26.109375 18.875 -26.109375 C 18.875 -26.253906 18.890625 -26.398438 18.921875 -26.546875 C 18.960938 -26.691406 19.019531 -26.835938 19.09375 -26.984375 Z M 6.796875 -48.15625 C 6.867188 -48.082031 6.90625 -48.007812 6.90625 -47.9375 C 6.90625 -47.863281 6.941406 -47.753906 7.015625 -47.609375 C 7.160156 -47.753906 7.269531 -47.878906 7.34375 -47.984375 C 7.414062 -48.097656 7.488281 -48.226562 7.5625 -48.375 C 7.414062 -48.300781 7.285156 -48.265625 7.171875 -48.265625 C 7.066406 -48.265625 6.941406 -48.226562 6.796875 -48.15625 Z M 6.796875 -48.15625 "/></g></g></g><g fill="#ffffff" fill-opacity="1"><g transform="translate(67.509408, 85.176274)"><g><path d="M 35.21875 -7.5625 C 35 -7.050781 34.976562 -6.664062 35.15625 -6.40625 C 35.34375 -6.15625 35.582031 -5.921875 35.875 -5.703125 C 35.875 -5.117188 35.4375 -4.679688 34.5625 -4.390625 C 33.894531 -4.171875 33.632812 -3.695312 33.78125 -2.96875 C 33.707031 -2.820312 33.597656 -2.671875 33.453125 -2.515625 C 33.304688 -2.367188 33.160156 -2.1875 33.015625 -1.96875 C 32.648438 -1.820312 32.285156 -1.582031 31.921875 -1.25 C 31.554688 -0.925781 31.046875 -0.691406 30.390625 -0.546875 C 29.953125 -0.472656 29.457031 -0.34375 28.90625 -0.15625 C 28.351562 0.0195312 27.785156 0.179688 27.203125 0.328125 C 27.054688 0.328125 26.875 0.34375 26.65625 0.375 C 26.4375 0.414062 26.253906 0.398438 26.109375 0.328125 C 25.015625 0.179688 23.914062 0.0195312 22.8125 -0.15625 C 21.71875 -0.34375 20.660156 -0.582031 19.640625 -0.875 C 19.128906 -1.019531 18.597656 -1.253906 18.046875 -1.578125 C 17.492188 -1.910156 16.960938 -2.222656 16.453125 -2.515625 C 16.085938 -2.742188 15.738281 -2.984375 15.40625 -3.234375 C 15.082031 -3.492188 14.738281 -3.769531 14.375 -4.0625 C 13.863281 -4.425781 13.367188 -4.789062 12.890625 -5.15625 C 12.410156 -5.519531 11.953125 -5.921875 11.515625 -6.359375 C 10.710938 -7.234375 9.910156 -8.128906 9.109375 -9.046875 C 8.304688 -9.960938 7.535156 -10.894531 6.796875 -11.84375 C 6.140625 -12.726562 5.554688 -13.660156 5.046875 -14.640625 C 4.535156 -15.628906 4.097656 -16.707031 3.734375 -17.875 C 3.441406 -19.125 3.128906 -20.347656 2.796875 -21.546875 C 2.460938 -22.753906 2.1875 -23.945312 1.96875 -25.125 C 1.820312 -26.144531 1.675781 -27.1875 1.53125 -28.25 C 1.382812 -29.3125 1.273438 -30.351562 1.203125 -31.375 C 1.128906 -32.101562 1.109375 -32.816406 1.140625 -33.515625 C 1.179688 -34.210938 1.238281 -34.890625 1.3125 -35.546875 C 1.382812 -36.710938 1.507812 -37.863281 1.6875 -39 C 1.875 -40.132812 2.113281 -41.25 2.40625 -42.34375 C 2.5625 -43.070312 2.710938 -43.785156 2.859375 -44.484375 C 3.003906 -45.179688 3.1875 -45.894531 3.40625 -46.625 C 3.769531 -47.789062 4.113281 -48.941406 4.4375 -50.078125 C 4.769531 -51.210938 5.117188 -52.328125 5.484375 -53.421875 C 5.847656 -54.453125 6.265625 -55.441406 6.734375 -56.390625 C 7.210938 -57.335938 7.675781 -58.285156 8.125 -59.234375 C 8.414062 -59.898438 8.707031 -60.539062 9 -61.15625 C 9.289062 -61.78125 9.582031 -62.382812 9.875 -62.96875 C 9.945312 -63.113281 10.019531 -63.222656 10.09375 -63.296875 C 10.164062 -63.367188 10.203125 -63.441406 10.203125 -63.515625 C 10.421875 -63.953125 10.617188 -64.375 10.796875 -64.78125 C 10.984375 -65.1875 11.148438 -65.535156 11.296875 -65.828125 C 11.804688 -66.554688 12.28125 -67.265625 12.71875 -67.953125 C 13.164062 -68.648438 13.644531 -69.363281 14.15625 -70.09375 C 14.957031 -71.195312 15.851562 -72.164062 16.84375 -73 C 17.832031 -73.84375 18.875 -74.628906 19.96875 -75.359375 C 20.476562 -75.734375 21.023438 -76.007812 21.609375 -76.1875 C 22.191406 -76.375 22.738281 -76.578125 23.25 -76.796875 C 23.625 -76.941406 23.957031 -77.050781 24.25 -77.125 C 24.539062 -77.195312 24.832031 -77.269531 25.125 -77.34375 C 25.5625 -77.488281 26 -77.5625 26.4375 -77.5625 C 26.875 -77.5625 27.273438 -77.597656 27.640625 -77.671875 C 28.378906 -77.742188 29.054688 -77.613281 29.671875 -77.28125 C 30.296875 -76.957031 30.863281 -76.613281 31.375 -76.25 C 32.03125 -75.957031 32.578125 -75.515625 33.015625 -74.921875 C 33.160156 -74.847656 33.210938 -74.679688 33.171875 -74.421875 C 33.140625 -74.171875 33.125 -73.972656 33.125 -73.828125 C 33.125 -73.753906 33.050781 -73.71875 32.90625 -73.71875 C 32.757812 -73.71875 32.613281 -73.679688 32.46875 -73.609375 C 32.175781 -73.460938 31.957031 -73.316406 31.8125 -73.171875 C 31.519531 -73.023438 31.242188 -72.878906 30.984375 -72.734375 C 30.734375 -72.585938 30.425781 -72.476562 30.0625 -72.40625 C 29.476562 -72.40625 28.742188 -72.222656 27.859375 -71.859375 C 26.328125 -71.273438 24.941406 -70.613281 23.703125 -69.875 C 23.179688 -69.582031 22.71875 -69.21875 22.3125 -68.78125 C 21.914062 -68.34375 21.5 -67.941406 21.0625 -67.578125 C 20.84375 -67.285156 20.625 -67.007812 20.40625 -66.75 C 20.1875 -66.5 19.96875 -66.265625 19.75 -66.046875 C 19.238281 -65.523438 18.78125 -64.953125 18.375 -64.328125 C 17.96875 -63.710938 17.582031 -63.078125 17.21875 -62.421875 C 17.21875 -62.347656 17.179688 -62.273438 17.109375 -62.203125 C 17.035156 -62.128906 16.960938 -62.019531 16.890625 -61.875 C 16.597656 -61.289062 16.320312 -60.703125 16.0625 -60.109375 C 15.8125 -59.523438 15.539062 -58.941406 15.25 -58.359375 C 14.957031 -57.847656 14.71875 -57.316406 14.53125 -56.765625 C 14.351562 -56.222656 14.117188 -55.660156 13.828125 -55.078125 C 13.390625 -54.191406 13.039062 -53.289062 12.78125 -52.375 C 12.519531 -51.46875 12.28125 -50.5 12.0625 -49.46875 C 11.769531 -48.519531 11.492188 -47.550781 11.234375 -46.5625 C 10.984375 -45.582031 10.710938 -44.578125 10.421875 -43.546875 C 10.347656 -43.109375 10.253906 -42.6875 10.140625 -42.28125 C 10.035156 -41.882812 9.910156 -41.46875 9.765625 -41.03125 C 9.691406 -40.664062 9.617188 -40.28125 9.546875 -39.875 C 9.472656 -39.476562 9.398438 -39.09375 9.328125 -38.71875 C 9.328125 -38.71875 9.304688 -38.695312 9.265625 -38.65625 C 9.234375 -38.625 9.253906 -38.609375 9.328125 -38.609375 C 9.472656 -38.097656 9.453125 -37.585938 9.265625 -37.078125 C 9.085938 -36.566406 8.960938 -36.054688 8.890625 -35.546875 C 8.816406 -35.109375 8.742188 -34.703125 8.671875 -34.328125 C 8.597656 -33.960938 8.523438 -33.632812 8.453125 -33.34375 C 8.453125 -32.394531 8.429688 -31.5 8.390625 -30.65625 C 8.359375 -29.820312 8.378906 -28.960938 8.453125 -28.078125 C 8.453125 -27.640625 8.523438 -27.179688 8.671875 -26.703125 C 8.816406 -26.234375 8.925781 -25.78125 9 -25.34375 C 9.070312 -25.195312 9.109375 -25.050781 9.109375 -24.90625 C 9.109375 -24.757812 9.144531 -24.613281 9.21875 -24.46875 C 9.363281 -23.882812 9.488281 -23.316406 9.59375 -22.765625 C 9.707031 -22.210938 9.800781 -21.644531 9.875 -21.0625 C 9.945312 -20.769531 10.019531 -20.441406 10.09375 -20.078125 C 10.164062 -19.710938 10.238281 -19.3125 10.3125 -18.875 C 10.75 -18.425781 11.078125 -17.691406 11.296875 -16.671875 C 11.441406 -16.234375 11.625 -15.8125 11.84375 -15.40625 C 12.0625 -15.007812 12.28125 -14.59375 12.5 -14.15625 C 12.71875 -13.863281 12.863281 -13.570312 12.9375 -13.28125 C 13.3125 -12.832031 13.695312 -12.367188 14.09375 -11.890625 C 14.5 -11.421875 14.882812 -10.96875 15.25 -10.53125 C 15.320312 -10.53125 15.359375 -10.566406 15.359375 -10.640625 C 15.359375 -10.566406 15.375 -10.492188 15.40625 -10.421875 C 15.445312 -10.347656 15.46875 -10.238281 15.46875 -10.09375 C 15.46875 -10.164062 15.503906 -10.238281 15.578125 -10.3125 C 16.015625 -9.875 16.46875 -9.4375 16.9375 -9 C 17.414062 -8.5625 17.878906 -8.082031 18.328125 -7.5625 C 18.910156 -6.976562 19.53125 -6.445312 20.1875 -5.96875 C 20.84375 -5.5 21.570312 -5.191406 22.375 -5.046875 C 23.550781 -4.828125 24.613281 -4.863281 25.5625 -5.15625 C 26.21875 -5.445312 26.851562 -5.738281 27.46875 -6.03125 C 28.09375 -6.320312 28.703125 -6.613281 29.296875 -6.90625 C 29.660156 -7.050781 30.003906 -7.253906 30.328125 -7.515625 C 30.660156 -7.773438 30.972656 -7.941406 31.265625 -8.015625 C 31.628906 -8.160156 31.972656 -8.195312 32.296875 -8.125 C 32.628906 -8.050781 32.941406 -8.015625 33.234375 -8.015625 C 33.453125 -7.941406 33.671875 -7.90625 33.890625 -7.90625 C 34.117188 -7.90625 34.34375 -7.863281 34.5625 -7.78125 C 34.707031 -7.78125 34.816406 -7.757812 34.890625 -7.71875 C 34.960938 -7.6875 35.070312 -7.632812 35.21875 -7.5625 Z M 35.21875 -7.5625 "/></g></g></g><g fill="#ffffff" fill-opacity="1"><g transform="translate(105.573812, 85.176274)"><g><path d="M 38.28125 -5.59375 C 38.0625 -5.519531 37.84375 -5.410156 37.625 -5.265625 C 37.40625 -5.117188 37.1875 -4.972656 36.96875 -4.828125 C 37.113281 -4.535156 37.273438 -4.257812 37.453125 -4 C 37.640625 -3.75 37.769531 -3.476562 37.84375 -3.1875 C 37.332031 -2.894531 36.820312 -2.632812 36.3125 -2.40625 C 35.800781 -2.1875 35.253906 -2.148438 34.671875 -2.296875 C 33.929688 -2.523438 33.234375 -2.597656 32.578125 -2.515625 C 31.992188 -2.515625 31.5 -2.660156 31.09375 -2.953125 C 30.695312 -3.253906 30.316406 -3.585938 29.953125 -3.953125 C 28.921875 -5.117188 27.96875 -6.285156 27.09375 -7.453125 C 26.875 -7.753906 26.65625 -8.03125 26.4375 -8.28125 C 26.21875 -8.539062 26 -8.816406 25.78125 -9.109375 C 25.707031 -9.328125 25.613281 -9.523438 25.5 -9.703125 C 25.394531 -9.890625 25.269531 -10.054688 25.125 -10.203125 C 24.976562 -10.566406 24.796875 -10.875 24.578125 -11.125 C 24.359375 -11.382812 24.175781 -11.660156 24.03125 -11.953125 C 23.738281 -12.390625 23.460938 -12.8125 23.203125 -13.21875 C 22.941406 -13.625 22.703125 -14.046875 22.484375 -14.484375 C 21.753906 -15.578125 21.0625 -16.671875 20.40625 -17.765625 C 19.75 -18.867188 19.09375 -20.003906 18.4375 -21.171875 C 17.914062 -22.117188 17.363281 -23.050781 16.78125 -23.96875 C 16.195312 -24.882812 15.613281 -25.816406 15.03125 -26.765625 C 14.738281 -27.347656 14.425781 -27.929688 14.09375 -28.515625 C 13.769531 -29.109375 13.421875 -29.695312 13.046875 -30.28125 C 12.972656 -30.351562 12.71875 -30.460938 12.28125 -30.609375 C 12.28125 -30.390625 12.257812 -30.222656 12.21875 -30.109375 C 12.1875 -30.003906 12.171875 -29.878906 12.171875 -29.734375 C 12.023438 -29.734375 11.953125 -29.695312 11.953125 -29.625 C 11.953125 -29.476562 11.953125 -29.3125 11.953125 -29.125 C 11.953125 -28.945312 11.953125 -28.742188 11.953125 -28.515625 C 12.023438 -28.441406 12.097656 -28.40625 12.171875 -28.40625 C 12.242188 -28.40625 12.316406 -28.332031 12.390625 -28.1875 C 12.242188 -28.039062 12.171875 -27.785156 12.171875 -27.421875 C 12.171875 -27.421875 12.1875 -27.398438 12.21875 -27.359375 C 12.257812 -27.328125 12.28125 -27.3125 12.28125 -27.3125 C 12.28125 -26.582031 12.296875 -25.90625 12.328125 -25.28125 C 12.367188 -24.664062 12.390625 -24.023438 12.390625 -23.359375 C 12.390625 -22.703125 12.367188 -22.046875 12.328125 -21.390625 C 12.296875 -20.734375 12.28125 -20.039062 12.28125 -19.3125 C 12.28125 -19.019531 12.28125 -18.6875 12.28125 -18.3125 C 12.28125 -17.945312 12.28125 -17.582031 12.28125 -17.21875 C 12.351562 -16.632812 12.367188 -16.03125 12.328125 -15.40625 C 12.296875 -14.789062 12.28125 -14.191406 12.28125 -13.609375 C 12.351562 -13.234375 12.390625 -12.828125 12.390625 -12.390625 C 12.390625 -11.953125 12.390625 -11.550781 12.390625 -11.1875 C 12.390625 -10.601562 12.40625 -10.035156 12.4375 -9.484375 C 12.476562 -8.941406 12.460938 -8.375 12.390625 -7.78125 C 12.390625 -7.488281 12.351562 -7.160156 12.28125 -6.796875 C 12.207031 -6.429688 12.132812 -6.066406 12.0625 -5.703125 C 11.914062 -4.972656 11.75 -4.203125 11.5625 -3.390625 C 11.382812 -2.585938 11.222656 -1.785156 11.078125 -0.984375 C 10.859375 -0.109375 10.203125 0.328125 9.109375 0.328125 C 8.816406 0.328125 8.523438 0.472656 8.234375 0.765625 C 7.710938 0.765625 7.160156 0.507812 6.578125 0 C 5.992188 -0.507812 5.628906 -1.019531 5.484375 -1.53125 C 5.410156 -2.039062 5.28125 -2.535156 5.09375 -3.015625 C 4.914062 -3.492188 4.753906 -3.988281 4.609375 -4.5 C 4.535156 -5.007812 4.460938 -5.5 4.390625 -5.96875 C 4.316406 -6.445312 4.242188 -6.941406 4.171875 -7.453125 C 4.097656 -7.671875 4.0625 -8.003906 4.0625 -8.453125 C 4.0625 -9.179688 4.0625 -9.890625 4.0625 -10.578125 C 4.0625 -11.273438 4.0625 -11.953125 4.0625 -12.609375 C 4.0625 -13.421875 4.039062 -14.226562 4 -15.03125 C 3.96875 -15.832031 3.914062 -16.632812 3.84375 -17.4375 C 3.84375 -18.394531 3.84375 -19.347656 3.84375 -20.296875 C 3.84375 -21.242188 3.84375 -22.191406 3.84375 -23.140625 C 3.84375 -23.734375 3.820312 -24.320312 3.78125 -24.90625 C 3.75 -25.488281 3.734375 -26.035156 3.734375 -26.546875 C 3.734375 -27.347656 3.75 -28.148438 3.78125 -28.953125 C 3.820312 -29.765625 3.84375 -30.535156 3.84375 -31.265625 C 3.84375 -31.703125 3.820312 -32.140625 3.78125 -32.578125 C 3.75 -33.015625 3.734375 -33.453125 3.734375 -33.890625 C 3.734375 -34.335938 3.734375 -34.757812 3.734375 -35.15625 C 3.734375 -35.5625 3.734375 -35.984375 3.734375 -36.421875 C 3.734375 -37.003906 3.710938 -37.585938 3.671875 -38.171875 C 3.640625 -38.753906 3.625 -39.34375 3.625 -39.9375 C 3.550781 -40.375 3.53125 -40.8125 3.5625 -41.25 C 3.601562 -41.6875 3.625 -42.125 3.625 -42.5625 C 3.550781 -43.144531 3.476562 -43.726562 3.40625 -44.3125 C 3.332031 -44.90625 3.296875 -45.457031 3.296875 -45.96875 C 3.296875 -46.769531 3.3125 -47.535156 3.34375 -48.265625 C 3.382812 -48.992188 3.40625 -49.726562 3.40625 -50.46875 C 3.40625 -50.976562 3.40625 -51.46875 3.40625 -51.9375 C 3.40625 -52.414062 3.40625 -52.910156 3.40625 -53.421875 C 3.40625 -54.222656 3.421875 -54.972656 3.453125 -55.671875 C 3.492188 -56.367188 3.550781 -57.082031 3.625 -57.8125 C 3.625 -58.832031 3.640625 -59.816406 3.671875 -60.765625 C 3.710938 -61.722656 3.769531 -62.675781 3.84375 -63.625 C 3.84375 -64.570312 3.859375 -65.503906 3.890625 -66.421875 C 3.929688 -67.335938 3.953125 -68.269531 3.953125 -69.21875 C 3.953125 -69.65625 3.953125 -70.113281 3.953125 -70.59375 C 3.953125 -71.070312 3.953125 -71.53125 3.953125 -71.96875 C 3.953125 -72.476562 3.953125 -72.96875 3.953125 -73.4375 C 3.953125 -73.914062 3.988281 -74.410156 4.0625 -74.921875 C 4.0625 -75.285156 4.316406 -75.46875 4.828125 -75.46875 C 6.796875 -75.46875 8.367188 -74.738281 9.546875 -73.28125 C 9.691406 -73.132812 9.765625 -72.878906 9.765625 -72.515625 C 9.765625 -72.296875 9.765625 -72.078125 9.765625 -71.859375 C 9.765625 -71.640625 9.726562 -71.421875 9.65625 -71.203125 C 9.65625 -71.054688 9.65625 -70.910156 9.65625 -70.765625 C 9.65625 -70.617188 9.65625 -70.46875 9.65625 -70.3125 C 9.726562 -69.945312 9.765625 -69.617188 9.765625 -69.328125 C 9.765625 -69.035156 9.800781 -68.707031 9.875 -68.34375 C 9.945312 -67.90625 10.019531 -67.46875 10.09375 -67.03125 C 10.164062 -66.59375 10.238281 -66.15625 10.3125 -65.71875 C 10.382812 -65.34375 10.4375 -64.953125 10.46875 -64.546875 C 10.507812 -64.148438 10.53125 -63.769531 10.53125 -63.40625 C 10.601562 -63.113281 10.617188 -62.835938 10.578125 -62.578125 C 10.546875 -62.328125 10.492188 -62.09375 10.421875 -61.875 C 10.929688 -60.707031 11.039062 -59.753906 10.75 -59.015625 C 10.75 -58.503906 10.785156 -58.175781 10.859375 -58.03125 C 10.929688 -57.445312 10.96875 -56.878906 10.96875 -56.328125 C 10.96875 -55.785156 10.96875 -55.253906 10.96875 -54.734375 C 10.894531 -54.660156 10.820312 -54.566406 10.75 -54.453125 C 10.675781 -54.347656 10.601562 -54.222656 10.53125 -54.078125 C 10.675781 -54.003906 10.785156 -53.96875 10.859375 -53.96875 C 10.929688 -53.96875 11.003906 -53.929688 11.078125 -53.859375 C 11.078125 -53.566406 11.054688 -53.273438 11.015625 -52.984375 C 10.984375 -52.691406 10.96875 -52.363281 10.96875 -52 C 10.96875 -51.707031 11.003906 -51.523438 11.078125 -51.453125 C 11.441406 -51.085938 11.515625 -50.722656 11.296875 -50.359375 C 11.296875 -49.398438 11.3125 -48.445312 11.34375 -47.5 C 11.382812 -46.550781 11.40625 -45.640625 11.40625 -44.765625 C 11.332031 -44.546875 11.296875 -44.25 11.296875 -43.875 C 11.296875 -43.945312 11.367188 -43.835938 11.515625 -43.546875 C 11.441406 -43.328125 11.382812 -43.085938 11.34375 -42.828125 C 11.3125 -42.578125 11.257812 -42.304688 11.1875 -42.015625 C 11.1875 -42.015625 11.1875 -41.992188 11.1875 -41.953125 C 11.1875 -41.921875 11.1875 -41.90625 11.1875 -41.90625 C 11.257812 -41.976562 11.296875 -42.03125 11.296875 -42.0625 C 11.296875 -42.101562 11.332031 -42.160156 11.40625 -42.234375 C 11.476562 -42.015625 11.53125 -41.796875 11.5625 -41.578125 C 11.601562 -41.359375 11.625 -41.140625 11.625 -40.921875 C 11.695312 -40.773438 11.734375 -40.484375 11.734375 -40.046875 C 11.734375 -40.046875 11.75 -40.046875 11.78125 -40.046875 C 11.820312 -40.046875 11.878906 -40.007812 11.953125 -39.9375 C 12.097656 -40.15625 12.222656 -40.351562 12.328125 -40.53125 C 12.441406 -40.71875 12.535156 -40.882812 12.609375 -41.03125 C 13.203125 -42.125 13.753906 -43.296875 14.265625 -44.546875 C 14.628906 -45.203125 14.9375 -45.859375 15.1875 -46.515625 C 15.445312 -47.171875 15.722656 -47.828125 16.015625 -48.484375 C 16.085938 -48.628906 16.160156 -48.738281 16.234375 -48.8125 C 16.304688 -48.882812 16.34375 -48.957031 16.34375 -49.03125 C 16.488281 -49.175781 16.578125 -49.320312 16.609375 -49.46875 C 16.648438 -49.625 16.707031 -49.738281 16.78125 -49.8125 C 16.78125 -50.394531 16.925781 -50.921875 17.21875 -51.390625 C 17.507812 -51.867188 17.765625 -52.363281 17.984375 -52.875 C 18.128906 -53.238281 18.273438 -53.582031 18.421875 -53.90625 C 18.578125 -54.238281 18.726562 -54.550781 18.875 -54.84375 C 19.164062 -55.363281 19.4375 -55.859375 19.6875 -56.328125 C 19.945312 -56.804688 20.1875 -57.300781 20.40625 -57.8125 C 20.914062 -58.832031 21.425781 -59.835938 21.9375 -60.828125 C 22.445312 -61.816406 22.957031 -62.820312 23.46875 -63.84375 C 24.0625 -65.019531 24.648438 -66.207031 25.234375 -67.40625 C 25.816406 -68.613281 26.398438 -69.804688 26.984375 -70.984375 C 27.347656 -71.640625 27.691406 -72.296875 28.015625 -72.953125 C 28.347656 -73.609375 28.664062 -74.226562 28.96875 -74.8125 C 29.113281 -74.957031 29.222656 -75.101562 29.296875 -75.25 C 29.367188 -75.394531 29.441406 -75.539062 29.515625 -75.6875 C 29.878906 -76.0625 30.28125 -76.140625 30.71875 -75.921875 C 31.300781 -75.617188 31.882812 -75.335938 32.46875 -75.078125 C 33.050781 -74.828125 33.601562 -74.519531 34.125 -74.15625 C 34.34375 -73.9375 34.539062 -73.679688 34.71875 -73.390625 C 34.90625 -73.097656 35.070312 -72.769531 35.21875 -72.40625 C 35.289062 -72.332031 35.253906 -72.113281 35.109375 -71.75 C 34.890625 -71.457031 34.6875 -71.125 34.5 -70.75 C 34.320312 -70.382812 34.046875 -70.054688 33.671875 -69.765625 C 33.234375 -69.398438 32.941406 -68.960938 32.796875 -68.453125 C 32.648438 -67.941406 32.394531 -67.429688 32.03125 -66.921875 C 31.882812 -66.773438 31.738281 -66.484375 31.59375 -66.046875 C 31.375 -65.523438 31.171875 -65.007812 30.984375 -64.5 C 30.804688 -63.988281 30.570312 -63.441406 30.28125 -62.859375 C 30.207031 -62.566406 30.097656 -62.289062 29.953125 -62.03125 C 29.804688 -61.78125 29.660156 -61.507812 29.515625 -61.21875 C 29.078125 -60.257812 28.597656 -59.453125 28.078125 -58.796875 C 27.859375 -58.429688 27.640625 -58.046875 27.421875 -57.640625 C 27.203125 -57.242188 26.984375 -56.863281 26.765625 -56.5 C 26.546875 -56.0625 26.304688 -55.617188 26.046875 -55.171875 C 25.796875 -54.734375 25.5625 -54.332031 25.34375 -53.96875 C 25.195312 -53.53125 25.015625 -53.109375 24.796875 -52.703125 C 24.578125 -52.304688 24.394531 -51.890625 24.25 -51.453125 C 24.03125 -51.015625 23.804688 -50.570312 23.578125 -50.125 C 23.359375 -49.6875 23.140625 -49.25 22.921875 -48.8125 C 22.773438 -48.519531 22.609375 -48.207031 22.421875 -47.875 C 22.242188 -47.550781 22.082031 -47.207031 21.9375 -46.84375 C 21.71875 -46.332031 21.5 -45.78125 21.28125 -45.1875 C 21.0625 -44.601562 20.804688 -44.019531 20.515625 -43.4375 C 20.367188 -42.925781 20.1875 -42.429688 19.96875 -41.953125 C 19.75 -41.484375 19.53125 -40.992188 19.3125 -40.484375 C 19.019531 -39.828125 18.742188 -39.164062 18.484375 -38.5 C 18.222656 -37.84375 17.910156 -37.148438 17.546875 -36.421875 C 17.179688 -35.691406 17.289062 -34.960938 17.875 -34.234375 C 18.25 -33.785156 18.617188 -33.34375 18.984375 -32.90625 C 19.347656 -32.46875 19.675781 -32.03125 19.96875 -31.59375 C 20.1875 -31.300781 20.40625 -31.046875 20.625 -30.828125 C 20.84375 -30.609375 21.0625 -30.351562 21.28125 -30.0625 C 21.863281 -29.332031 22.46875 -28.582031 23.09375 -27.8125 C 23.71875 -27.039062 24.320312 -26.289062 24.90625 -25.5625 C 25.125 -25.269531 25.359375 -24.992188 25.609375 -24.734375 C 25.867188 -24.484375 26.109375 -24.175781 26.328125 -23.8125 C 26.765625 -23.144531 27.203125 -22.484375 27.640625 -21.828125 C 28.078125 -21.171875 28.519531 -20.515625 28.96875 -19.859375 C 29.1875 -19.566406 29.441406 -19.273438 29.734375 -18.984375 C 30.023438 -18.691406 30.207031 -18.359375 30.28125 -17.984375 C 30.425781 -17.617188 30.625 -17.304688 30.875 -17.046875 C 31.132812 -16.796875 31.410156 -16.488281 31.703125 -16.125 C 31.847656 -15.90625 32.007812 -15.703125 32.1875 -15.515625 C 32.375 -15.335938 32.503906 -15.175781 32.578125 -15.03125 C 32.941406 -14.519531 33.25 -14.003906 33.5 -13.484375 C 33.757812 -12.972656 34.039062 -12.460938 34.34375 -11.953125 C 34.632812 -11.515625 34.925781 -11.054688 35.21875 -10.578125 C 35.507812 -10.109375 35.800781 -9.65625 36.09375 -9.21875 C 36.3125 -8.925781 36.53125 -8.613281 36.75 -8.28125 C 36.96875 -7.945312 37.148438 -7.597656 37.296875 -7.234375 C 37.441406 -6.941406 37.601562 -6.664062 37.78125 -6.40625 C 37.96875 -6.15625 38.132812 -5.882812 38.28125 -5.59375 Z M 27.3125 -63.84375 C 27.3125 -63.84375 27.289062 -63.84375 27.25 -63.84375 C 27.21875 -63.84375 27.164062 -63.84375 27.09375 -63.84375 C 27.164062 -63.695312 27.203125 -63.367188 27.203125 -62.859375 C 27.421875 -63.078125 27.601562 -63.222656 27.75 -63.296875 C 27.601562 -63.585938 27.457031 -63.769531 27.3125 -63.84375 Z M 6.578125 -41.46875 C 6.429688 -41.539062 6.210938 -41.722656 5.921875 -42.015625 C 5.847656 -41.941406 5.789062 -41.847656 5.75 -41.734375 C 5.71875 -41.628906 5.664062 -41.503906 5.59375 -41.359375 C 5.882812 -41.210938 6.066406 -41.101562 6.140625 -41.03125 C 6.210938 -41.101562 6.285156 -41.175781 6.359375 -41.25 C 6.429688 -41.320312 6.503906 -41.394531 6.578125 -41.46875 Z M 5.8125 -39.046875 C 5.738281 -39.203125 5.664062 -39.316406 5.59375 -39.390625 C 5.519531 -39.460938 5.445312 -39.535156 5.375 -39.609375 C 5.375 -39.609375 5.351562 -39.609375 5.3125 -39.609375 C 5.28125 -39.609375 5.265625 -39.609375 5.265625 -39.609375 C 5.191406 -39.460938 5.15625 -39.203125 5.15625 -38.828125 C 5.300781 -38.898438 5.425781 -38.9375 5.53125 -38.9375 C 5.644531 -38.9375 5.738281 -38.972656 5.8125 -39.046875 Z M 5.8125 -44.3125 C 5.738281 -44.238281 5.628906 -44.164062 5.484375 -44.09375 C 5.335938 -44.019531 5.191406 -43.910156 5.046875 -43.765625 C 5.191406 -43.691406 5.300781 -43.632812 5.375 -43.59375 C 5.445312 -43.5625 5.519531 -43.507812 5.59375 -43.4375 C 5.664062 -43.65625 5.773438 -43.910156 5.921875 -44.203125 C 5.921875 -44.273438 5.898438 -44.3125 5.859375 -44.3125 C 5.828125 -44.3125 5.8125 -44.3125 5.8125 -44.3125 Z M 4.5 -36.421875 C 4.570312 -36.273438 4.71875 -36.09375 4.9375 -35.875 C 5.082031 -36.09375 5.191406 -36.289062 5.265625 -36.46875 C 5.335938 -36.65625 5.410156 -36.820312 5.484375 -36.96875 C 5.410156 -36.96875 5.335938 -36.96875 5.265625 -36.96875 C 5.191406 -36.96875 5.117188 -36.96875 5.046875 -36.96875 C 4.972656 -36.894531 4.898438 -36.820312 4.828125 -36.75 C 4.753906 -36.675781 4.644531 -36.566406 4.5 -36.421875 Z M 6.359375 -33.34375 C 6.429688 -33.414062 6.484375 -33.46875 6.515625 -33.5 C 6.554688 -33.539062 6.613281 -33.597656 6.6875 -33.671875 C 6.613281 -33.671875 6.519531 -33.671875 6.40625 -33.671875 C 6.300781 -33.671875 6.175781 -33.671875 6.03125 -33.671875 C 5.957031 -33.816406 5.882812 -33.984375 5.8125 -34.171875 C 5.738281 -34.359375 5.628906 -34.488281 5.484375 -34.5625 C 5.335938 -34.414062 5.265625 -34.234375 5.265625 -34.015625 C 5.410156 -33.929688 5.570312 -33.832031 5.75 -33.71875 C 5.9375 -33.613281 6.140625 -33.488281 6.359375 -33.34375 Z M 7.015625 -35.65625 C 6.941406 -35.65625 6.757812 -35.726562 6.46875 -35.875 C 6.613281 -35.945312 6.738281 -36.019531 6.84375 -36.09375 C 6.957031 -36.164062 7.050781 -36.203125 7.125 -36.203125 C 6.976562 -36.347656 6.832031 -36.472656 6.6875 -36.578125 C 6.539062 -36.691406 6.359375 -36.820312 6.140625 -36.96875 C 5.992188 -36.75 5.773438 -36.492188 5.484375 -36.203125 C 5.847656 -35.617188 5.703125 -35.144531 5.046875 -34.78125 C 5.191406 -34.78125 5.335938 -34.707031 5.484375 -34.5625 C 5.484375 -34.5625 5.484375 -34.597656 5.484375 -34.671875 C 5.847656 -34.671875 5.992188 -34.816406 5.921875 -35.109375 C 5.847656 -35.398438 5.921875 -35.617188 6.140625 -35.765625 C 6.285156 -35.617188 6.410156 -35.472656 6.515625 -35.328125 C 6.628906 -35.179688 6.722656 -35 6.796875 -34.78125 C 6.867188 -34.925781 6.90625 -35.070312 6.90625 -35.21875 C 6.90625 -35.363281 6.941406 -35.507812 7.015625 -35.65625 Z M 6.25 -37.40625 C 6.46875 -37.40625 6.648438 -37.40625 6.796875 -37.40625 C 6.941406 -37.40625 7.085938 -37.40625 7.234375 -37.40625 C 7.234375 -37.550781 7.234375 -37.675781 7.234375 -37.78125 C 7.234375 -37.894531 7.234375 -38.023438 7.234375 -38.171875 C 7.085938 -38.023438 6.921875 -37.894531 6.734375 -37.78125 C 6.554688 -37.675781 6.394531 -37.550781 6.25 -37.40625 Z M 8.34375 -55.953125 C 8.5625 -55.878906 8.757812 -55.820312 8.9375 -55.78125 C 9.125 -55.75 9.328125 -55.695312 9.546875 -55.625 C 9.398438 -56.425781 9 -56.535156 8.34375 -55.953125 Z M 9.328125 -54.515625 C 9.472656 -54.585938 9.765625 -54.773438 10.203125 -55.078125 C 10.054688 -55.148438 9.945312 -55.203125 9.875 -55.234375 C 9.800781 -55.273438 9.691406 -55.332031 9.546875 -55.40625 C 9.398438 -55.257812 9.253906 -55 9.109375 -54.625 C 9.179688 -54.625 9.21875 -54.601562 9.21875 -54.5625 C 9.21875 -54.53125 9.253906 -54.515625 9.328125 -54.515625 Z M 11.515625 -30.390625 C 11.878906 -31.410156 11.625 -32.066406 10.75 -32.359375 C 10.820312 -32.210938 10.859375 -32.066406 10.859375 -31.921875 C 10.859375 -31.773438 10.894531 -31.664062 10.96875 -31.59375 C 11.257812 -31.445312 11.441406 -31.375 11.515625 -31.375 C 11.441406 -31.226562 11.347656 -31.097656 11.234375 -30.984375 C 11.128906 -30.878906 11.003906 -30.753906 10.859375 -30.609375 C 11.003906 -30.535156 11.128906 -30.5 11.234375 -30.5 C 11.347656 -30.5 11.441406 -30.460938 11.515625 -30.390625 Z M 31.921875 -13.171875 C 32.066406 -13.460938 32.210938 -13.679688 32.359375 -13.828125 C 32.140625 -13.828125 31.957031 -13.828125 31.8125 -13.828125 C 31.664062 -13.828125 31.445312 -13.828125 31.15625 -13.828125 C 31.375 -13.679688 31.628906 -13.460938 31.921875 -13.171875 Z M 32.6875 -12.171875 C 32.6875 -12.242188 32.6875 -12.332031 32.6875 -12.4375 C 32.6875 -12.550781 32.6875 -12.644531 32.6875 -12.71875 C 32.613281 -12.71875 32.539062 -12.734375 32.46875 -12.765625 C 32.394531 -12.804688 32.320312 -12.828125 32.25 -12.828125 C 32.175781 -12.898438 32.117188 -12.953125 32.078125 -12.984375 C 32.046875 -13.023438 31.992188 -13.085938 31.921875 -13.171875 C 32.066406 -12.867188 32.140625 -12.609375 32.140625 -12.390625 C 32.210938 -12.390625 32.285156 -12.425781 32.359375 -12.5 C 32.359375 -12.425781 32.335938 -12.367188 32.296875 -12.328125 C 32.265625 -12.296875 32.25 -12.242188 32.25 -12.171875 C 32.394531 -12.171875 32.484375 -12.171875 32.515625 -12.171875 C 32.554688 -12.171875 32.613281 -12.171875 32.6875 -12.171875 Z M 33.34375 -10.859375 C 33.414062 -11.003906 33.453125 -11.128906 33.453125 -11.234375 C 33.453125 -11.347656 33.488281 -11.476562 33.5625 -11.625 C 33.488281 -11.625 33.414062 -11.640625 33.34375 -11.671875 C 33.269531 -11.710938 33.195312 -11.734375 33.125 -11.734375 C 33.050781 -11.660156 33.015625 -11.585938 33.015625 -11.515625 C 33.015625 -11.441406 33.015625 -11.40625 33.015625 -11.40625 C 33.085938 -11.332031 33.140625 -11.257812 33.171875 -11.1875 C 33.210938 -11.113281 33.269531 -11.003906 33.34375 -10.859375 Z M 34.671875 -9 C 34.816406 -9.289062 34.890625 -9.4375 34.890625 -9.4375 C 34.816406 -9.582031 34.722656 -9.691406 34.609375 -9.765625 C 34.503906 -9.835938 34.414062 -9.910156 34.34375 -9.984375 C 34.269531 -9.984375 34.210938 -9.960938 34.171875 -9.921875 C 34.140625 -9.890625 34.125 -9.875 34.125 -9.875 C 34.195312 -9.726562 34.285156 -9.582031 34.390625 -9.4375 C 34.503906 -9.289062 34.597656 -9.144531 34.671875 -9 Z M 36.53125 -6.46875 C 36.53125 -6.539062 36.546875 -6.628906 36.578125 -6.734375 C 36.617188 -6.847656 36.640625 -6.941406 36.640625 -7.015625 C 36.492188 -7.085938 36.347656 -7.140625 36.203125 -7.171875 C 36.054688 -7.210938 35.910156 -7.234375 35.765625 -7.234375 C 35.546875 -6.648438 35.800781 -6.394531 36.53125 -6.46875 Z M 36.53125 -6.46875 "/></g></g></g></g></g></g></g></svg>