<svg xmlns="http://www.w3.org/2000/svg" xmlns:xlink="http://www.w3.org/1999/xlink" width="1080" zoomAndPan="magnify" viewBox="0 0 810 809.999993" height="1080" preserveAspectRatio="xMidYMid meet" version="1.0"><path fill="#ffffff" d="M 473.089844 296.675781 C 477.367188 278.664062 479.3125 260.007812 479.570312 241.605469 C 544.875 271.148438 587.375 335.679688 586.726562 406.425781 C 569.363281 408.238281 551.613281 407.589844 534.378906 404.351562 L 534.121094 399.558594 C 532.4375 357.835938 509.242188 318.960938 473.089844 296.675781 Z M 408.304688 508.917969 C 409.988281 513.710938 411.542969 519.023438 412.96875 523.949219 C 430.589844 522.652344 447.695312 517.730469 463.242188 509.4375 C 453.265625 472.507812 433.699219 438.820312 406.878906 411.089844 C 394.179688 422.882812 379.925781 433.507812 364.898438 442.707031 C 384.074219 461.234375 399.492188 484.167969 408.304688 508.917969 Z M 288.835938 409.792969 L 284.042969 411.089844 C 285.078125 428.582031 289.875 445.425781 298.035156 460.847656 C 335.871094 451.515625 370.597656 432.988281 399.105469 406.945312 C 386.925781 394.632812 375.910156 380.898438 366.453125 366.386719 C 344.554688 386.859375 318.378906 402.019531 288.835938 409.792969 Z M 403.121094 399.167969 C 415.820312 387.378906 430.074219 376.753906 445.101562 367.554688 C 421.910156 345.136719 404.804688 316.890625 396.773438 286.050781 C 379.148438 287.347656 362.046875 292.398438 346.496094 300.5625 C 356.605469 337.75 376.167969 371.3125 403.121094 399.167969 Z M 519.867188 400.59375 L 525.828125 398.910156 C 524.792969 381.675781 519.996094 364.441406 511.964844 349.152344 C 482.9375 356.28125 456.636719 368.460938 432.40625 385.953125 C 424.890625 391.394531 417.894531 397.355469 411.15625 403.1875 C 423.464844 415.625 434.347656 429.101562 443.808594 443.871094 C 465.316406 423.527344 490.972656 408.238281 519.867188 400.59375 Z M 388.480469 218.414062 L 393.015625 218.023438 C 395.21875 203.511719 399.105469 189.257812 404.933594 175.785156 C 421.519531 214.265625 422.945312 258.582031 409.46875 298.101562 C 416.597656 318.183594 428.257812 336.457031 442.253906 352.652344 C 472.3125 299.136719 479.570312 233.183594 460.394531 174.746094 C 450.414062 140.539062 426.960938 109.054688 404.933594 81.066406 C 367.746094 126.675781 343.128906 169.433594 339.242188 229.039062 C 355.050781 223.726562 371.503906 219.710938 388.480469 218.414062 Z M 289.875 338.917969 L 293.890625 339.695312 C 317.601562 300.824219 360.621094 277.109375 406.488281 277.5 C 409.988281 260.523438 411.023438 243.160156 409.339844 225.929688 C 336.261719 223.597656 266.550781 268.300781 237.785156 334.121094 C 255.148438 334.253906 272.898438 335.417969 289.875 338.917969 Z M 215.238281 418.085938 L 214.980469 413.550781 C 203.578125 411.609375 192.433594 408.886719 181.808594 404.871094 C 216.015625 392.171875 255.277344 390.746094 290.652344 400.59375 C 312.808594 394.375 333.023438 382.972656 350.902344 369.109375 C 276.136719 329.328125 179.996094 334.640625 111.0625 383.878906 C 111.0625 384.007812 81 405 81 405 C 127.90625 439.597656 165.222656 461.753906 225.214844 466.808594 C 220.164062 451.128906 216.273438 434.800781 215.238281 418.085938 Z M 275.75 410.3125 L 275.492188 405.519531 C 258.128906 402.277344 240.765625 401.632812 223.144531 403.574219 C 222.496094 474.320312 264.996094 538.851562 330.300781 568.394531 C 330.558594 549.863281 332.503906 531.207031 336.777344 513.324219 C 300.628906 491.039062 277.433594 452.164062 275.75 410.3125 Z M 421.390625 591.585938 L 416.855469 591.976562 C 414.652344 606.488281 410.765625 620.609375 404.933594 634.214844 C 388.480469 596.25 386.925781 551.160156 400.53125 511.898438 C 393.402344 491.945312 381.742188 473.675781 367.878906 457.347656 C 324.46875 533.019531 330.429688 632.015625 384.074219 701.207031 C 384.074219 701.207031 405.066406 728.933594 405.066406 728.933594 C 442.640625 682.546875 466.613281 641.472656 470.757812 580.960938 C 454.820312 586.273438 438.367188 590.160156 421.390625 591.585938 Z M 519.996094 471.082031 L 515.980469 470.304688 C 492.269531 509.175781 449.25 532.890625 403.378906 532.5 C 399.753906 549.605469 398.84375 566.449219 400.53125 584.070312 C 473.609375 586.402344 543.320312 541.570312 572.085938 475.746094 C 554.722656 475.746094 536.839844 474.453125 519.996094 471.082031 Z M 698.808594 384.007812 C 665.378906 360.425781 625.46875 346.691406 584.65625 343.191406 C 590.355469 360.425781 594.113281 378.4375 595.019531 396.449219 C 606.292969 398.390625 617.4375 401.113281 628.191406 405.128906 C 593.984375 417.828125 554.722656 419.253906 519.347656 409.40625 C 497.320312 415.625 477.367188 427.027344 459.355469 441.023438 C 534.121094 480.671875 630.136719 475.230469 698.9375 426.121094 C 698.9375 426.121094 729 405.128906 729 405.128906 Z M 698.808594 384.007812 " fill-opacity="1" fill-rule="nonzero"/></svg>