<svg xmlns="http://www.w3.org/2000/svg" xmlns:xlink="http://www.w3.org/1999/xlink" width="1080" zoomAndPan="magnify" viewBox="0 0 810 809.999993" height="1080" preserveAspectRatio="xMidYMid meet" version="1.0"><defs><clipPath id="53c7e4887c"><path d="M 13 220.832031 L 796 220.832031 L 796 546.332031 L 13 546.332031 Z M 13 220.832031 " clip-rule="nonzero"/></clipPath></defs><g clip-path="url(#53c7e4887c)"><path fill="#e6e6e6" d="M 356.414062 338.769531 L 345.175781 329.140625 C 341.449219 325.914062 337.695312 322.722656 333.933594 319.550781 C 326.40625 313.203125 318.746094 307.035156 310.972656 301.082031 C 295.429688 289.164062 279.242188 278.195312 262.117188 269.355469 C 245.03125 260.484375 227.007812 253.769531 208.523438 250.285156 C 190.078125 246.773438 171.09375 246.511719 153.054688 249.703125 C 116.847656 256.113281 84.214844 277.953125 64.585938 308.148438 C 54.683594 323.160156 47.878906 340.089844 44.804688 357.636719 C 43.246094 366.40625 42.617188 375.316406 42.832031 384.207031 C 43.035156 393.09375 44.132812 401.925781 46.113281 410.53125 C 50.054688 427.753906 57.589844 444.039062 67.96875 458.1875 C 78.320312 472.359375 91.554688 484.359375 106.554688 493.238281 C 114.050781 497.6875 121.996094 501.332031 130.207031 504.144531 C 138.410156 506.972656 146.890625 508.976562 155.484375 510.085938 C 159.785156 510.640625 164.109375 510.976562 168.449219 511.09375 C 169.53125 511.136719 170.613281 511.148438 171.699219 511.144531 L 173.328125 511.144531 L 174.71875 511.085938 L 176.097656 511.039062 L 177.527344 510.90625 C 178.476562 510.824219 179.425781 510.746094 180.414062 510.585938 C 188.222656 509.578125 196.597656 507.09375 204.898438 503.96875 C 221.566406 497.558594 238.1875 488.589844 254.285156 478.648438 C 270.40625 468.671875 286.144531 457.648438 301.535156 446.070312 C 316.957031 434.519531 332.089844 422.433594 346.902344 409.949219 C 361.691406 397.46875 376.320312 384.554688 390.285156 371.414062 L 395.71875 366.285156 L 401.277344 361.167969 C 404.988281 357.777344 408.714844 354.425781 412.460938 351.101562 C 419.949219 344.453125 427.515625 337.90625 435.171875 331.453125 C 450.480469 318.550781 466.113281 306 482.222656 293.941406 C 498.371094 281.941406 514.972656 270.410156 532.332031 259.699219 C 541.027344 254.355469 549.90625 249.210938 559.09375 244.410156 C 563.671875 241.996094 568.363281 239.703125 573.109375 237.476562 C 577.882812 235.273438 582.753906 233.203125 587.734375 231.261719 C 597.746094 227.441406 608.191406 224.101562 619.628906 222.214844 C 621.054688 221.972656 622.480469 221.742188 623.960938 221.585938 C 625.429688 221.414062 626.875 221.207031 628.386719 221.125 C 629.898438 221.03125 631.363281 220.867188 632.921875 220.859375 L 635.226562 220.8125 L 636.382812 220.792969 L 637.425781 220.8125 C 642.929688 220.890625 648.4375 221.242188 653.910156 221.875 C 664.867188 223.136719 675.691406 225.523438 686.152344 228.988281 C 696.609375 232.472656 706.679688 237.050781 716.175781 242.582031 C 735.183594 253.628906 751.792969 268.59375 764.804688 286.164062 C 777.828125 303.742188 787.085938 324.03125 791.949219 345.253906 C 796.824219 366.496094 797.28125 388.566406 793.332031 409.828125 C 789.40625 431.09375 781.09375 451.476562 769.074219 469.242188 C 757.042969 487 741.449219 502.191406 723.546875 513.644531 C 705.652344 525.117188 685.414062 532.722656 664.628906 536.003906 C 654.226562 537.648438 643.730469 538.226562 633.25 537.671875 C 622.738281 537.097656 612.367188 535.308594 602.363281 532.566406 C 582.316406 527.023438 563.945312 517.613281 547.15625 506.550781 C 530.355469 495.425781 515.023438 482.617188 500.445312 469.199219 C 493.15625 462.488281 486.085938 455.574219 479.0625 448.632812 L 468.570312 438.195312 L 458.140625 427.695312 L 469.707031 436.929688 L 481.207031 446.226562 C 488.882812 452.40625 496.625 458.492188 504.441406 464.425781 C 512.246094 470.371094 520.175781 476.117188 528.269531 481.550781 C 536.347656 487 544.597656 492.132812 553.0625 496.757812 C 561.53125 501.375 570.171875 505.566406 579.03125 509.015625 C 587.886719 512.464844 596.941406 515.183594 606.082031 517.046875 C 615.230469 518.882812 624.476562 519.808594 633.65625 519.675781 C 642.867188 519.523438 652.101562 518.53125 661.066406 516.609375 C 679.035156 512.789062 696.023438 505.183594 710.828125 494.675781 C 725.652344 484.179688 738.214844 470.664062 747.582031 455.324219 C 757.007812 440.015625 763.207031 422.863281 765.726562 405.230469 C 768.226562 387.605469 767.230469 369.476562 762.71875 352.425781 C 753.792969 318.230469 730.289062 288.429688 699.652344 271.742188 C 684.367188 263.382812 667.46875 258.164062 650.210938 256.496094 C 645.898438 256.078125 641.558594 255.882812 637.21875 255.898438 L 636.414062 255.898438 L 635.71875 255.933594 L 634.339844 255.992188 C 633.425781 255.992188 632.445312 256.144531 631.503906 256.210938 C 630.558594 256.265625 629.566406 256.445312 628.59375 256.574219 C 627.625 256.683594 626.625 256.871094 625.625 257.0625 C 617.632812 258.515625 609.242188 261.285156 600.933594 264.648438 C 584.253906 271.480469 567.726562 280.699219 551.679688 290.800781 C 535.621094 300.960938 519.945312 312.085938 504.601562 323.757812 C 489.214844 335.375 474.148438 347.554688 459.375 360.101562 C 444.597656 372.671875 430.132812 385.527344 416.109375 398.875 C 401.324219 412.683594 386.351562 425.800781 370.976562 438.675781 C 355.609375 451.515625 339.925781 464.019531 323.722656 475.972656 C 307.5 487.894531 290.808594 499.328125 273.3125 509.894531 C 264.566406 515.179688 255.585938 520.210938 246.3125 524.917969 C 241.667969 527.261719 236.941406 529.511719 232.121094 531.65625 C 227.273438 533.757812 222.34375 535.765625 217.265625 537.59375 C 207.082031 541.191406 196.417969 544.28125 184.648438 545.625 C 183.199219 545.824219 181.695312 545.929688 180.191406 546.035156 L 177.9375 546.179688 L 175.628906 546.234375 L 173.324219 546.273438 L 171.257812 546.230469 C 169.878906 546.210938 168.503906 546.167969 167.128906 546.09375 C 161.625 545.839844 156.132812 545.3125 150.679688 544.503906 C 139.769531 542.886719 129.027344 540.15625 118.6875 536.347656 C 108.359375 532.511719 98.433594 527.628906 89.128906 521.78125 C 70.519531 510.105469 54.375 494.65625 41.941406 476.667969 C 29.53125 458.65625 20.90625 438.09375 16.738281 416.730469 C 12.554688 395.355469 12.804688 373.292969 17.441406 352.160156 C 22.039062 331.027344 31.039062 310.945312 43.613281 293.585938 C 56.191406 276.21875 72.273438 261.542969 90.535156 250.683594 C 108.789062 239.796875 129.253906 232.832031 150.132812 230.242188 C 160.550781 228.929688 171.148438 228.714844 181.46875 229.578125 C 191.824219 230.394531 202.078125 232.164062 212.042969 234.789062 C 232 240.050781 250.683594 248.785156 267.757812 259.472656 C 276.300781 264.835938 284.480469 270.667969 292.332031 276.851562 C 300.167969 283.054688 307.679688 289.601562 314.964844 296.34375 C 322.238281 303.101562 329.238281 310.101562 336.121094 317.199219 C 339.550781 320.753906 342.960938 324.320312 346.347656 327.914062 L 356.414062 338.769531 " fill-opacity="1" fill-rule="nonzero"/></g></svg>