<svg xmlns="http://www.w3.org/2000/svg" xmlns:xlink="http://www.w3.org/1999/xlink" width="1080" zoomAndPan="magnify" viewBox="0 0 810 809.999993" height="1080" preserveAspectRatio="xMidYMid meet" version="1.0"><defs><clipPath id="ad01fd7719"><path d="M 19.101562 410 L 378 410 L 378 582 L 19.101562 582 Z M 19.101562 410 " clip-rule="nonzero"/></clipPath><clipPath id="c9d4aabdf3"><path d="M 424 410 L 781.851562 410 L 781.851562 582 L 424 582 Z M 424 410 " clip-rule="nonzero"/></clipPath><clipPath id="555c760ea0"><path d="M 306 132.0625 L 492 132.0625 L 492 460 L 306 460 Z M 306 132.0625 " clip-rule="nonzero"/></clipPath></defs><path fill="#ffffff" d="M 601.734375 281.714844 C 600.484375 265.230469 598.40625 248.792969 595.609375 232.507812 C 593.625 220.980469 591.304688 209.488281 588.488281 198.136719 C 588.183594 198.226562 587.886719 198.308594 587.582031 198.398438 C 566.925781 204.449219 546.628906 211.925781 526.871094 220.484375 C 511.554688 227.101562 496.699219 234.601562 481.988281 242.527344 C 508.140625 217.75 542.402344 199.8125 576.367188 188.316406 C 583.246094 185.960938 590.699219 183.949219 597.761719 182.050781 C 599.683594 189.082031 601.652344 196.601562 603.058594 203.722656 C 606.429688 220.367188 608.433594 237.363281 608.875 254.34375 C 609.359375 273.855469 607.914062 293.566406 603.300781 312.5625 C 602.957031 302.238281 602.535156 291.976562 601.734375 281.714844 Z M 601.734375 281.714844 " fill-opacity="1" fill-rule="nonzero"/><g clip-path="url(#ad01fd7719)"><path fill="#ffffff" d="M 22.140625 440.308594 C 42.515625 428.339844 64.28125 418.648438 86.796875 411.488281 L 88.972656 410.816406 C 86.222656 412.109375 83.496094 413.441406 80.773438 414.753906 C 63.011719 423.484375 45.699219 433.234375 29.316406 444.320312 C 42.113281 462.152344 56.546875 478.917969 72.085938 494.390625 C 88.425781 510.5625 106.273438 525.292969 125.71875 537.574219 C 160.546875 559.480469 195.804688 570.847656 237.152344 570.300781 C 264.445312 570.019531 291.523438 564.894531 317.621094 557.0625 C 337.960938 551.039062 357.808594 542.789062 377.054688 534.09375 C 377.054688 534.09375 376.386719 534.175781 376.386719 534.175781 L 377.035156 533.996094 L 377.339844 533.914062 C 377.339844 533.914062 377.070312 534.09375 377.070312 534.09375 C 374.652344 535.6875 371.308594 537.683594 368.90625 539.203125 C 319.804688 568.859375 258.996094 587.925781 201.320312 580.183594 C 158.648438 574.527344 119.585938 552.808594 87.453125 524.851562 C 61.328125 502.035156 38.9375 475.066406 21.050781 445.382812 L 19.109375 442.109375 C 19.109375 442.109375 22.148438 440.292969 22.148438 440.292969 Z M 22.140625 440.308594 " fill-opacity="1" fill-rule="nonzero"/></g><g clip-path="url(#c9d4aabdf3)"><path fill="#ffffff" d="M 539.003906 568.753906 C 563.6875 571.53125 588.984375 570.847656 613.144531 564.839844 C 647.527344 556.34375 678.558594 537.945312 705.761719 515.515625 C 730.714844 494.796875 752.855469 470.625 771.820312 444.320312 C 752.917969 431.523438 732.8125 420.527344 712.15625 410.824219 C 735.457031 418.019531 757.945312 427.980469 778.980469 440.320312 L 782.011719 442.128906 C 782.011719 442.128906 780.078125 445.382812 780.078125 445.382812 C 754.800781 487.027344 720.898438 524.105469 679.574219 550.226562 C 655.394531 565.417969 628.226562 576.433594 599.808594 580.199219 C 546.808594 587.242188 492.699219 572.0625 446.179688 547.179688 C 439.5625 543.652344 433.121094 539.789062 426.78125 535.785156 C 425.875 535.21875 424.964844 534.652344 424.074219 534.058594 C 443.453125 543.097656 463.140625 550.945312 483.5 557.082031 C 501.621094 562.519531 520.1875 566.613281 539.003906 568.742188 Z M 539.003906 568.753906 " fill-opacity="1" fill-rule="nonzero"/></g><path fill="#ffffff" d="M 245.957031 209.152344 C 234.976562 205.117188 223.871094 201.375 212.632812 198.136719 C 212.558594 198.445312 212.476562 198.75 212.40625 199.054688 C 207.324219 219.972656 203.648438 241.285156 201.175781 262.667969 C 199.25 279.242188 198.316406 295.863281 197.820312 312.5625 C 189.4375 277.515625 191.03125 238.894531 198.070312 203.722656 C 199.464844 196.589844 201.453125 189.117188 203.34375 182.058594 C 210.390625 183.910156 217.890625 185.953125 224.761719 188.308594 C 240.867188 193.714844 256.578125 200.476562 271.515625 208.578125 C 288.664062 217.914062 305.003906 229.019531 319.148438 242.515625 C 310.03125 237.652344 300.9375 232.886719 291.648438 228.453125 C 276.757812 221.292969 261.46875 214.875 245.96875 209.152344 Z M 245.957031 209.152344 " fill-opacity="1" fill-rule="nonzero"/><path fill="#ffffff" d="M 409.515625 521.28125 C 464.046875 531.863281 522.445312 533.3125 575.726562 515.679688 C 638.074219 495.617188 681.015625 442.332031 707.6875 384.574219 C 710.421875 378.703125 713.0625 372.558594 715.492188 366.550781 C 719.582031 356.335938 723.304688 345.933594 726.480469 335.394531 C 713.601562 332.121094 700.472656 329.636719 687.328125 327.757812 C 646.679688 322.074219 604.585938 322.425781 564.847656 333.460938 C 552.4375 336.957031 540.289062 341.507812 528.769531 347.335938 C 517.132812 353.152344 506.207031 360.292969 495.917969 368.261719 C 506.3125 358.332031 517.984375 349.484375 530.550781 342.371094 C 537.933594 338.125 545.84375 334.367188 553.75 331.183594 C 593.804688 315.230469 638.199219 311.839844 680.851562 315.734375 C 701.375 317.625 721.785156 321.210938 741.667969 326.644531 C 736.554688 347.308594 729.554688 367.488281 720.886719 386.921875 C 704.699219 423.089844 682.578125 457.199219 652.992188 483.851562 C 636.859375 498.410156 618.328125 510.410156 598.191406 518.65625 C 551.070312 537.972656 498.113281 539.195312 448.480469 530.597656 C 436.449219 528.472656 424.398438 525.75 412.683594 522.296875 L 409.488281 521.324219 C 409.488281 521.324219 409.527344 521.289062 409.527344 521.289062 Z M 409.515625 521.28125 " fill-opacity="1" fill-rule="nonzero"/><g clip-path="url(#555c760ea0)"><path fill="#ffffff" d="M 310.949219 364.746094 C 295.074219 294.925781 325.28125 223.703125 367.746094 169.144531 C 377.835938 156.125 388.753906 143.777344 400.597656 132.304688 C 412.890625 144.523438 424.121094 157.699219 434.445312 171.574219 C 443.878906 184.269531 452.539062 197.609375 460.101562 211.5 C 475.179688 239.207031 486.339844 269.46875 489.902344 300.925781 C 490.371094 305.3125 490.757812 309.953125 490.898438 314.378906 C 491.105469 318.863281 491.035156 323.359375 490.890625 327.839844 C 490.371094 316.660156 488.976562 305.566406 486.648438 294.65625 C 484.605469 284.945312 481.800781 275.160156 478.507812 265.789062 C 472.257812 248.011719 464.003906 230.933594 454.445312 214.703125 C 446.007812 200.394531 436.46875 186.71875 426.152344 173.703125 C 422.746094 169.371094 419.15625 165.097656 415.558594 160.917969 C 410.738281 155.359375 405.765625 149.910156 400.632812 144.675781 C 357.457031 190.457031 320.992188 249.945312 314.597656 313.335938 C 312.71875 332.371094 314.132812 351.632812 318 370.367188 C 324.570312 401.964844 337.84375 431.859375 354.183594 459.589844 C 336.964844 435.257812 323.160156 408.457031 314.726562 379.761719 C 313.25 374.890625 312.089844 369.710938 310.957031 364.753906 Z M 310.949219 364.746094 " fill-opacity="1" fill-rule="nonzero"/></g><path fill="#ffffff" d="M 354.183594 459.589844 C 359.878906 466.929688 365.652344 474.132812 371.667969 481.183594 C 380.777344 491.875 390.34375 502.261719 400.425781 512.054688 C 401.125 511.289062 401.828125 510.535156 402.484375 509.796875 C 419.535156 490.9375 434.921875 470.535156 448.300781 448.917969 C 470.875 412.246094 487.535156 371.085938 490.898438 327.855469 C 493.902344 366.203125 482.078125 405.09375 464.398438 438.800781 C 452.796875 460.867188 438.339844 481.433594 421.945312 500.191406 C 415.171875 507.945312 407.960938 515.363281 400.417969 522.414062 L 397.988281 519.832031 C 389.410156 510.769531 381.503906 501.09375 374.128906 491.027344 C 366.847656 480.992188 360.039062 470.535156 354.175781 459.601562 Z M 354.183594 459.589844 " fill-opacity="1" fill-rule="nonzero"/><path fill="#ffffff" d="M 206.121094 519.929688 C 153.421875 499.644531 114.441406 454.457031 89.070312 405.25 C 85.464844 398.324219 82.003906 390.96875 78.890625 383.808594 C 70.835938 365.339844 64.324219 346.203125 59.476562 326.632812 C 81.921875 320.511719 105.023438 316.722656 128.226562 315.078125 C 169.070312 312.28125 211.128906 316.3125 249.25 331.921875 C 254.023438 333.910156 259.050781 336.21875 263.648438 338.578125 C 266.351562 339.960938 269.707031 341.839844 272.324219 343.34375 C 284.210938 350.320312 295.320312 358.765625 305.238281 368.261719 C 294.949219 360.292969 284.015625 353.152344 272.378906 347.335938 C 260.867188 341.507812 248.710938 336.949219 236.300781 333.460938 C 197.8125 322.765625 157.082031 322.109375 117.640625 327.238281 C 103.199219 329.160156 88.785156 331.8125 74.65625 335.402344 C 76.574219 341.769531 78.695312 348.089844 80.960938 354.332031 C 89.925781 378.863281 101.238281 402.675781 115.339844 424.679688 C 135.097656 455.554688 160.691406 483.402344 192.847656 501.363281 C 221.390625 517.289062 253.78125 525.136719 286.199219 527.898438 C 303.726562 529.390625 321.386719 529.417969 338.96875 528.257812 C 356.605469 527.089844 374.203125 524.777344 391.648438 521.335938 L 388.457031 522.304688 C 387.386719 522.621094 386.316406 522.917969 385.246094 523.222656 C 378.816406 525.046875 372.324219 526.640625 365.792969 528.042969 C 313.257812 539.167969 256.765625 539.589844 206.128906 519.949219 Z M 206.121094 519.929688 " fill-opacity="1" fill-rule="nonzero"/></svg>