<svg xmlns="http://www.w3.org/2000/svg" xmlns:xlink="http://www.w3.org/1999/xlink" width="1080" zoomAndPan="magnify" viewBox="0 0 810 809.999993" height="1080" preserveAspectRatio="xMidYMid meet" version="1.0"><path fill="#ffffff" d="M 587.433594 729 C 465.84375 729 345.1875 729 224.480469 729 C 224.589844 727.410156 225.671875 727.652344 226.425781 727.574219 C 241.132812 726.042969 255.871094 724.769531 270.546875 722.984375 C 290.53125 720.558594 310.40625 717.519531 329.074219 709.332031 C 346.0625 701.882812 358.578125 690.191406 364.804688 672.371094 C 364.976562 671.878906 365.367188 671.464844 366.214844 670.152344 C 368.464844 681.925781 370.601562 692.886719 378.234375 703.144531 C 370.511719 659.375 372.304688 616.644531 375.910156 573.835938 C 380.964844 627.894531 398.996094 674.589844 447.945312 704.296875 C 443.648438 699.59375 439.246094 694.976562 435.066406 690.167969 C 411.777344 663.417969 396.726562 632.59375 390.839844 597.628906 C 385.636719 566.703125 385.316406 535.789062 395.28125 505.566406 C 405.824219 473.59375 426.039062 449.628906 455.476562 433.109375 C 477.585938 420.699219 501.820312 415.621094 526.234375 410.832031 C 550.34375 406.105469 574.582031 401.71875 597.78125 393.523438 C 607.039062 390.25 615.414062 388.867188 624.695312 392.632812 C 630.269531 394.898438 636.484375 394.722656 642.816406 394.519531 C 642.222656 396.441406 640.761719 396.363281 639.714844 396.789062 C 601.730469 412.277344 562.574219 424.128906 522.980469 434.707031 C 505.308594 439.425781 488.039062 445.433594 472.910156 456.164062 C 447.359375 474.28125 432.390625 499.300781 428.230469 529.972656 C 421.078125 582.675781 433.160156 631.277344 462.769531 675.410156 C 480.875 702.394531 506.523438 717.410156 538.507812 722.191406 C 553.425781 724.417969 568.375 726.234375 583.402344 727.496094 C 584.484375 727.582031 585.664062 727.371094 587.433594 729 Z M 587.433594 729 " fill-opacity="1" fill-rule="nonzero"/><path fill="#ffffff" d="M 273.527344 335.871094 C 298.953125 340.71875 321.34375 349.886719 340.234375 366.664062 C 358.84375 383.195312 372.882812 403.148438 384.078125 426.203125 C 386.300781 417.800781 387.9375 410.152344 390.34375 402.75 C 399.472656 374.683594 412.714844 348.902344 433.730469 327.714844 C 455.125 306.140625 480.628906 290.996094 508.78125 279.941406 C 528.382812 272.246094 548.410156 266.160156 569.265625 263.179688 C 585.964844 260.796875 602.730469 260.421875 619.4375 263.421875 C 620.242188 263.5625 621.21875 263.460938 621.648438 264.910156 C 617.925781 266.734375 613.761719 266.832031 609.8125 267.347656 C 581.296875 271.074219 553.792969 278.402344 527.289062 289.589844 C 496.84375 302.441406 469.582031 319.964844 447.351562 344.617188 C 430.109375 363.738281 418.078125 385.769531 412.890625 411.179688 C 410.378906 423.484375 409.789062 435.96875 411.179688 448.480469 C 411.695312 453.109375 410.925781 456.796875 407.644531 460.640625 C 394.960938 475.507812 386.730469 492.835938 381.210938 511.503906 C 380.886719 512.601562 380.511719 513.683594 380.097656 514.753906 C 380.03125 514.929688 379.648438 514.984375 379.332031 515.132812 C 377.855469 513.75 378.464844 511.921875 378.382812 510.296875 C 377.660156 495.960938 377.40625 481.59375 374.3125 467.46875 C 370.503906 450.066406 362.292969 434.722656 352.984375 419.742188 C 334.820312 390.523438 313.046875 364.65625 285.113281 344.273438 C 283.257812 342.921875 281.277344 341.734375 279.445312 340.351562 C 277.773438 339.085938 275.445312 338.757812 273.527344 335.871094 Z M 273.527344 335.871094 " fill-opacity="1" fill-rule="nonzero"/><path fill="#ffffff" d="M 548.574219 178.949219 C 547.089844 221.277344 519.878906 256.679688 479.375 269.003906 C 476.082031 270.003906 472.824219 271.140625 469.507812 272.042969 C 464.972656 273.277344 464.320312 272.726562 464.761719 268.21875 C 466.699219 248.5625 473.03125 230.476562 484.066406 214.050781 C 498.28125 192.894531 517.953125 179.804688 542.714844 174.175781 C 548.671875 172.824219 548.785156 172.914062 548.574219 178.949219 Z M 548.574219 178.949219 " fill-opacity="1" fill-rule="nonzero"/><path fill="#ffffff" d="M 174.636719 401.132812 C 183.859375 398.644531 192.230469 396.632812 200.105469 393.101562 C 201.203125 392.605469 202.3125 392.535156 203.449219 392.960938 C 232.878906 403.984375 264.105469 406.648438 294.621094 412.640625 C 309.179688 415.5 323.296875 419.742188 336.164062 427.53125 C 349.867188 435.824219 357.5625 448.417969 362.261719 463.183594 C 363.78125 467.960938 364.773438 472.910156 365.960938 477.789062 C 366.152344 478.597656 366.34375 479.644531 365.367188 480.074219 C 364.339844 480.527344 363.851562 479.546875 363.375 478.878906 C 348.488281 457.976562 327.109375 446.804688 303.503906 439.050781 C 279.613281 431.207031 254.84375 426.539062 230.828125 419.15625 C 212.851562 413.632812 194.945312 407.875 177.011719 402.207031 C 176.492188 402.042969 176.007812 401.761719 174.636719 401.132812 Z M 174.636719 401.132812 " fill-opacity="1" fill-rule="nonzero"/><path fill="#ffffff" d="M 212.375 261.757812 C 241.609375 261.902344 265.109375 273.585938 282.820312 296.875 C 288.21875 303.972656 293.21875 311.324219 297.085938 319.394531 C 297.945312 321.183594 298.839844 323.027344 295.636719 323.386719 C 277.585938 325.433594 259.984375 324.109375 243.703125 315.304688 C 223.929688 304.609375 210.351562 288.425781 202.851562 267.234375 C 201.066406 262.179688 201.410156 261.9375 206.773438 261.765625 C 208.636719 261.707031 210.507812 261.757812 212.375 261.757812 Z M 212.375 261.757812 " fill-opacity="1" fill-rule="nonzero"/><path fill="#ffffff" d="M 173.066406 309.9375 C 173.066406 307.78125 173.136719 305.621094 173.054688 303.472656 C 172.917969 299.878906 174.476562 298.921875 177.847656 299.929688 C 186.617188 302.546875 194.691406 306.625 202.046875 311.960938 C 225.542969 329.015625 237.796875 352.179688 239.074219 381.171875 C 239.183594 383.753906 239.480469 386.324219 239.609375 388.902344 C 239.738281 391.515625 238.523438 392.183594 236.105469 391.335938 C 216.542969 384.4375 199.640625 373.902344 187.636719 356.449219 C 177.984375 342.414062 173.078125 326.949219 173.066406 309.9375 Z M 173.066406 309.9375 " fill-opacity="1" fill-rule="nonzero"/><path fill="#ffffff" d="M 641.785156 308.59375 C 642.085938 346.027344 617.691406 375.164062 583.25 386.074219 C 580.148438 387.058594 579.234375 386.289062 579.109375 383.074219 C 577.644531 343.910156 598.996094 310.324219 634.800781 295.660156 C 640.097656 293.488281 640.1875 293.59375 641.246094 299.320312 C 641.851562 302.601562 641.679688 305.894531 641.785156 308.59375 Z M 641.785156 308.59375 " fill-opacity="1" fill-rule="nonzero"/><path fill="#ffffff" d="M 193.027344 466.554688 C 174.945312 466.402344 161.101562 460.085938 149.085938 449.460938 C 144.679688 445.566406 140.660156 441.234375 136.464844 437.105469 C 135.007812 435.671875 134.304688 434.390625 136.753906 433.152344 C 158.261719 422.292969 180.261719 417.753906 203.464844 427.757812 C 214.652344 432.582031 223.34375 440.742188 232.042969 448.914062 C 233.871094 450.632812 233.667969 451.75 231.527344 453.21875 C 219.371094 461.554688 206.097656 466.382812 193.027344 466.554688 Z M 193.027344 466.554688 " fill-opacity="1" fill-rule="nonzero"/><path fill="#ffffff" d="M 358.78125 154.835938 C 358.902344 165.269531 356.859375 175.367188 353.878906 185.308594 C 353.203125 187.578125 352.507812 189.683594 349.605469 187.273438 C 327.253906 168.738281 312.464844 146.273438 312.855469 116.054688 C 312.972656 107.125 314.765625 98.394531 316.84375 89.722656 C 317.5625 86.734375 318.886719 87.15625 320.78125 88.363281 C 340.957031 101.210938 353.804688 119.066406 357.976562 142.835938 C 358.296875 144.671875 358.636719 146.523438 358.75 148.375 C 358.882812 150.523438 358.78125 152.683594 358.78125 154.835938 Z M 358.78125 154.835938 " fill-opacity="1" fill-rule="nonzero"/><path fill="#ffffff" d="M 378.773438 149.953125 C 379.035156 122.519531 391.011719 101.152344 412.664062 84.90625 C 417.84375 81.011719 418.035156 81.226562 419.664062 87.410156 C 424.320312 105.085938 425.558594 122.722656 419.582031 140.40625 C 414.210938 156.3125 403.621094 168.449219 391.707031 179.65625 C 386.46875 184.585938 386.472656 184.492188 383.96875 177.707031 C 380.664062 168.734375 378.761719 159.511719 378.773438 149.953125 Z M 378.773438 149.953125 " fill-opacity="1" fill-rule="nonzero"/><path fill="#ffffff" d="M 621.835938 453.730469 C 608.210938 453.789062 597.117188 449.785156 586.601562 443.804688 C 584.960938 442.875 583.589844 442.046875 585.433594 439.941406 C 599.796875 423.53125 616.976562 412.886719 639.613281 413.46875 C 650.820312 413.753906 661.46875 416.421875 671.59375 421.234375 C 673.785156 422.273438 674.953125 423.265625 672.871094 425.621094 C 660.859375 439.210938 647.71875 450.96875 628.664062 453.238281 C 625.957031 453.5625 623.226562 453.636719 621.835938 453.730469 Z M 621.835938 453.730469 " fill-opacity="1" fill-rule="nonzero"/><path fill="#ffffff" d="M 368.578125 157.378906 C 369.742188 157.582031 369.773438 158.59375 369.894531 159.367188 C 371.875 172.261719 374.585938 185.03125 374.523438 198.21875 C 374.453125 211.726562 371.140625 224.679688 368.734375 237.777344 C 360.816406 280.90625 371.46875 319.121094 398.632812 353.0625 C 400.484375 355.378906 400.660156 356.921875 399.085938 359.433594 C 394.515625 366.714844 390.828125 374.480469 387.710938 382.757812 C 385.511719 381.464844 385.734375 379.335938 385.28125 377.710938 C 379.9375 358.585938 372.207031 340.3125 365.476562 321.683594 C 354.707031 291.859375 352.757812 261.511719 359.875 230.5625 C 365.164062 207.558594 369.003906 184.363281 368.011719 160.613281 C 367.960938 159.539062 367.636719 158.328125 368.578125 157.378906 Z M 368.578125 157.378906 " fill-opacity="1" fill-rule="nonzero"/><path fill="#ffffff" d="M 202.921875 520.960938 C 196.007812 520.652344 189.597656 519.980469 183.277344 518.496094 C 181.109375 517.988281 180.402344 517.113281 181.339844 514.875 C 189.707031 494.988281 202.441406 480.027344 224.914062 475.972656 C 233.183594 474.480469 241.492188 474.464844 249.796875 475.691406 C 251.347656 475.917969 253.304688 476.085938 252.476562 478.484375 C 248.332031 490.5 243.800781 502.273438 233.351562 510.566406 C 224.289062 517.761719 213.832031 520.625 202.921875 520.960938 Z M 202.921875 520.960938 " fill-opacity="1" fill-rule="nonzero"/><path fill="#ffffff" d="M 571.296875 311.734375 C 573.402344 311.890625 576.175781 311.132812 575.265625 314.589844 C 570.527344 332.578125 563.152344 348.957031 547.113281 359.964844 C 537.367188 366.65625 526.25 369.21875 514.808594 370.847656 C 512.714844 371.148438 511.988281 370.375 512.242188 368.195312 C 515.625 338.933594 537.382812 316.71875 565.125 312.539062 C 567.25 312.21875 569.386719 311.980469 571.296875 311.734375 Z M 571.296875 311.734375 " fill-opacity="1" fill-rule="nonzero"/><path fill="#ffffff" d="M 127.246094 347.085938 C 155.132812 346.839844 174.515625 362.117188 185.648438 386.425781 C 186.875 389.097656 186.203125 390.121094 183.480469 391.046875 C 161.582031 398.496094 141.542969 391.941406 128.25 372.941406 C 123.597656 366.285156 120.160156 359.082031 117.683594 351.371094 C 116.726562 348.382812 117.59375 346.984375 120.785156 347.074219 C 122.941406 347.132812 125.09375 347.085938 127.246094 347.085938 Z M 127.246094 347.085938 " fill-opacity="1" fill-rule="nonzero"/><path fill="#ffffff" d="M 300.46875 255.351562 C 300.273438 260.230469 300.148438 265.109375 299.21875 269.925781 C 298.746094 272.367188 297.910156 273.691406 295.21875 272.042969 C 279.8125 262.597656 266.996094 250.820312 260.535156 233.402344 C 256.339844 222.09375 256.105469 210.394531 257.753906 198.589844 C 258.054688 196.453125 258.835938 195.066406 261.453125 196.3125 C 285.242188 207.628906 300.980469 229.4375 300.46875 255.351562 Z M 300.46875 255.351562 " fill-opacity="1" fill-rule="nonzero"/><path fill="#ffffff" d="M 575.476562 460.839844 C 602.1875 459.175781 618.382812 473.652344 629.488281 496 C 631.003906 499.050781 630.746094 500.546875 626.925781 501.171875 C 618.273438 502.582031 609.675781 504.453125 600.847656 503.277344 C 581.265625 500.675781 569.851562 488.328125 562.910156 470.941406 C 559.183594 461.601562 559.714844 461.023438 569.871094 460.84375 C 571.738281 460.8125 573.609375 460.839844 575.476562 460.839844 Z M 575.476562 460.839844 " fill-opacity="1" fill-rule="nonzero"/><path fill="#ffffff" d="M 280.386719 270.394531 C 292.164062 279.34375 303.671875 287.644531 315.832031 294.996094 C 323.441406 299.59375 331.523438 303.398438 338.542969 308.988281 C 353.519531 320.917969 361.703125 336.796875 365.875 355.113281 C 366.617188 358.382812 364.878906 357.574219 363.074219 357.171875 C 345.46875 353.261719 331.46875 344.097656 321.253906 329.082031 C 313.507812 317.683594 307.519531 305.148438 298.730469 294.429688 C 293.269531 287.773438 287.8125 281.109375 282.382812 274.425781 C 281.597656 273.453125 280.433594 272.667969 280.386719 270.394531 Z M 280.386719 270.394531 " fill-opacity="1" fill-rule="nonzero"/><path fill="#ffffff" d="M 457.460938 147.015625 C 457.058594 127.371094 464.667969 111.925781 477.609375 98.796875 C 481.65625 94.691406 481.980469 94.910156 484.195312 100.492188 C 495.292969 128.433594 491.367188 153.953125 471.863281 176.925781 C 470.136719 178.960938 468.839844 182.800781 466.4375 182.476562 C 463.972656 182.140625 463.992188 178.074219 463.03125 175.632812 C 459.304688 166.195312 457.207031 156.410156 457.460938 147.015625 Z M 457.460938 147.015625 " fill-opacity="1" fill-rule="nonzero"/><path fill="#ffffff" d="M 645.160156 389.820312 C 642.179688 389.476562 638.054688 389.035156 633.933594 388.511719 C 631.582031 388.214844 630.863281 387.066406 631.667969 384.648438 C 641.269531 355.808594 664.320312 341.601562 692.691406 342.761719 C 694.882812 342.851562 695.910156 343.683594 695.277344 345.996094 C 690.011719 365.234375 680.214844 380.660156 660.304688 387.570312 C 655.785156 389.144531 651.070312 389.546875 645.160156 389.820312 Z M 645.160156 389.820312 " fill-opacity="1" fill-rule="nonzero"/><path fill="#ffffff" d="M 500.65625 166.921875 C 502.621094 140.941406 518.433594 119.511719 544.246094 110.917969 C 554.527344 107.496094 554.011719 107.421875 552.910156 117.820312 C 550.839844 137.449219 541.296875 152.042969 523.863281 161.378906 C 517.648438 164.703125 511.273438 167.691406 504.503906 169.742188 C 500.675781 170.910156 500.574219 170.789062 500.65625 166.921875 Z M 500.65625 166.921875 " fill-opacity="1" fill-rule="nonzero"/><path fill="#ffffff" d="M 296.730469 181.640625 C 296.808594 189.441406 296.492188 189.65625 289.136719 186.707031 C 263.558594 176.433594 249.222656 153.1875 251.347656 125.640625 C 251.585938 122.589844 252.828125 122.398438 255.246094 123.238281 C 281.207031 132.28125 296.449219 153.71875 296.730469 181.640625 Z M 296.730469 181.640625 " fill-opacity="1" fill-rule="nonzero"/><path fill="#ffffff" d="M 486.785156 180.109375 C 482.753906 187.09375 478.722656 193.789062 474.972656 200.628906 C 464.316406 220.070312 454.609375 239.914062 450 261.828125 C 447.496094 273.71875 447.253906 285.777344 447.730469 297.847656 C 447.871094 301.332031 446.878906 303.699219 444.042969 305.898438 C 439.742188 309.230469 435.925781 313.183594 431.816406 316.773438 C 430.488281 317.933594 429.464844 320.574219 427.539062 319.675781 C 425.71875 318.828125 426.835938 316.304688 426.886719 314.539062 C 427.707031 287.136719 435.152344 261.285156 445.769531 236.28125 C 454.21875 216.382812 466.003906 198.613281 481.566406 183.476562 C 482.796875 182.277344 484.167969 181.21875 485.5 180.132812 C 485.65625 180 486.011719 180.109375 486.785156 180.109375 Z M 486.785156 180.109375 " fill-opacity="1" fill-rule="nonzero"/><path fill="#ffffff" d="M 597.667969 203.808594 C 597.664062 227.398438 586.570312 243.917969 565.660156 254.210938 C 564.5 254.78125 563.34375 255.367188 562.183594 255.933594 C 555.921875 258.988281 556.074219 260.667969 555.238281 252.175781 C 552.402344 223.386719 570.433594 203.398438 594.144531 194.960938 C 596.320312 194.1875 597.136719 194.980469 597.300781 196.925781 C 597.5 199.214844 597.550781 201.515625 597.667969 203.808594 Z M 597.667969 203.808594 " fill-opacity="1" fill-rule="nonzero"/><path fill="#ffffff" d="M 295.894531 395.136719 C 295.953125 404.871094 295.953125 404.871094 287.6875 401.421875 C 264.03125 391.5625 250.699219 370.324219 252.148438 344.988281 C 252.292969 342.402344 253.148438 341.859375 255.605469 342.359375 C 275.222656 346.382812 292.570312 365.015625 294.996094 384.910156 C 295.445312 388.605469 296.234375 392.28125 295.894531 395.136719 Z M 295.894531 395.136719 " fill-opacity="1" fill-rule="nonzero"/><path fill="#ffffff" d="M 440.570312 175.488281 C 448.445312 175.398438 448.625 175.757812 445.386719 183.019531 C 436.242188 203.519531 419.644531 214.707031 398.738281 220.570312 C 395.5625 221.460938 392.34375 222.238281 389.214844 223.28125 C 385.183594 224.632812 385.574219 222.273438 386.140625 219.792969 C 388.992188 207.335938 395.363281 196.96875 404.984375 188.628906 C 415.175781 179.796875 427.136719 175.609375 440.570312 175.488281 Z M 440.570312 175.488281 " fill-opacity="1" fill-rule="nonzero"/><path fill="#ffffff" d="M 243.957031 223.175781 C 243.6875 230.210938 242.101562 238.070312 239.871094 245.828125 C 239.167969 248.28125 238.070312 248.472656 236.257812 246.898438 C 212.609375 226.339844 207.890625 204.46875 215.207031 178.53125 C 216.105469 175.339844 217.78125 176.140625 219.660156 177.449219 C 235.210938 188.285156 243.738281 202.949219 243.957031 223.175781 Z M 243.957031 223.175781 " fill-opacity="1" fill-rule="nonzero"/><path fill="#ffffff" d="M 503.527344 324.027344 C 504.34375 334.28125 503.039062 344.027344 500.316406 353.574219 C 493.488281 377.539062 480.625 397.175781 458.710938 409.980469 C 448.515625 415.9375 437.773438 419.238281 425.785156 415.296875 C 422.191406 414.117188 422.113281 412.972656 424.367188 410.433594 C 429.148438 405.042969 434.941406 401.277344 441.707031 398.832031 C 449.515625 396.011719 457.707031 394.132812 464.789062 389.480469 C 474.847656 382.871094 481.523438 373.433594 486.765625 362.902344 C 492.523438 351.328125 497.445312 339.386719 501.171875 326.976562 C 501.476562 325.964844 501.359375 324.613281 503.527344 324.027344 Z M 503.527344 324.027344 " fill-opacity="1" fill-rule="nonzero"/><path fill="#ffffff" d="M 121.796875 297.945312 C 145.992188 297.898438 159.34375 314.957031 161.875 336.507812 C 162.117188 338.566406 161.652344 339.898438 159.117188 339.554688 C 139.519531 336.882812 124.113281 330.726562 115.996094 305.863281 C 113.515625 298.257812 113.878906 297.863281 121.796875 297.945312 Z M 121.796875 297.945312 " fill-opacity="1" fill-rule="nonzero"/><path fill="#ffffff" d="M 668.582031 237.402344 C 671.746094 237.199219 676.34375 238.316406 680.933594 239.488281 C 683.417969 240.121094 684.164062 241.140625 682.664062 243.722656 C 672.316406 261.585938 656.804688 268.910156 636.507812 266.769531 C 634.085938 266.511719 631.648438 266.460938 629.214844 266.308594 C 627.003906 266.167969 626.027344 265.5 627.316406 263.082031 C 635.8125 247.207031 648.308594 237.605469 668.582031 237.402344 Z M 668.582031 237.402344 " fill-opacity="1" fill-rule="nonzero"/><path fill="#ffffff" d="M 689.96875 296.148438 C 696.296875 296.023438 696.511719 296.269531 695.277344 302.210938 C 691.898438 318.453125 682.660156 329.515625 666.628906 334.519531 C 663.347656 335.542969 659.976562 336.277344 656.71875 337.367188 C 653.242188 338.53125 652.480469 337.066406 652.535156 333.886719 C 652.902344 312.84375 669 296.566406 689.96875 296.148438 Z M 689.96875 296.148438 " fill-opacity="1" fill-rule="nonzero"/><path fill="#ffffff" d="M 389.402344 303.265625 C 389.410156 288.863281 395.832031 277.730469 406.808594 268.851562 C 408.867188 267.183594 409.671875 267.488281 410.84375 269.847656 C 421.917969 292.207031 415.078125 310.175781 398.160156 325.203125 C 396.425781 326.746094 395.484375 326.71875 394.371094 324.460938 C 391.476562 318.617188 389.410156 310.355469 389.402344 303.265625 Z M 389.402344 303.265625 " fill-opacity="1" fill-rule="nonzero"/><path fill="#ffffff" d="M 636.71875 205.496094 C 637.003906 219.722656 630.621094 230.582031 619.941406 239.289062 C 617.273438 241.464844 614.371094 243.335938 611.679688 245.476562 C 609.601562 247.132812 608.640625 246.816406 607.867188 244.203125 C 601.628906 223.046875 610.554688 202.808594 630.296875 193.589844 C 634.910156 191.4375 635.273438 191.625 635.789062 196.523438 C 636.101562 199.519531 636.410156 202.507812 636.71875 205.496094 Z M 636.71875 205.496094 " fill-opacity="1" fill-rule="nonzero"/><path fill="#ffffff" d="M 148.9375 234.300781 C 167.585938 234.253906 179.246094 243.039062 187.253906 257.566406 C 188.121094 259.140625 189.066406 260.921875 186.050781 261.242188 C 177.667969 262.140625 169.371094 263.570312 160.847656 261.585938 C 148.15625 258.636719 139.976562 250.175781 132.929688 240.085938 C 131.433594 237.9375 132.628906 237.148438 134.679688 236.527344 C 139.816406 234.984375 145.113281 234.707031 148.9375 234.300781 Z M 148.9375 234.300781 " fill-opacity="1" fill-rule="nonzero"/><path fill="#ffffff" d="M 174.847656 200.367188 C 174.882812 189.679688 174.882812 189.679688 184.191406 194.421875 C 201.207031 203.089844 208.566406 219.171875 203.988281 237.574219 C 203.527344 239.429688 203.136719 241.21875 200.695312 239.726562 C 194.582031 235.984375 188.3125 232.433594 183.707031 226.703125 C 177.367188 218.816406 174.8125 211.304688 174.847656 200.367188 Z M 174.847656 200.367188 " fill-opacity="1" fill-rule="nonzero"/><path fill="#ffffff" d="M 349.335938 289.941406 C 349.695312 293.4375 348.363281 294.039062 345.011719 293.257812 C 326.757812 288.996094 318.242188 272.285156 317.21875 256.9375 C 317.015625 253.917969 318.503906 253.746094 321.003906 254.300781 C 335.496094 257.523438 346.503906 269.316406 348.53125 283.972656 C 348.804688 285.964844 349.066406 287.953125 349.335938 289.941406 Z M 349.335938 289.941406 " fill-opacity="1" fill-rule="nonzero"/><path fill="#ffffff" d="M 586.960938 297.546875 C 579.96875 297.535156 574.414062 295.980469 568.777344 294.953125 C 565.851562 294.421875 565.578125 293.390625 567.285156 290.988281 C 575.007812 280.101562 588.5 275.140625 601.945312 278.515625 C 604.863281 279.246094 607.6875 280.335938 610.574219 281.1875 C 613.109375 281.9375 612.925781 283.15625 611.453125 284.886719 C 604.710938 292.832031 596.582031 297.894531 586.960938 297.546875 Z M 586.960938 297.546875 " fill-opacity="1" fill-rule="nonzero"/><path fill="#ffffff" d="M 347.285156 218.480469 C 347.472656 222.171875 346.679688 222.828125 342.890625 221.207031 C 332.035156 216.558594 323.171875 210.035156 320.859375 197.417969 C 320.0625 193.078125 321.035156 188.855469 321.449219 184.59375 C 321.769531 181.308594 323.359375 180.917969 326.097656 182.449219 C 338.113281 189.167969 344.710938 199.5 346.703125 212.953125 C 346.957031 214.65625 347.066406 216.375 347.285156 218.480469 Z M 347.285156 218.480469 " fill-opacity="1" fill-rule="nonzero"/><path fill="#ffffff" d="M 516.710938 399.347656 C 509.875 400.214844 503.554688 396.839844 497.054688 394.222656 C 494.746094 393.292969 495.390625 392.128906 496.671875 390.660156 C 505.324219 380.761719 520.824219 377.261719 532.953125 382.652344 C 535.5625 383.8125 537.976562 385.410156 540.53125 386.714844 C 543.316406 388.144531 542.710938 389.378906 540.628906 391.035156 C 533.769531 396.503906 526.179688 399.777344 516.710938 399.347656 Z M 516.710938 399.347656 " fill-opacity="1" fill-rule="nonzero"/><path fill="#ffffff" d="M 645.027344 227.5 C 645.820312 210.957031 657.203125 199.949219 674 199.171875 C 676.550781 199.058594 677.476562 199.941406 677.074219 202.386719 C 675.082031 214.433594 669.253906 223.578125 657.414062 228.027344 C 654.605469 229.082031 651.605469 229.605469 648.71875 230.476562 C 645.765625 231.371094 644.644531 230.277344 645.027344 227.5 Z M 645.027344 227.5 " fill-opacity="1" fill-rule="nonzero"/><path fill="#ffffff" d="M 279.574219 467.398438 C 279.648438 474.089844 279.425781 474.273438 272.851562 472.957031 C 259.214844 470.222656 250.5625 459.863281 250.472656 446.453125 C 250.449219 443.210938 251.472656 442.261719 254.742188 442.519531 C 269.796875 443.710938 279.417969 453.234375 279.574219 467.398438 Z M 279.574219 467.398438 " fill-opacity="1" fill-rule="nonzero"/><path fill="#ffffff" d="M 471.3125 355.34375 C 473.761719 355.0625 474.195312 356.234375 473.878906 358.449219 C 471.597656 374.550781 460.550781 385.011719 444.195312 387.234375 C 442.1875 387.507812 441.375 386.988281 441.492188 384.722656 C 442.339844 368.527344 455.570312 355.429688 471.3125 355.34375 Z M 471.3125 355.34375 " fill-opacity="1" fill-rule="nonzero"/><path fill="#ffffff" d="M 518.179688 480.96875 C 517.527344 487.515625 515.203125 494.015625 510.535156 499.597656 C 509.308594 501.058594 508.210938 501.625 506.777344 499.789062 C 497.042969 487.332031 494.550781 473.761719 504.882812 460.007812 C 506.320312 458.097656 507.429688 457.558594 509.230469 459.535156 C 514.632812 465.457031 518.054688 472.1875 518.179688 480.96875 Z M 518.179688 480.96875 " fill-opacity="1" fill-rule="nonzero"/><path fill="#ffffff" d="M 140.148438 197.925781 C 154.574219 198.316406 165.132812 207.78125 167.171875 221.933594 C 167.695312 225.566406 165.953125 226.039062 163.023438 225.902344 C 149.128906 225.277344 139.199219 217.582031 135.257812 204.277344 C 133.578125 198.609375 134.230469 197.761719 140.148438 197.925781 Z M 140.148438 197.925781 " fill-opacity="1" fill-rule="nonzero"/><path fill="#ffffff" d="M 309.496094 477.085938 C 309.167969 484.964844 306.019531 491.757812 301.234375 497.917969 C 299.96875 499.542969 298.867188 499.191406 297.746094 497.867188 C 288 486.324219 286.707031 469.078125 298.523438 457.691406 C 300.363281 455.914062 301.507812 456.597656 302.648438 458.277344 C 306.5 463.960938 309.097656 470.109375 309.496094 477.085938 Z M 309.496094 477.085938 " fill-opacity="1" fill-rule="nonzero"/><path fill="#ffffff" d="M 431.363281 247.804688 C 431.109375 253.339844 429.421875 258.648438 427.027344 263.757812 C 426.195312 265.53125 425.179688 266.730469 423.183594 264.808594 C 412.289062 254.308594 407.832031 242.464844 415.695312 226.6875 C 417.191406 223.675781 418.472656 223.738281 420.757812 225.832031 C 427.1875 231.730469 431.207031 238.714844 431.363281 247.804688 Z M 431.363281 247.804688 " fill-opacity="1" fill-rule="nonzero"/><path fill="#ffffff" d="M 523.828125 311.347656 C 517.699219 311.59375 512.023438 309.109375 506.058594 308.320312 C 503.769531 308.019531 504.070312 306.9375 505.535156 305.53125 C 517.496094 294.023438 531.152344 289.664062 547.363281 295.125 C 549.851562 295.964844 550.085938 296.851562 548.53125 298.648438 C 542 306.1875 534.476562 311.808594 523.828125 311.347656 Z M 523.828125 311.347656 " fill-opacity="1" fill-rule="nonzero"/><path fill="#ffffff" d="M 533.480469 465.050781 C 525.773438 464.480469 525.394531 463.984375 528.414062 456.664062 C 533.78125 443.644531 543.777344 440.621094 555.792969 441.292969 C 557.453125 441.386719 558.945312 441.792969 558.40625 444.164062 C 555.621094 456.332031 548.796875 466.230469 533.480469 465.050781 Z M 533.480469 465.050781 " fill-opacity="1" fill-rule="nonzero"/><path fill="#ffffff" d="M 550.511719 494.832031 C 538.0625 494.65625 529.28125 487.503906 526.902344 475.726562 C 526.375 473.109375 526.765625 471.503906 529.828125 471.449219 C 541.980469 471.230469 551.417969 474.941406 555.75 487.5625 C 558.070312 494.3125 557.636719 494.929688 550.511719 494.832031 Z M 550.511719 494.832031 " fill-opacity="1" fill-rule="nonzero"/><path fill="#ffffff" d="M 284.71875 488.675781 C 283.109375 504.296875 272.054688 510.375 259.074219 511.433594 C 257.105469 511.59375 256.703125 510.523438 256.726562 508.785156 C 256.875 495.976562 268.625 484.902344 281.621094 485.246094 C 284.484375 485.324219 285.042969 486.722656 284.71875 488.675781 Z M 284.71875 488.675781 " fill-opacity="1" fill-rule="nonzero"/><path fill="#ffffff" d="M 372.617188 262.160156 C 372.160156 252.554688 376.910156 245.824219 384.226562 240.371094 C 386.640625 238.574219 387.425781 240.046875 388.320312 241.90625 C 393.097656 251.792969 391.429688 263.0625 383.984375 271.054688 C 383.691406 271.371094 383.414062 271.710938 383.078125 271.96875 C 381.078125 273.503906 379.804688 277.136719 377.339844 276.578125 C 374.316406 275.894531 374.582031 271.941406 373.71875 269.34375 C 372.960938 267.078125 372.953125 264.566406 372.617188 262.160156 Z M 372.617188 262.160156 " fill-opacity="1" fill-rule="nonzero"/><path fill="#ffffff" d="M 294.097656 193.53125 C 297.597656 196.632812 301.144531 199.683594 304.589844 202.84375 C 316.976562 214.222656 330.800781 223.230469 346.710938 228.921875 C 348.898438 229.703125 352.808594 230.492188 352.277344 232.539062 C 351.625 235.046875 348.09375 233.320312 345.816406 233.175781 C 325.171875 231.855469 310.671875 220.675781 299.578125 204.15625 C 297.394531 200.898438 294.246094 198.183594 294.097656 193.53125 Z M 294.097656 193.53125 " fill-opacity="1" fill-rule="nonzero"/><path fill="#ffffff" d="M 425.054688 438.644531 C 434.117188 429.824219 444.703125 423.578125 456.628906 419.613281 C 446.398438 426.453125 435.378906 431.976562 425.054688 438.644531 Z M 425.054688 438.644531 " fill-opacity="1" fill-rule="nonzero"/></svg>