<svg xmlns="http://www.w3.org/2000/svg" xmlns:xlink="http://www.w3.org/1999/xlink" width="1080" zoomAndPan="magnify" viewBox="0 0 810 809.999993" height="1080" preserveAspectRatio="xMidYMid meet" version="1.0"><defs><clipPath id="7fdee852bd"><path d="M 271 52.878906 L 474 52.878906 L 474 461 L 271 461 Z M 271 52.878906 " clip-rule="nonzero"/></clipPath><clipPath id="d07328fdf2"><path d="M 102.617188 445 L 266 445 L 266 597 L 102.617188 597 Z M 102.617188 445 " clip-rule="nonzero"/></clipPath><clipPath id="78fc73ef09"><path d="M 544 445 L 707.117188 445 L 707.117188 597 L 544 597 Z M 544 445 " clip-rule="nonzero"/></clipPath></defs><g clip-path="url(#7fdee852bd)"><path fill="#e6e6e6" d="M 376.390625 416.445312 C 376.390625 416.445312 411.535156 391.820312 473.902344 314.972656 C 457.652344 346.941406 384.476562 442.558594 356.425781 460.460938 C 340.542969 449.15625 325.28125 436.863281 308.617188 426.882812 C 298.800781 421.023438 286.796875 418.960938 275.863281 414.921875 C 274.171875 414.300781 271.738281 411.992188 271.863281 410.671875 C 274.546875 386.085938 276.648438 361.378906 280.773438 337.042969 C 285.394531 309.734375 295.625 300.867188 322.929688 295.253906 C 336.296875 292.53125 349.617188 289.355469 362.652344 285.480469 C 378.289062 280.816406 384.761719 266.917969 378.949219 251.53125 C 377.132812 246.621094 374.203125 242.167969 370.699219 235.445312 C 369.832031 243.777344 369.378906 249.714844 368.550781 255.65625 C 368.222656 258.171875 367.644531 260.9375 366.203125 262.875 C 365.171875 264.277344 362.53125 265.144531 360.714844 264.976562 C 359.808594 264.894531 358.238281 261.925781 358.445312 260.480469 C 361.210938 240.683594 355.476562 222.492188 348.421875 204.507812 C 346.320312 199.1875 344.089844 193.492188 352.546875 191.925781 C 352.050781 184.914062 351.476562 178.105469 351.1875 171.261719 C 350.445312 154.59375 357.703125 142.054688 371.523438 133.105469 C 378.660156 128.441406 375.855469 125.515625 378.660156 121.882812 C 380.925781 118.957031 383.566406 119.863281 385.132812 116.6875 C 385.628906 115.695312 386 113.140625 386.164062 112.027344 C 386.453125 110.003906 382.453125 108.972656 383.277344 105.21875 C 385.421875 99.980469 387.570312 98.042969 389.382812 94.949219 C 395.035156 80.550781 397.550781 67.515625 403.285156 52.996094 C 406.171875 62.734375 410.050781 72.921875 413.347656 82.902344 C 415 87.894531 417.351562 92.761719 420.074219 97.257812 C 423 102.085938 426.878906 106.332031 421.597656 112.027344 C 421.023438 112.644531 422.175781 115.492188 423.207031 116.6875 C 424.691406 118.417969 428.15625 119.449219 428.40625 121.140625 C 429.929688 130.628906 438.265625 134.339844 443.75 140.40625 C 455.960938 154.058594 457.773438 169.816406 454.0625 186.976562 C 453.691406 188.75 455.917969 190.9375 456.539062 193.039062 C 457.402344 195.84375 459.011719 199.0625 458.3125 201.578125 C 455.339844 212.632812 450.761719 223.273438 448.492188 234.453125 C 446.925781 242.125 448.328125 250.375 448.207031 258.378906 C 448.164062 263.164062 443.75 267.617188 441.109375 261.265625 C 438.800781 255.65625 437.398438 249.675781 435.746094 243.816406 C 435.335938 242.375 435.210938 240.890625 434.882812 239.074219 C 419.867188 255.984375 423.746094 275.085938 443.335938 284.324219 C 444.617188 284.941406 445.769531 289.191406 444.945312 290.46875 C 423.785156 324.007812 403.65625 361.832031 377.460938 391.820312 C 376.472656 390.871094 378.453125 392.769531 377.460938 391.820312 C 384.390625 383.859375 391.199219 376.105469 398.996094 369.007812 C 423.25 346.859375 441.5625 320.292969 456.867188 291.460938 C 458.640625 288.121094 462.148438 283.046875 466.230469 285.972656 C 470.027344 288.738281 467.921875 291.214844 467.015625 292.945312 C 443.132812 338.773438 411.492188 378.910156 376.390625 416.445312 Z M 376.390625 416.445312 " fill-opacity="1" fill-rule="nonzero"/></g><path fill="#e6e6e6" d="M 398.996094 369.007812 C 396.3125 371.484375 393.589844 373.917969 390.910156 376.394531 C 393.589844 373.917969 396.3125 371.484375 398.996094 369.007812 Z M 398.996094 369.007812 " fill-opacity="1" fill-rule="nonzero"/><path fill="#e6e6e6" d="M 696.363281 606.234375 C 681.304688 619.765625 663.980469 623.105469 645.953125 623.683594 C 638.734375 623.929688 633.746094 626.695312 628.339844 631.519531 C 613.160156 644.96875 598.433594 659.652344 581.109375 669.71875 C 546.832031 689.601562 510.617188 687.082031 475.058594 671.367188 C 464.789062 666.789062 455.050781 661.015625 444.90625 656.0625 C 431.582031 649.589844 418.257812 645.957031 404.933594 645.585938 L 404.933594 645.546875 C 404.8125 645.546875 404.6875 645.546875 404.5625 645.546875 C 404.441406 645.546875 404.316406 645.546875 404.191406 645.546875 L 404.191406 645.585938 C 390.867188 646 377.585938 649.589844 364.222656 656.0625 C 354.074219 661.015625 344.339844 666.789062 334.066406 671.367188 C 298.550781 687.082031 262.335938 689.601562 228.015625 669.71875 C 210.691406 659.695312 195.921875 644.96875 180.785156 631.519531 C 175.382812 626.734375 170.390625 623.929688 163.171875 623.683594 C 145.144531 623.066406 127.820312 619.722656 112.765625 606.234375 C 112.765625 608.585938 112.601562 609.574219 112.765625 610.484375 C 123.902344 669.386719 170.554688 723.136719 235.234375 727.46875 C 267.285156 729.613281 297.933594 725.238281 324.828125 706.84375 C 339.964844 696.488281 352.960938 683.125 367.851562 672.398438 C 373.996094 667.945312 382.371094 666.335938 389.960938 664.480469 C 391.488281 664.109375 395.941406 668.4375 396.066406 670.75 C 396.476562 680.195312 396.066406 689.722656 395.28125 699.167969 C 393.921875 715.132812 392.148438 731.054688 390.289062 746.9375 C 389.632812 752.710938 392.105469 755.679688 397.46875 756.300781 C 399.695312 756.546875 401.921875 756.796875 404.191406 756.960938 L 404.191406 757 C 404.316406 757 404.441406 757 404.5625 756.960938 C 404.6875 756.960938 404.8125 757 404.933594 757 L 404.933594 756.960938 C 407.160156 756.796875 409.429688 756.546875 411.65625 756.300781 C 417.019531 755.679688 419.496094 752.710938 418.835938 746.9375 C 416.980469 731.015625 415.207031 715.09375 413.886719 699.167969 C 413.0625 689.722656 412.6875 680.195312 413.101562 670.75 C 413.183594 668.4375 417.640625 664.109375 419.207031 664.480469 C 426.839844 666.335938 435.210938 667.945312 441.316406 672.398438 C 456.167969 683.164062 469.199219 696.53125 484.339844 706.84375 C 511.234375 725.238281 541.882812 729.613281 573.933594 727.46875 C 638.613281 723.09375 685.265625 669.386719 696.402344 610.484375 C 696.527344 609.578125 696.363281 608.585938 696.363281 606.234375 Z M 696.363281 606.234375 " fill-opacity="1" fill-rule="nonzero"/><g clip-path="url(#d07328fdf2)"><path fill="#e6e6e6" d="M 265.550781 586.890625 C 226.449219 604.421875 191.34375 597.117188 158.304688 565.066406 C 131.78125 539.371094 118.003906 506.824219 108.558594 472.007812 C 106.246094 463.554688 104.636719 454.847656 102.617188 445.734375 C 104.308594 445.734375 105.257812 445.445312 105.753906 445.773438 C 128.316406 462.726562 154.675781 466.027344 181.652344 466.441406 C 188.789062 466.5625 190.808594 468.710938 192.253906 475.929688 C 201.164062 520.683594 221.703125 558.34375 261.34375 583.546875 C 262.789062 584.496094 264.027344 585.652344 265.550781 586.890625 Z M 265.550781 586.890625 " fill-opacity="1" fill-rule="nonzero"/></g><path fill="#e6e6e6" d="M 374.78125 636.964844 C 373.585938 637.75 372.386719 638.535156 371.191406 639.316406 C 370.410156 639.730469 369.625 640.140625 368.839844 640.554688 C 345 649.792969 321.527344 660.273438 297.109375 667.820312 C 275.289062 674.585938 253.464844 668.355469 234.410156 657.550781 C 219.683594 649.175781 207.265625 636.800781 193.859375 626.160156 C 192.914062 625.414062 192.582031 623.929688 191.757812 622.40625 C 194.851562 621.664062 197.492188 621.003906 200.132812 620.34375 C 214.238281 625.210938 228.800781 629.046875 242.328125 635.234375 C 267.613281 646.867188 293.230469 651.609375 320.703125 645.175781 C 336.089844 641.542969 351.722656 639.152344 367.316406 636.429688 C 369.75 635.976562 372.304688 636.757812 374.78125 636.964844 Z M 374.78125 636.964844 " fill-opacity="1" fill-rule="nonzero"/><path fill="#e6e6e6" d="M 399.613281 367.234375 C 396.933594 369.710938 394.210938 372.144531 391.527344 374.621094 C 394.25 372.144531 396.933594 369.667969 399.613281 367.234375 Z M 399.613281 367.234375 " fill-opacity="1" fill-rule="nonzero"/><path fill="#e6e6e6" d="M 368.839844 640.554688 C 369.625 640.140625 370.410156 639.730469 371.191406 639.316406 C 370.410156 639.730469 369.625 640.140625 368.839844 640.554688 Z M 368.839844 640.554688 " fill-opacity="1" fill-rule="nonzero"/><path fill="#e6e6e6" d="M 548.605469 605.453125 C 516.226562 600.542969 485.824219 608.832031 457.28125 624.425781 C 453.898438 626.28125 449.855469 626.941406 446.144531 628.179688 C 445.6875 627.394531 445.234375 626.613281 444.78125 625.828125 C 450.144531 621.125 455.09375 615.804688 460.949219 611.886719 C 478.730469 600.007812 498.363281 592.621094 519.277344 587.921875 C 527.816406 585.980469 536.933594 582.597656 543.574219 577.152344 C 585.605469 542.585938 605.695312 497.335938 605.984375 443.132812 C 606.027344 431.996094 605.984375 420.859375 605.984375 411.207031 C 583.132812 416.035156 558.671875 420.242188 534.746094 426.511719 C 492.464844 437.605469 462.929688 465.90625 439.253906 501.171875 C 434.097656 508.84375 429.890625 517.09375 425.230469 525.097656 C 425.148438 525.054688 425.0625 525.015625 424.941406 524.972656 L 425.148438 524.394531 C 425.023438 524.5625 424.898438 524.683594 424.734375 524.851562 C 419.496094 522.042969 416.898438 515.773438 418.21875 509.214844 C 418.628906 508.183594 419.207031 507.152344 419.703125 506.246094 C 422.671875 500.675781 425.847656 495.273438 429.230469 490.160156 C 431.707031 486.527344 434.261719 482.941406 436.777344 479.351562 C 460.414062 447.917969 491.972656 426.429688 532.601562 416.488281 C 537.34375 415.332031 538.664062 413.144531 537.921875 408.527344 C 534.707031 388.027344 531.570312 367.484375 528.558594 346.941406 C 524.886719 321.488281 515.234375 301.03125 488.421875 291.914062 C 480.585938 289.273438 478.398438 290.964844 475.015625 297.152344 C 464.5 316.375 453.9375 335.679688 442.183594 354.160156 C 438.347656 360.222656 421.308594 384.765625 421.308594 384.765625 C 404.726562 411.828125 382.453125 437.691406 356.921875 458.6875 C 357.125 458.933594 357.332031 459.179688 357.539062 459.429688 C 357.125 459.757812 356.714844 460.128906 356.300781 460.460938 C 359.269531 464.128906 362.488281 467.679688 365.210938 471.515625 C 372.964844 482.488281 380.925781 493.335938 388.023438 504.71875 C 390.949219 509.382812 391.527344 514.414062 390.332031 518.578125 C 389.09375 521.386719 386.992188 523.695312 384.1875 525.054688 C 379.523438 517.054688 375.316406 508.761719 370.160156 501.132812 C 346.484375 465.863281 316.949219 437.566406 274.667969 426.46875 C 250.742188 420.199219 226.242188 415.992188 203.429688 411.167969 C 203.429688 420.777344 203.390625 431.957031 203.429688 443.09375 C 203.71875 497.335938 223.765625 542.546875 265.839844 577.113281 C 272.441406 582.558594 281.597656 585.941406 290.136719 587.878906 C 311.050781 592.582031 330.683594 599.964844 348.503906 611.84375 C 354.363281 615.761719 359.3125 621.085938 364.675781 625.789062 C 364.222656 626.570312 363.765625 627.355469 363.3125 628.136719 C 359.601562 626.941406 355.558594 626.242188 352.175781 624.382812 C 323.632812 608.792969 293.191406 600.5 260.851562 605.410156 C 240.308594 608.503906 220.300781 615.226562 200.046875 620.300781 C 214.15625 625.167969 228.71875 629.003906 242.246094 635.191406 C 267.53125 646.824219 293.148438 651.566406 320.660156 645.132812 C 336.046875 641.503906 351.679688 639.109375 367.273438 636.386719 C 369.667969 635.976562 372.222656 636.71875 374.699219 636.925781 C 379.195312 636.183594 383.691406 635.398438 390.25 634.324219 C 367.933594 625.828125 352.917969 612.214844 343.554688 592.746094 C 333.574219 571.996094 332.417969 542.175781 340.996094 533.386719 C 341.246094 535.738281 341.535156 537.882812 341.742188 540.03125 C 344.546875 572.410156 358.570312 598.355469 385.175781 617.539062 C 392.765625 623.023438 398.664062 625.910156 404.5625 626.117188 C 404.605469 626.117188 404.6875 626.117188 404.726562 626.117188 C 404.769531 626.117188 404.851562 626.117188 404.894531 626.117188 C 410.792969 625.910156 416.691406 623.023438 424.28125 617.539062 C 450.886719 598.316406 464.910156 572.410156 467.714844 540.03125 C 467.921875 537.882812 468.167969 535.738281 468.457031 533.386719 C 477.078125 542.132812 475.882812 571.996094 465.902344 592.746094 C 456.539062 612.175781 441.523438 625.828125 419.207031 634.324219 C 425.765625 635.441406 430.261719 636.183594 434.757812 636.925781 C 437.234375 636.71875 439.832031 635.933594 442.183594 636.386719 C 457.773438 639.109375 473.410156 641.503906 488.792969 645.132812 C 516.308594 651.609375 541.882812 646.824219 567.167969 635.191406 C 580.65625 629.003906 595.257812 625.210938 609.367188 620.300781 C 589.195312 615.269531 569.191406 608.546875 548.605469 605.453125 Z M 548.605469 605.453125 " fill-opacity="1" fill-rule="nonzero"/><g clip-path="url(#78fc73ef09)"><path fill="#e6e6e6" d="M 544.441406 586.890625 C 583.542969 604.421875 618.648438 597.117188 651.6875 565.066406 C 678.210938 539.371094 691.988281 506.824219 701.433594 472.007812 C 703.746094 463.511719 705.355469 454.808594 707.375 445.691406 C 705.683594 445.691406 704.734375 445.402344 704.242188 445.734375 C 681.675781 462.6875 655.320312 465.988281 628.339844 466.398438 C 621.207031 466.523438 619.183594 468.667969 617.742188 475.886719 C 608.832031 520.640625 588.289062 558.304688 548.605469 583.507812 C 547.246094 584.496094 546.007812 585.652344 544.441406 586.890625 Z M 544.441406 586.890625 " fill-opacity="1" fill-rule="nonzero"/></g><path fill="#e6e6e6" d="M 435.210938 636.964844 C 436.40625 637.75 437.605469 638.535156 438.800781 639.316406 C 439.582031 639.730469 440.367188 640.140625 441.152344 640.554688 C 465.035156 649.792969 488.464844 660.273438 512.882812 667.820312 C 534.707031 674.585938 556.527344 668.355469 575.582031 657.550781 C 590.308594 649.175781 602.726562 636.800781 616.132812 626.160156 C 617.082031 625.414062 617.410156 623.929688 618.234375 622.40625 C 615.140625 621.664062 612.5 621.003906 609.863281 620.34375 C 595.753906 625.210938 581.191406 629.046875 567.664062 635.234375 C 542.378906 646.867188 516.761719 651.609375 489.25 645.175781 C 473.863281 641.542969 458.230469 639.152344 442.636719 636.429688 C 440.285156 635.976562 437.6875 636.757812 435.210938 636.964844 Z M 435.210938 636.964844 " fill-opacity="1" fill-rule="nonzero"/><path fill="#e6e6e6" d="M 441.152344 640.554688 C 440.367188 640.140625 439.582031 639.730469 438.800781 639.316406 C 439.582031 639.730469 440.367188 640.140625 441.152344 640.554688 Z M 441.152344 640.554688 " fill-opacity="1" fill-rule="nonzero"/></svg>