<svg xmlns="http://www.w3.org/2000/svg" xmlns:xlink="http://www.w3.org/1999/xlink" width="1080" zoomAndPan="magnify" viewBox="0 0 810 809.999993" height="1080" preserveAspectRatio="xMidYMid meet" version="1.0"><defs><clipPath id="337217047b"><path d="M 6 111.03125 L 650 111.03125 L 650 632 L 6 632 Z M 6 111.03125 " clip-rule="nonzero"/></clipPath><clipPath id="43c882e74f"><rect x="0" width="729" y="0" height="729"/></clipPath></defs><g transform="matrix(1, 0, 0, 1, 59, 33)"><g clip-path="url(#43c882e74f)"><path fill="#ffffff" d="M 708.292969 441.125 L 664.152344 524.074219 C 660.867188 530.257812 657.394531 536.332031 653.738281 542.300781 C 650.078125 548.265625 646.238281 554.117188 642.214844 559.847656 C 638.195312 565.578125 634 571.179688 629.632812 576.648438 C 625.265625 582.121094 620.734375 587.449219 616.035156 592.640625 C 611.339844 597.832031 606.488281 602.875 601.476562 607.765625 C 596.46875 612.65625 591.3125 617.386719 586.011719 621.957031 C 580.710938 626.527344 575.273438 630.933594 569.699219 635.167969 C 564.125 639.402344 558.425781 643.460938 552.601562 647.34375 C 546.777344 651.226562 540.835938 654.929688 534.785156 658.441406 C 528.730469 661.957031 522.574219 665.285156 516.3125 668.417969 C 510.054688 671.554688 503.703125 674.492188 497.261719 677.234375 C 490.820312 679.976562 484.300781 682.515625 477.703125 684.855469 C 471.105469 687.195312 464.441406 689.328125 457.710938 691.253906 C 450.980469 693.179688 444.199219 694.898438 437.363281 696.40625 C 430.527344 697.910156 423.648438 699.207031 416.734375 700.289062 C 409.816406 701.371094 402.875 702.238281 395.902344 702.890625 C 388.933594 703.542969 381.949219 703.976562 374.953125 704.199219 C 367.957031 704.417969 360.957031 704.421875 353.960938 704.210938 C 346.964844 704 339.980469 703.570312 333.007812 702.925781 C 326.039062 702.28125 319.09375 701.421875 312.175781 700.347656 C 305.257812 699.277344 298.382812 697.988281 291.542969 696.488281 C 284.707031 694.992188 277.921875 693.28125 271.1875 691.363281 C 264.457031 689.445312 257.789062 687.320312 251.1875 684.988281 C 244.585938 682.65625 238.0625 680.125 231.621094 677.390625 C 225.175781 674.65625 218.820312 671.722656 212.558594 668.597656 C 206.296875 665.46875 200.136719 662.152344 194.078125 658.644531 C 188.019531 655.132812 182.074219 651.441406 176.246094 647.566406 C 170.417969 643.691406 164.710938 639.636719 159.132812 635.410156 C 153.554688 631.179688 148.113281 626.78125 142.804688 622.21875 C 137.5 617.652344 132.339844 612.925781 127.324219 608.042969 C 122.308594 603.15625 117.449219 598.121094 112.746094 592.9375 C 108.042969 587.75 103.503906 582.425781 99.132812 576.960938 C 94.757812 571.496094 90.554688 565.898438 86.527344 560.171875 C 82.5 554.445312 78.652344 548.601562 74.988281 542.640625 C 71.320312 536.675781 67.84375 530.605469 64.550781 524.425781 C 61.261719 518.246094 58.164062 511.972656 55.261719 505.601562 C 52.359375 499.230469 49.65625 492.777344 47.152344 486.238281 C 44.648438 479.703125 42.351562 473.09375 40.253906 466.414062 C 38.160156 459.734375 36.273438 452.996094 34.597656 446.199219 C 32.917969 439.402344 31.453125 432.5625 30.195312 425.675781 C 28.941406 418.789062 27.902344 411.867188 27.074219 404.917969 C 26.246094 397.964844 25.636719 390.996094 25.238281 384.003906 C 24.84375 377.015625 24.664062 370.019531 24.703125 363.019531 C 24.738281 356.019531 24.992188 349.027344 25.460938 342.042969 C 25.929688 335.058594 26.613281 328.09375 27.515625 321.152344 C 28.414062 314.210938 29.527344 307.300781 30.855469 300.429688 C 32.183594 293.554688 33.722656 286.730469 35.46875 279.949219 C 37.21875 273.171875 39.175781 266.453125 41.339844 259.796875 C 43.507812 253.140625 45.875 246.554688 48.445312 240.046875 C 51.019531 233.535156 53.789062 227.109375 56.757812 220.769531 C 59.730469 214.429688 62.890625 208.1875 66.246094 202.042969 C 69.601562 195.902344 73.144531 189.867188 76.875 183.941406 C 80.601562 178.015625 84.511719 172.214844 88.597656 166.53125 C 92.6875 160.847656 96.945312 155.296875 101.375 149.875 C 105.808594 144.457031 110.402344 139.179688 115.160156 134.042969 C 119.917969 128.90625 124.828125 123.925781 129.894531 119.09375 C 134.960938 114.261719 140.167969 109.589844 145.523438 105.082031 C 150.878906 100.570312 156.367188 96.230469 161.988281 92.0625 C 167.613281 87.890625 173.359375 83.898438 179.230469 80.085938 C 185.097656 76.269531 191.082031 72.640625 197.175781 69.195312 C 203.269531 65.75 209.464844 62.496094 215.761719 59.4375 C 222.054688 56.375 228.441406 53.511719 234.914062 50.84375 C 241.386719 48.179688 247.933594 45.714844 254.558594 43.453125 C 261.183594 41.191406 267.875 39.136719 274.625 37.289062 L 364.367188 13.035156 L 297.910156 78.035156 C 295.578125 80.34375 293.285156 82.695312 291.039062 85.085938 C 288.792969 87.480469 286.589844 89.914062 284.433594 92.390625 C 282.277344 94.863281 280.167969 97.375 278.101562 99.929688 C 276.039062 102.480469 274.023438 105.070312 272.054688 107.695312 C 270.085938 110.324219 268.164062 112.984375 266.292969 115.683594 C 264.425781 118.378906 262.605469 121.113281 260.835938 123.875 C 259.066406 126.640625 257.347656 129.4375 255.679688 132.265625 C 254.015625 135.09375 252.402344 137.949219 250.839844 140.839844 C 249.277344 143.726562 247.773438 146.640625 246.320312 149.585938 C 244.867188 152.527344 243.46875 155.496094 242.125 158.492188 C 240.78125 161.488281 239.492188 164.503906 238.261719 167.546875 C 237.027344 170.589844 235.851562 173.652344 234.734375 176.738281 C 233.613281 179.824219 232.550781 182.929688 231.546875 186.054688 C 230.542969 189.179688 229.597656 192.324219 228.707031 195.484375 C 227.820312 198.644531 226.988281 201.820312 226.21875 205.007812 C 225.445312 208.199219 224.734375 211.402344 224.082031 214.621094 C 223.429688 217.835938 222.835938 221.066406 222.300781 224.304688 C 221.765625 227.542969 221.292969 230.789062 220.878906 234.046875 C 220.464844 237.300781 220.109375 240.566406 219.816406 243.835938 C 219.523438 247.105469 219.289062 250.378906 219.117188 253.65625 C 218.945312 256.933594 218.832031 260.214844 218.78125 263.496094 C 218.726562 266.777344 218.738281 270.058594 218.804688 273.339844 C 218.875 276.621094 219.003906 279.902344 219.195312 283.179688 C 219.386719 286.457031 219.636719 289.726562 219.949219 292.996094 C 220.257812 296.261719 220.628906 299.523438 221.0625 302.777344 C 221.492188 306.03125 221.984375 309.277344 222.535156 312.511719 C 223.085938 315.75 223.699219 318.972656 224.367188 322.1875 C 225.039062 325.398438 225.769531 328.601562 226.554688 331.785156 C 227.34375 334.972656 228.191406 338.144531 229.097656 341.296875 C 230.003906 344.453125 230.964844 347.589844 231.988281 350.710938 C 233.007812 353.828125 234.085938 356.929688 235.222656 360.007812 C 236.359375 363.089844 237.550781 366.148438 238.800781 369.183594 C 240.046875 372.21875 241.351562 375.230469 242.710938 378.21875 C 244.070312 381.207031 245.484375 384.167969 246.953125 387.101562 C 248.421875 390.039062 249.945312 392.945312 251.523438 395.824219 C 253.097656 398.703125 254.726562 401.550781 256.410156 404.371094 C 258.089844 407.191406 259.824219 409.976562 261.605469 412.734375 C 263.390625 415.488281 265.226562 418.210938 267.109375 420.898438 C 268.996094 423.585938 270.929688 426.234375 272.910156 428.851562 C 274.894531 431.46875 276.925781 434.046875 279.003906 436.585938 C 281.082031 439.128906 283.203125 441.632812 285.375 444.09375 C 287.542969 446.554688 289.757812 448.976562 292.019531 451.359375 C 294.277344 453.738281 296.582031 456.078125 298.925781 458.375 C 301.273438 460.671875 303.660156 462.921875 306.089844 465.128906 C 308.519531 467.339844 310.988281 469.5 313.496094 471.617188 C 316.003906 473.734375 318.550781 475.804688 321.136719 477.828125 C 323.722656 479.847656 326.34375 481.824219 329 483.75 C 331.660156 485.675781 334.351562 487.550781 337.078125 489.378906 C 339.804688 491.207031 342.566406 492.980469 345.359375 494.707031 C 348.152344 496.429688 350.976562 498.101562 353.832031 499.722656 C 356.683594 501.34375 359.570312 502.910156 362.480469 504.425781 C 365.394531 505.9375 368.332031 507.398438 371.300781 508.804688 C 374.265625 510.210938 377.257812 511.5625 380.273438 512.855469 C 383.289062 514.152344 386.328125 515.390625 389.390625 516.574219 C 392.453125 517.757812 395.535156 518.882812 398.636719 519.953125 C 401.742188 521.019531 404.863281 522.03125 408.003906 522.984375 C 411.144531 523.941406 414.300781 524.835938 417.476562 525.671875 C 420.648438 526.511719 423.839844 527.289062 427.039062 528.007812 C 430.242188 528.730469 433.457031 529.390625 436.683594 529.992188 C 439.910156 530.59375 443.148438 531.132812 446.394531 531.613281 C 449.640625 532.097656 452.898438 532.519531 456.160156 532.878906 C 459.421875 533.242188 462.691406 533.542969 465.964844 533.785156 C 469.238281 534.023438 472.515625 534.203125 475.792969 534.324219 C 479.074219 534.445312 482.355469 534.503906 485.640625 534.503906 C 498.347656 534.554688 510.992188 533.691406 523.574219 531.910156 C 536.160156 530.132812 548.546875 527.457031 560.746094 523.882812 C 572.941406 520.308594 584.816406 515.878906 596.371094 510.585938 C 607.925781 505.296875 619.039062 499.199219 629.710938 492.300781 Z M 708.292969 441.125 " fill-opacity="1" fill-rule="nonzero"/><g clip-path="url(#337217047b)"><path fill="#fdfdfd" d="M 525.167969 390.054688 C 536.945312 378.78125 548.34375 367.09375 559.222656 354.917969 C 587.355469 322.5625 626.304688 272.613281 622.03125 227.546875 C 620.109375 207.515625 606.941406 193.292969 589.703125 185.683594 C 599.175781 182.128906 612.632812 180.511719 632.191406 178.816406 C 573.667969 173.707031 569.519531 169.570312 564.421875 111.046875 C 559.3125 169.570312 555.179688 173.722656 496.65625 178.816406 C 555.179688 183.925781 559.328125 188.0625 564.421875 246.585938 C 567.597656 210.121094 570.417969 194.757812 586.238281 187.148438 C 597.542969 193.113281 607.21875 201.59375 611.777344 213.859375 C 621.574219 242.085938 603.066406 274.167969 587.339844 297.175781 C 575.667969 314.0625 562.148438 329.699219 547.902344 344.515625 C 536.503906 356.1875 524.757812 367.507812 512.71875 378.476562 C 494 355.652344 488.628906 317.496094 482.757812 250.109375 C 470.15625 394.496094 459.949219 404.699219 315.59375 417.300781 C 375.640625 422.535156 412.457031 427.371094 435.90625 441.621094 C 392.394531 474.179688 346.640625 503.882812 300.398438 532.074219 C 273.625 547.851562 245.84375 561.917969 217.433594 574.550781 C 170.171875 595.3125 121.199219 613.910156 69.96875 620.683594 C 59.824219 621.8125 49.601562 622.269531 39.699219 621.21875 C 34.695312 620.714844 30.042969 619.785156 25.953125 617.800781 C -14.382812 597.496094 58.769531 496.40625 76.878906 472.5 C 53.933594 499.304688 -16.582031 586.816406 14.894531 619.800781 C 28.105469 632.964844 53.613281 631.804688 70.914062 630.921875 C 123.914062 626.328125 174.609375 608.554688 223.550781 588.691406 C 301.511719 556.074219 373.035156 510.183594 441.105469 460.386719 C 444.21875 458.066406 447.300781 455.734375 450.382812 453.382812 C 471.070312 475.839844 476.640625 514.316406 482.757812 584.527344 C 495.359375 440.140625 505.566406 429.933594 649.949219 417.332031 C 585.949219 411.75 548.328125 406.625 525.152344 390.085938 Z M 525.167969 390.054688 " fill-opacity="1" fill-rule="nonzero"/></g></g></g></svg>