<svg xmlns="http://www.w3.org/2000/svg" xmlns:xlink="http://www.w3.org/1999/xlink" width="1080" zoomAndPan="magnify" viewBox="0 0 810 809.999993" height="1080" preserveAspectRatio="xMidYMid meet" version="1.0"><defs><clipPath id="f255e8f17a"><path d="M 89 81 L 721 81 L 721 714.75 L 89 714.75 Z M 89 81 " clip-rule="nonzero"/></clipPath></defs><path fill="#ffffff" d="M 623.6875 480.089844 C 638.699219 454.4375 642.375 423.421875 641.761719 394.09375 C 641.574219 390.183594 641.476562 381.832031 640.90625 378.003906 C 640.277344 372.8125 639.953125 367.105469 638.890625 362.011719 C 638.890625 362.011719 636.941406 351.441406 636.941406 351.441406 C 636.449219 348.390625 635.0625 344.058594 634.394531 341.007812 C 631.453125 328.894531 626.984375 317.03125 622.09375 305.5625 C 620.566406 302.195312 616.683594 294.582031 615.007812 291.136719 C 613.183594 287.988281 608.730469 280.238281 606.945312 277.242188 C 600.121094 266.847656 592.804688 256.617188 584.414062 247.460938 C 565.792969 226.171875 542.648438 208.832031 517.488281 196.078125 C 513.292969 193.996094 510.308594 199.976562 514.136719 202.195312 C 537.28125 216.621094 558.230469 234.332031 575.054688 255.433594 C 613.308594 302.019531 631.464844 364.53125 624.136719 424.375 C 622.433594 437.683594 619.914062 450.746094 617.378906 463.960938 C 616.628906 467.882812 615.839844 471.820312 615.078125 475.8125 C 582.03125 462.828125 545.550781 487.769531 546.21875 523.515625 C 546.394531 537.164062 552.046875 549.113281 560.765625 557.75 C 559.867188 558.28125 558.96875 558.8125 558.097656 559.355469 C 551.992188 563.15625 546.230469 567.3125 540.578125 571.683594 C 539.953125 572.160156 539.296875 572.597656 538.820312 573.277344 C 537.867188 574.625 537.308594 576.710938 537.828125 580.074219 C 538.179688 584.855469 545.277344 587.417969 548.425781 585.972656 C 549.828125 585.429688 551.324219 583.875 552.550781 583.015625 C 558.941406 577.675781 564.785156 571.574219 569.089844 564.410156 C 582.125 572.734375 598.988281 575.019531 614.847656 567.953125 C 632.105469 560.515625 643.78125 542.234375 643.003906 523.488281 C 646.339844 506.105469 638.441406 489.433594 623.660156 480.074219 Z M 623.6875 480.089844 " fill-opacity="1" fill-rule="nonzero"/><path fill="#ffffff" d="M 556.855469 460.007812 C 596.265625 364.980469 535.46875 255.621094 433.820312 239.492188 C 311.425781 219.304688 214.042969 340.664062 259.144531 454.410156 C 244.554688 464.816406 238.398438 484.898438 246.027344 501.761719 C 251.964844 515.574219 266.648438 524.960938 281.648438 524.292969 C 301.304688 524.007812 318.058594 506.449219 316.902344 486.996094 C 323.753906 458.523438 291.851562 439.179688 266.445312 450.324219 C 266.117188 450.460938 265.792969 450.625 265.464844 450.761719 C 263.378906 444.847656 261.652344 438.839844 260.316406 432.722656 C 258.394531 423.953125 257.359375 415.015625 256.964844 406.078125 C 254.390625 352.3125 283.351562 299.1875 329.597656 271.902344 C 391.578125 234.222656 475.027344 248.8125 520.238281 305.5625 C 566.050781 360.472656 563.164062 446.019531 513.835938 497.730469 C 478.1875 536.894531 421.207031 552.734375 369.917969 541.457031 C 359.117188 539.207031 348.421875 535.777344 338.273438 531.28125 C 332.078125 528.652344 326.015625 525.476562 320.128906 522.179688 C 316.753906 520.355469 313.566406 524.917969 316.519531 527.464844 C 331.027344 539.535156 348.261719 548.621094 366.675781 554.097656 C 443.480469 577.472656 527.28125 533.625 556.84375 459.996094 Z M 264.621094 469.980469 C 271.457031 463.386719 282.03125 461.523438 290.679688 465.1875 C 300.066406 469.410156 306.113281 477.40625 310.214844 487.007812 C 310.214844 487.007812 309.925781 487.007812 309.925781 487.007812 C 309.421875 501.773438 296.210938 514.183594 281.632812 513.257812 C 259.445312 512.238281 248.628906 485.496094 264.605469 469.980469 Z M 264.621094 469.980469 " fill-opacity="1" fill-rule="nonzero"/><path fill="#ffffff" d="M 197.953125 289.921875 C 179.78125 324.769531 170.628906 364.328125 171.878906 403.628906 C 174.429688 541.945312 301.726562 649.386719 438.507812 626.855469 C 440.332031 626.554688 441.625 624.863281 441.421875 623.011719 C 441.203125 621.105469 439.472656 619.730469 437.554688 619.949219 C 424.039062 621.515625 410.417969 621.867188 396.890625 620.957031 C 383.363281 620.109375 369.945312 618.039062 356.84375 614.8125 C 225.539062 582.730469 152.550781 440.679688 203.867188 315.492188 C 225.8125 261.277344 270.234375 219.578125 321.179688 192.171875 C 330.414062 213.351562 355.820312 225.148438 378.71875 214.824219 C 393.988281 208.191406 404.289062 191.964844 403.539062 175.359375 C 407.421875 157.40625 397.503906 140.148438 379.917969 133.023438 C 350.222656 120.613281 316.847656 143.15625 317.570312 175.359375 C 317.609375 178.601562 318.019531 181.722656 318.726562 184.734375 C 307.324219 188.179688 296.265625 192.890625 285.652344 198.519531 C 247.769531 218.773438 217.636719 252 197.953125 289.9375 Z M 197.953125 289.921875 " fill-opacity="1" fill-rule="nonzero"/><path fill="#ffffff" d="M 500.175781 598.695312 C 494.902344 599.773438 489.835938 601.269531 484.808594 603.054688 L 482.957031 603.738281 C 481.445312 604.171875 480.449219 604.988281 479.796875 606.625 C 478.636719 609.390625 478.449219 613.980469 481.0625 616.488281 C 483.363281 618.9375 485.082031 619.550781 486.59375 619.59375 C 487.875 619.566406 489.441406 618.679688 490.640625 618.300781 C 498.582031 614.976562 506.113281 610.507812 511.738281 603.792969 C 513.796875 601.394531 511.792969 597.347656 508.605469 597.59375 C 505.636719 597.703125 502.886719 598.179688 500.1875 598.710938 Z M 500.175781 598.695312 " fill-opacity="1" fill-rule="nonzero"/><path fill="#ffffff" d="M 437.824219 179.597656 C 446.433594 181.953125 458.761719 185.304688 467.167969 187.867188 C 470.832031 188.875 474.605469 190.699219 478.527344 189.746094 C 482.097656 189.105469 487.082031 186.597656 485.449219 181.871094 C 484.195312 178.492188 482.207031 176.355469 479.386719 174.746094 C 477.289062 173.628906 473.925781 172.9375 471.648438 172.1875 C 455.957031 167.976562 439.460938 166.003906 423.292969 168.359375 C 419.625 168.902344 419.203125 174.203125 422.773438 175.304688 C 427.839844 176.914062 432.855469 178.234375 437.8125 179.597656 Z M 437.824219 179.597656 " fill-opacity="1" fill-rule="nonzero"/><g clip-path="url(#f255e8f17a)"><path fill="#ffffff" d="M 701.0625 291.679688 C 699.386719 287.445312 693.050781 289.734375 694.507812 294.050781 C 706.644531 328.378906 712.503906 364.832031 711.847656 401.132812 C 711.195312 510.914062 646.859375 615.003906 549.867188 665.964844 C 338.519531 777.132812 87.667969 612.851562 106.140625 374.640625 C 117.8125 220.695312 246.613281 100.097656 400.652344 96.84375 C 466.023438 94.621094 530.878906 113.992188 585.503906 150.039062 C 578.855469 159.203125 574.988281 170.441406 575.300781 182.375 C 575.75 220.042969 614.722656 245.746094 649.308594 230.421875 C 652.15625 229.195312 654.855469 227.710938 657.402344 225.980469 C 657.730469 227.015625 658.082031 228.023438 658.449219 229.03125 C 660.5625 234.699219 663.246094 240.039062 666.296875 245.214844 C 666.636719 245.789062 666.921875 246.375 667.480469 246.808594 C 668.585938 247.695312 670.410156 248.265625 673.695312 247.898438 C 677.917969 247.859375 682.003906 241.890625 681.242188 238.800781 C 680.996094 237.558594 679.851562 236.199219 679.277344 235.109375 C 675.453125 229.167969 670.941406 223.625 665.300781 219.320312 C 674.785156 209.550781 680.394531 196.082031 679.863281 182.363281 C 685.328125 152.164062 659.675781 127.003906 629.410156 127.300781 C 614.070312 127.234375 599.972656 133.976562 590.011719 144.601562 C 562.617188 123.105469 531.179688 106.5 497.761719 95.644531 C 348.027344 47.378906 184.453125 122.328125 118.78125 264.367188 C 33.371094 446.277344 140.496094 664.152344 336.941406 706.992188 C 579.917969 760.542969 786.691406 525.503906 701.0625 291.679688 Z M 629.394531 143.5 C 651.339844 143.609375 667.917969 161.984375 673.164062 182.390625 L 672.875 182.390625 C 672.535156 193.820312 667.496094 204.757812 659.390625 212.386719 C 643.332031 228.078125 615.757812 227.4375 600.707031 211.078125 C 576.539062 185.605469 594.25 143.375 629.394531 143.5 Z M 629.394531 143.5 " fill-opacity="1" fill-rule="nonzero"/></g><path fill="#ffffff" d="M 350.167969 359.109375 C 347.089844 362.132812 344.390625 365.59375 342.089844 369.339844 C 337.511719 376.941406 334.664062 385.644531 333.753906 394.515625 C 331.3125 417.222656 341.75 440.296875 359.210938 454.75 C 387.398438 479.039062 432.171875 477.1875 458.070312 450.488281 C 499.847656 408.367188 476.105469 335.964844 416.929688 328.527344 C 399.847656 326.28125 381.878906 330.914062 368.039062 341.074219 C 366.050781 342.574219 366.324219 344.929688 367.605469 346.304688 L 354.664062 359.054688 C 353.394531 357.855469 351.40625 357.855469 350.140625 359.082031 Z M 456.664062 399.785156 C 456.664062 399.785156 456.664062 399.8125 456.679688 399.828125 L 457.496094 401.773438 C 457.632812 402.183594 457.632812 402.632812 457.6875 403.042969 C 457.742188 403.4375 457.851562 403.871094 457.835938 404.292969 C 457.78125 404.664062 457.742188 405.03125 457.6875 405.398438 C 457.660156 405.78125 457.605469 406.160156 457.539062 406.527344 C 457.539062 406.554688 457.523438 406.582031 457.511719 406.625 C 457.113281 408.011719 456.421875 409.210938 455.414062 410.234375 L 453.765625 411.515625 C 452.484375 412.25 451.109375 412.632812 449.636719 412.632812 C 448.914062 412.535156 448.191406 412.441406 447.46875 412.34375 C 446.40625 412.085938 445.480469 411.609375 444.691406 410.886719 C 443.804688 410.316406 443.097656 409.554688 442.582031 408.597656 C 442.539062 408.53125 442.511719 408.464844 442.472656 408.394531 C 441.871094 407.589844 441.421875 406.691406 441.136719 405.683594 C 441.039062 404.960938 440.945312 404.242188 440.851562 403.503906 C 440.808594 402.375 441.042969 401.324219 441.558594 400.359375 C 441.886719 399.351562 442.457031 398.464844 443.246094 397.730469 C 443.984375 396.9375 444.867188 396.367188 445.875 396.039062 C 446.859375 395.523438 447.90625 395.289062 449.023438 395.332031 C 449.40625 395.34375 450.019531 395.453125 450.207031 395.480469 C 450.5625 395.523438 451.011719 395.535156 451.378906 395.644531 L 451.421875 395.644531 C 452.074219 395.929688 452.730469 396.21875 453.367188 396.488281 C 453.394531 396.503906 453.421875 396.515625 453.449219 396.53125 C 454.089844 396.925781 454.71875 397.359375 455.234375 397.90625 C 455.261719 397.933594 455.277344 397.945312 455.304688 397.972656 C 455.464844 398.164062 456.476562 399.445312 456.609375 399.664062 C 456.636719 399.703125 456.652344 399.730469 456.664062 399.773438 Z M 413.359375 344.574219 C 433.179688 344.152344 449.964844 356.632812 455.574219 375.566406 C 458.574219 385.6875 442.796875 389.976562 439.816406 379.910156 C 436.21875 367.789062 425.921875 360.664062 413.359375 360.921875 C 402.816406 361.140625 402.859375 344.792969 413.359375 344.574219 Z M 413.359375 344.574219 " fill-opacity="1" fill-rule="nonzero"/></svg>