<svg xmlns="http://www.w3.org/2000/svg" xmlns:xlink="http://www.w3.org/1999/xlink" width="1080" zoomAndPan="magnify" viewBox="0 0 810 809.999993" height="1080" preserveAspectRatio="xMidYMid meet" version="1.0"><defs><clipPath id="f6f60282f9"><path d="M 313 21.777344 L 481 21.777344 L 481 363 L 313 363 Z M 313 21.777344 " clip-rule="nonzero"/></clipPath><clipPath id="476873b832"><path d="M 433 197 L 728.816406 197 L 728.816406 400 L 433 400 Z M 433 197 " clip-rule="nonzero"/></clipPath><clipPath id="3ab3135b13"><path d="M 433 410 L 728.816406 410 L 728.816406 613 L 433 613 Z M 433 410 " clip-rule="nonzero"/></clipPath><clipPath id="c935b5a46c"><path d="M 313 447 L 481 447 L 481 788.277344 L 313 788.277344 Z M 313 447 " clip-rule="nonzero"/></clipPath><clipPath id="c4db9ce92e"><path d="M 65.066406 410 L 361 410 L 361 613 L 65.066406 613 Z M 65.066406 410 " clip-rule="nonzero"/></clipPath><clipPath id="0672d1cf53"><path d="M 65.066406 197 L 361 197 L 361 400 L 65.066406 400 Z M 65.066406 197 " clip-rule="nonzero"/></clipPath></defs><g clip-path="url(#f6f60282f9)"><path fill="#ffffff" d="M 480.347656 192.234375 C 480.347656 261.507812 447.757812 323.167969 397.078125 362.722656 C 369.519531 341.214844 347.3125 313.171875 332.78125 280.921875 C 368.089844 268.050781 404.492188 266.828125 442.753906 279.445312 L 461.269531 230.589844 C 414.132812 214.972656 361.753906 216.320312 317.308594 231.179688 C 315.007812 218.546875 313.808594 205.53125 313.808594 192.234375 C 313.808594 122.964844 346.394531 61.300781 397.078125 21.746094 C 447.757812 61.300781 480.347656 122.964844 480.347656 192.234375 Z M 480.347656 192.234375 " fill-opacity="1" fill-rule="nonzero"/></g><g clip-path="url(#476873b832)"><path fill="#ffffff" d="M 622.945312 370.714844 C 562.953125 405.351562 493.257812 407.960938 433.664062 383.847656 C 438.511719 349.226562 451.695312 315.972656 472.359375 287.265625 C 501.15625 311.40625 520.417969 342.320312 528.621094 381.765625 L 580.1875 373.371094 C 570.148438 324.738281 542.789062 280.050781 507.699219 248.992188 C 517.488281 240.683594 528.160156 233.136719 539.675781 226.488281 C 599.667969 191.851562 669.359375 189.246094 728.957031 213.359375 C 720.042969 277.027344 682.9375 336.078125 622.945312 370.714844 Z M 622.945312 370.714844 " fill-opacity="1" fill-rule="nonzero"/></g><g clip-path="url(#3ab3135b13)"><path fill="#ffffff" d="M 539.675781 583.449219 C 479.683594 548.8125 442.578125 489.761719 433.664062 426.089844 C 466.070312 412.980469 501.460938 407.769531 536.652344 411.3125 C 530.144531 448.320312 513.003906 480.460938 482.945312 507.285156 L 515.996094 547.75 C 553.09375 514.738281 578.113281 468.703125 587.46875 422.78125 C 599.558594 427.105469 611.429688 432.574219 622.945312 439.222656 C 682.9375 473.859375 720.042969 532.910156 728.957031 596.578125 C 669.359375 620.695312 599.667969 618.085938 539.675781 583.449219 Z M 539.675781 583.449219 " fill-opacity="1" fill-rule="nonzero"/></g><g clip-path="url(#c935b5a46c)"><path fill="#ffffff" d="M 313.808594 617.703125 C 313.808594 548.429688 346.394531 486.769531 397.078125 447.214844 C 424.636719 468.722656 446.84375 496.765625 461.371094 529.015625 C 426.066406 541.886719 389.660156 543.109375 351.402344 530.492188 L 332.886719 579.347656 C 380.019531 594.964844 432.402344 593.617188 476.847656 578.757812 C 479.144531 591.390625 480.34375 604.40625 480.34375 617.703125 C 480.34375 686.972656 447.757812 748.636719 397.078125 788.191406 C 346.394531 748.636719 313.808594 686.972656 313.808594 617.703125 Z M 313.808594 617.703125 " fill-opacity="1" fill-rule="nonzero"/></g><g clip-path="url(#c4db9ce92e)"><path fill="#ffffff" d="M 171.210938 439.222656 C 231.199219 404.585938 300.894531 401.976562 360.492188 426.09375 C 355.644531 460.710938 342.460938 493.96875 321.796875 522.675781 C 292.996094 498.53125 273.734375 467.617188 265.535156 428.175781 L 213.964844 436.566406 C 224.007812 485.199219 251.363281 529.886719 286.457031 560.945312 C 276.664062 569.253906 265.992188 576.800781 254.476562 583.449219 C 194.488281 618.085938 124.792969 620.695312 65.195312 596.578125 C 74.113281 532.910156 111.21875 473.859375 171.210938 439.222656 Z M 171.210938 439.222656 " fill-opacity="1" fill-rule="nonzero"/></g><g clip-path="url(#0672d1cf53)"><path fill="#ffffff" d="M 254.476562 226.488281 C 314.46875 261.125 351.574219 320.175781 360.492188 383.847656 C 328.085938 396.957031 292.695312 402.167969 257.5 398.625 C 264.007812 361.617188 281.152344 329.476562 311.210938 302.652344 L 278.15625 262.1875 C 241.0625 295.199219 216.039062 341.238281 206.6875 387.15625 C 194.597656 382.832031 182.722656 377.363281 171.210938 370.714844 C 111.21875 336.078125 74.113281 277.027344 65.195312 213.359375 C 124.792969 189.242188 194.488281 191.851562 254.476562 226.488281 Z M 254.476562 226.488281 " fill-opacity="1" fill-rule="nonzero"/></g></svg>